<svg width="128" height="40" viewBox="0 0 128 40" fill="none" xmlns="http://www.w3.org/2000/svg">
<path fill-rule="evenodd" clip-rule="evenodd" d="M112.134 22.8451H116.07H116.073C116.485 22.8529 116.827 22.5226 116.842 22.1025V10.9625C116.842 9.56331 116.915 8.29955 117.468 7.03602C117.847 6.07497 118.74 5.42782 119.754 5.37995C122.271 5.37995 122.247 8.19697 122.228 10.4102C122.226 10.5968 122.225 10.7792 122.225 10.9552V22.1952C122.273 22.5559 122.568 22.8294 122.924 22.8451H126.894C127.271 22.8531 127.595 22.5752 127.653 22.1952V9.17055C127.653 7.16823 127.653 4.38038 126.622 2.72432C125.507 0.939685 123.78 0.286377 122.011 0.286377C119.285 0.286377 117.737 1.63562 116.632 4.46609H116.555V1.30008C116.476 0.969092 116.19 0.732706 115.856 0.721764H112.193C111.806 0.71219 111.477 1.00693 111.435 1.39992V22.1025C111.44 22.4993 111.746 22.8242 112.134 22.8451ZM108.429 11.9869C108.429 5.45495 105.259 0.314873 99.3975 0.314873C93.6861 0.314873 90.516 5.36923 90.516 11.7692C90.516 18.1689 93.6476 23.309 99.3975 23.309C104.934 23.309 108.429 18.3011 108.429 11.9869ZM96.339 11.1159C96.339 8.58882 96.5241 4.54109 99.4358 4.54109C100.687 4.54109 101.571 5.11575 102.015 6.54341C102.532 8.19606 102.606 10.2877 102.606 12.0297C102.606 14.6851 102.491 19.0399 99.3972 19.0399C96.3377 19.0399 96.3386 13.7601 96.339 11.1995V11.1159ZM22.4849 22.888H26.4309H26.4346C26.6325 22.8925 26.8244 22.8164 26.9673 22.6764C27.1102 22.5365 27.1928 22.3439 27.1964 22.1417V11.1729V11.0012C27.1948 8.61618 27.1925 5.46201 29.9227 5.46201C32.4466 5.46201 32.4076 8.23344 32.3761 10.4715C32.3727 10.7126 32.3693 10.9481 32.3693 11.1729V22.1453C32.3761 22.5415 32.6809 22.8652 33.0684 22.888H37.025C37.2224 22.8914 37.4134 22.815 37.5557 22.6751C37.6979 22.5351 37.7797 22.3434 37.7836 22.1417V11.1729L37.7831 10.9121C37.7809 9.75 37.7775 8.1817 38.154 7.20743C38.5379 6.21129 39.4657 5.54453 40.5133 5.51193C41.6563 5.51193 42.5405 5.90447 42.8341 7.29657C42.9841 7.96651 42.9645 9.51977 42.9517 10.5497C42.9488 10.7927 42.946 11.0067 42.946 11.1729V22.1453C42.951 22.5422 43.2567 22.867 43.6449 22.888H47.5912C47.7893 22.8925 47.981 22.8164 48.1239 22.6764C48.2669 22.5365 48.3494 22.3439 48.353 22.1417V9.0812C48.353 8.76298 48.3585 8.43769 48.364 8.10898C48.3963 6.15886 48.4305 4.08268 47.3569 2.5921C46.0555 0.901616 43.9625 0.0591109 41.8813 0.388273C39.8003 0.717434 38.0549 2.16697 37.3152 4.18047C36.2071 1.56427 34.6237 0.347012 32.1911 0.347012C29.7584 0.347012 27.9514 1.56427 26.9938 4.18047H26.9204V1.47856C26.8996 1.09333 26.5985 0.78582 26.2212 0.76462H22.5407C22.1343 0.760517 21.7992 1.08854 21.7858 1.50341V22.2059C21.8215 22.5784 22.1188 22.8684 22.4849 22.888ZM15.6167 23.0448C15.3568 23.275 14.9832 23.3136 14.6835 23.1412C13.5652 22.1909 13.228 21.6773 12.7101 20.8886C12.6212 20.7528 12.5266 20.6091 12.422 20.4535C10.2514 22.7093 8.71708 23.384 5.91043 23.384C2.58647 23.384 0 21.2887 0 17.0982C0 13.8251 1.74761 11.6014 4.19428 10.5091C6.00093 9.69963 8.4114 9.4482 10.4956 9.23096C10.8831 9.19061 11.2592 9.1514 11.6182 9.10992V8.58882C11.6182 8.48944 11.6189 8.388 11.6198 8.28519C11.6267 7.39664 11.6344 6.40733 11.1393 5.66193C10.6569 4.91949 9.74127 4.61609 8.92338 4.61609C7.41685 4.61609 6.07472 5.40502 5.74617 7.03624C5.70453 7.41669 5.41781 7.72124 5.04711 7.77868L1.25129 7.35378C1.06189 7.3262 0.891859 7.22043 0.780915 7.06109C0.669948 6.90198 0.627709 6.70321 0.66409 6.5115C1.54141 1.77125 5.73569 0.339947 9.49303 0.339947C11.4153 0.339947 13.9251 0.861041 15.435 2.34592C17.2076 4.04073 17.1964 6.25939 17.1846 8.68388C17.1837 8.88402 17.1825 9.08553 17.1825 9.2884V15.5669C17.1825 17.2578 17.7968 18.0989 18.444 18.985C18.5208 19.0903 18.5983 19.1961 18.6751 19.3041C18.9268 19.6611 18.9826 20.1072 18.6751 20.3748C17.8677 21.0639 16.4346 22.3345 15.6482 23.0519L15.6167 23.0448ZM11.6355 13.2146L11.6358 13.4102C11.6371 14.8949 11.6383 16.1538 10.8981 17.4978C10.269 18.633 9.27283 19.3326 8.16134 19.3326C6.64786 19.3326 5.76357 18.1548 5.76357 16.4057C5.76357 12.9719 8.78 12.3473 11.6355 12.3473V13.2146ZM70.1942 18.9702C70.2712 19.0755 70.3485 19.1817 70.4255 19.2898C70.6911 19.6611 70.7469 20.0965 70.408 20.3427C69.6006 21.0315 68.1677 22.3058 67.3813 23.0197C67.1196 23.2468 66.7473 23.2839 66.448 23.1125C65.3247 22.1583 64.9921 21.6523 64.4669 20.8531L64.4655 20.851C64.3782 20.7181 64.2855 20.5772 64.1831 20.4247C62.016 22.6808 60.4711 23.3553 57.6749 23.3553C54.3509 23.3553 51.7645 21.2602 51.7645 17.0732C51.7645 13.7966 53.5015 11.5727 55.9762 10.4806C57.7868 9.66794 60.2108 9.41765 62.3009 9.20201C62.6798 9.1628 63.0488 9.12496 63.4001 9.08484V8.57446C63.4001 8.47553 63.4008 8.37455 63.4017 8.27243C63.4085 7.38364 63.4163 6.39388 62.9177 5.65121C62.4493 4.90877 61.5161 4.60173 60.7018 4.60173C59.1953 4.60173 57.8602 5.39066 57.5281 7.02188C57.4852 7.40188 57.1991 7.70574 56.8289 7.76432L53.0019 7.34306C52.8111 7.31639 52.6394 7.2104 52.5277 7.05038C52.4158 6.89013 52.3736 6.68999 52.411 6.49714C53.2918 1.75347 57.4861 0.325586 61.2434 0.325586C63.1623 0.325586 65.6721 0.84668 67.1854 2.33156C68.9616 4.01771 68.9491 6.21904 68.9354 8.63122C68.9343 8.84322 68.9331 9.05908 68.9331 9.27404V15.5562C68.9331 17.2437 69.5472 18.0844 70.1942 18.9702ZM59.9327 19.3112C61.0408 19.3112 62.0404 18.6116 62.6661 17.4801C63.4087 16.1285 63.4081 14.8636 63.4072 13.3603V13.2003V12.3295C60.5514 12.3295 57.5351 12.9504 57.5351 16.3877C57.5351 18.1331 58.4193 19.3112 59.9327 19.3112ZM73.7669 1.43206V4.38038C73.7648 4.58257 73.8439 4.77702 73.9859 4.91789C74.1279 5.05876 74.3203 5.13422 74.5182 5.12647H81.313L73.522 16.5484C73.1664 17.1612 72.9984 17.8685 73.0397 18.5795V21.5955C73.0397 22.0311 73.5116 22.5271 73.9624 22.2809C78.2596 20.0055 83.3693 19.9962 87.6744 22.2559C88.1672 22.5164 88.632 22.0131 88.632 21.5777V18.4081C88.6188 17.9234 88.3519 17.4833 87.9329 17.2551C85.6645 15.9523 83.0256 15.5705 80.5299 15.6311L87.255 5.82947C87.8805 4.9514 88.2301 4.39474 88.2301 3.96984V1.43206C88.232 1.23055 88.1533 1.03679 88.012 0.895921C87.8709 0.755047 87.6794 0.679365 87.482 0.686203H74.5043C74.3066 0.674806 74.1138 0.749572 73.9732 0.891586C73.8325 1.03383 73.7575 1.23032 73.7669 1.43206Z" fill="#F8F9FF"/>
<path fill-rule="evenodd" clip-rule="evenodd" d="M80.2571 36.0514C81.1555 33.7705 83.1546 28.6592 82.204 27.4205H82.2109C81.2644 26.1793 75.9516 26.8308 73.5617 27.1237L73.5567 27.1244C72.8298 27.2135 72.7179 26.5675 73.3714 26.1C77.6147 23.0552 84.5668 23.9262 85.3742 24.9541C86.1816 25.9821 85.154 33.0995 81.1799 36.4975C80.5683 37.0186 79.9845 36.7403 80.2571 36.0514ZM51.7044 39.5708C60.946 39.5708 71.7078 36.5905 79.121 31.0044V31.0151C80.3478 30.0727 79.2958 28.6879 78.0446 29.2304C69.9526 32.716 61.2663 34.5355 52.484 34.5843C40.2995 34.5843 28.5135 31.1721 18.9786 25.5075C18.1434 25.0113 17.521 25.8859 18.2202 26.5247C27.3998 34.9826 39.341 39.6353 51.7044 39.5708Z" fill="#F8F9FF"/>
</svg>
