<svg width="188" height="33" viewBox="0 0 188 33" fill="none" xmlns="http://www.w3.org/2000/svg">
<rect width="188" height="31.4841" transform="translate(0 0.875488)" fill="#131D26"/>
<path d="M3.24213 25.0618L14.147 5.83032H17.1821L20.352 25.0618H17.8535L16.9138 19.5281H9.15133L6.06259 25.0618H3.24213ZM10.2534 17.5414H16.6194L15.8668 12.7067C15.8131 12.349 15.7595 12.0353 15.7058 11.767C15.6522 11.3914 15.6068 11.0241 15.571 10.6664C15.4637 9.75282 15.3825 8.83927 15.3288 7.92709C14.8459 9.10894 14.2006 10.416 13.3944 11.8482L10.2534 17.5414Z" fill="#F8D153"/>
<path d="M27.2821 13.0852C28.7322 11.5814 30.1823 10.8289 31.6339 10.8289C32.923 10.8289 33.9879 11.3035 34.8299 12.2528C35.7256 13.2916 36.1727 14.6881 36.1727 16.4423C36.1727 18.9133 35.4656 21.0348 34.0512 22.8083C32.6726 24.5102 31.0876 25.3604 29.2977 25.3604C27.5958 25.3604 26.3066 24.5184 25.4302 22.8358L23.8453 30.4097H21.4816L25.51 11.1522H27.6852L27.2821 13.0852ZM26.18 20.0951C26.18 20.3455 26.1979 20.5876 26.2337 20.8202C26.5557 22.5757 27.5504 23.4521 29.2151 23.4521C30.5401 23.4521 31.66 22.6555 32.5722 21.0609C33.3784 19.6466 33.7802 18.1153 33.7802 16.4684C33.7802 13.9795 32.8226 12.7344 30.906 12.7344C30.1535 12.7344 29.4559 12.9765 28.8107 13.4595C28.2548 13.8722 27.7636 14.4528 27.333 15.2054C26.5625 16.5661 26.1787 17.9543 26.1787 19.3687V20.0951H26.18Z" fill="white"/>
<path d="M42.2154 13.0852C43.6655 11.5814 45.1156 10.8289 46.5671 10.8289C47.8563 10.8289 48.9212 11.3035 49.7632 12.2528C50.6589 13.2916 51.106 14.6881 51.106 16.4423C51.106 18.9133 50.3989 21.0348 48.9845 22.8083C47.6059 24.5102 46.0209 25.3604 44.231 25.3604C42.5291 25.3604 41.2399 24.5184 40.3635 22.8358L38.7785 30.4097H36.4149L40.4433 11.1522H42.6185L42.2154 13.0852ZM41.1133 20.0951C41.1133 20.3455 41.1312 20.5876 41.167 20.8202C41.4889 22.5757 42.4837 23.4521 44.1484 23.4521C45.4734 23.4521 46.5933 22.6555 47.5055 21.0609C48.3117 19.6466 48.7134 18.1153 48.7134 16.4684C48.7134 13.9795 47.7559 12.7344 45.8393 12.7344C45.0867 12.7344 44.3892 12.9765 43.7439 13.4595C43.1881 13.8722 42.6969 14.4528 42.2663 15.2054C41.4958 16.5661 41.112 17.9543 41.112 19.3687V20.0951H41.1133Z" fill="white"/>
<path d="M52.3142 25.0618L56.3427 5.83032H58.7063L54.6779 25.0618H52.3142Z" fill="white"/>
<path d="M64.9118 26.6447C64.572 27.2528 64.2762 27.7371 64.0258 28.0948C63.686 28.5777 63.3544 28.9808 63.0324 29.3028C62.262 30.0375 61.3498 30.4034 60.2932 30.4034C59.6658 30.4034 59.1388 30.3223 58.7082 30.1613L58.843 27.9325C59.4154 28.0755 59.8639 28.1471 60.1858 28.1471C60.7761 28.1471 61.2783 27.9586 61.6896 27.583C61.9758 27.3326 62.3156 26.8662 62.7105 26.1865L63.4631 24.8437L61.1531 10.8776H63.4892L64.5362 17.8875C64.7687 19.2839 64.9476 20.6804 65.0728 22.0769L71.304 10.8762H73.775L64.9118 26.6447Z" fill="white"/>
<path d="M187.819 32.3662H0L0 0.88208H187.819V32.3662ZM0.833789 31.5649H186.985V1.68332H0.833789V31.5649Z" fill="#F8D153"/>
<path d="M188.001 1.67896H151.302V32.1331H188.001V1.67896Z" fill="#F8D153"/>
<path d="M161.713 26.7231C160.29 26.7231 159.175 26.3832 158.364 25.7022C157.554 25.0212 157.148 24.1007 157.148 22.9382C157.148 20.9955 157.989 19.5495 159.671 18.5974C161.354 17.6467 163.396 17.1005 165.799 16.9602L168.173 16.7799C168.353 16.7607 168.497 16.7043 168.609 16.6148C168.719 16.524 168.784 16.4098 168.804 16.2695L168.924 15.4591C168.964 15.1386 168.984 14.9184 168.984 14.7987C168.984 13.9182 168.7 13.2316 168.129 12.7405C167.558 12.2507 166.772 12.0044 165.77 12.0044C163.947 12.0044 162.376 12.8258 161.054 14.4671C160.994 14.5469 160.934 14.5923 160.874 14.602C160.813 14.613 160.733 14.5978 160.633 14.5566L159.102 14.0159C158.982 13.976 158.922 13.8962 158.922 13.7751C158.922 13.6747 158.961 13.555 159.041 13.4146C159.781 12.3938 160.739 11.6027 161.91 11.0413C163.082 10.4814 164.428 10.2007 165.951 10.2007C167.732 10.2007 169.09 10.5818 170.02 11.3426C170.952 12.1035 171.417 13.1546 171.417 14.496C171.417 14.6969 171.396 14.9968 171.356 15.3972L169.884 26.0613C169.864 26.2223 169.829 26.3213 169.78 26.3612C169.729 26.4011 169.624 26.4218 169.465 26.4218H167.962C167.702 26.4218 167.571 26.2622 167.571 25.9416L167.721 24.4997C167.721 24.38 167.691 24.3195 167.631 24.3195C167.57 24.3195 167.46 24.3993 167.3 24.5603C165.678 26.0021 163.815 26.7231 161.713 26.7231ZM168.442 18.7033L168.473 18.5231C168.473 18.3635 168.363 18.2933 168.142 18.3126L166.07 18.4928C164.388 18.6125 162.906 18.973 161.625 19.5742C160.343 20.1755 159.703 21.1771 159.703 22.5777C159.703 23.2794 159.963 23.8352 160.484 24.2452C161.005 24.6552 161.725 24.8616 162.647 24.8616C163.308 24.8616 163.954 24.746 164.584 24.5162C165.215 24.2865 165.791 23.981 166.311 23.5999C166.831 23.2202 167.252 22.8185 167.573 22.3988C167.893 21.9778 168.074 21.5885 168.113 21.228L168.442 18.7033Z" fill="#131D27"/>
<path d="M176.792 26.0008C176.771 26.2017 176.732 26.3214 176.672 26.3613C176.612 26.4012 176.472 26.4218 176.251 26.4218H174.719C174.378 26.4218 174.228 26.2526 174.267 25.9114L176.4 10.8322C176.419 10.6919 176.45 10.6025 176.491 10.5626C176.531 10.5227 176.611 10.502 176.732 10.502H178.623C178.864 10.502 178.963 10.652 178.923 10.9533L176.792 26.0008ZM179.556 7.13675C179.516 7.33762 179.461 7.47246 179.391 7.54262C179.321 7.61279 179.186 7.64718 178.985 7.64718H177.153C176.853 7.64718 176.743 7.45732 176.822 7.07621L177.183 4.5832C177.223 4.28327 177.373 4.1333 177.633 4.1333H179.585C179.705 4.1333 179.796 4.18283 179.855 4.28327C179.915 4.38371 179.925 4.51441 179.885 4.674L179.556 7.13675Z" fill="#131D27"/>
<path d="M104.327 22.5347C103.324 23.6628 102.277 24.4595 101.185 24.9245C100.2 25.3359 99.26 25.4611 98.3643 25.3001C96.5193 24.9603 95.5975 23.9133 95.5975 22.1577C95.5975 21.7463 95.6416 21.262 95.7324 20.7076C95.786 20.3677 95.8837 19.8573 96.0282 19.1763L97.7204 11.1455H100.084L98.0699 20.9222C98.0162 21.262 97.9887 21.5399 97.9887 21.7546C97.9887 22.8649 98.6244 23.4193 99.8956 23.4193C101.417 23.4193 102.706 22.6943 103.763 21.2441C104.192 20.6525 104.532 19.9646 104.784 19.1763C104.873 18.8901 104.963 18.5503 105.052 18.1554L106.53 11.1455H108.894L105.993 25.058H103.791L104.327 22.5347Z" fill="white"/>
<path d="M109.645 25.0586L112.545 11.1461H114.937L112.009 25.0586H109.645ZM113.111 8.51277L113.675 5.82715H116.039L115.474 8.51277H113.111Z" fill="white"/>
<path d="M126.163 15.5749C126.146 13.6776 125.224 12.7283 123.397 12.7283C121.946 12.7283 120.783 13.4809 119.905 14.9847C119.098 16.3632 118.697 18.0555 118.697 20.0615C118.697 22.3715 119.601 23.5258 121.41 23.5258C123.2 23.5258 124.489 22.344 125.277 19.9803L127.641 20.2225C126.459 23.6428 124.373 25.3529 121.382 25.3529C119.841 25.3529 118.616 24.87 117.702 23.9028C116.771 22.8998 116.306 21.5391 116.306 19.8207C116.306 17.2782 116.959 15.1566 118.266 13.4547C119.627 11.7005 121.409 10.8228 123.611 10.8228C125.043 10.8228 126.207 11.2162 127.103 12.0046C128.035 12.8466 128.49 13.9927 128.473 15.4428L126.163 15.5749Z" fill="white"/>
<path d="M129.119 25.0586L133.147 5.82715H135.511L133.012 17.7529L139.942 11.1461H143.085L137.122 16.3303L140.721 25.0599H138.115L135.348 17.9152L132.474 20.4138L131.481 25.0599H129.119V25.0586Z" fill="white"/>
<path d="M91.4894 7.8693C90.0021 6.29397 88.043 5.50562 85.6063 5.50562C84.3447 5.50562 83.1725 5.70924 82.0925 6.11649C81.4885 6.3435 81.2092 7.03967 81.483 7.6244C81.7348 8.16373 82.3731 8.41688 82.9193 8.17748C83.7545 7.81014 84.6598 7.62715 85.6352 7.62715C87.2106 7.62715 88.5176 8.1995 89.5564 9.34557C89.566 9.35657 89.577 9.36759 89.5866 9.37859C89.6802 9.48041 89.8357 9.49554 89.9457 9.41161L91.4564 8.26279C91.5816 8.16785 91.5995 7.98487 91.4922 7.87068C91.4908 7.87068 91.4894 7.8693 91.4894 7.8693Z" fill="white"/>
<path d="M93.2973 11.0448C93.1598 10.5867 92.9878 10.1491 92.7828 9.73502C92.4897 9.14479 91.7316 8.96593 91.2074 9.36492L90.9075 9.59331C90.514 9.89187 90.3696 10.4257 90.5759 10.8742C90.7039 11.1535 90.8126 11.4452 90.9006 11.7506C91.0877 12.3959 91.7729 12.7564 92.4085 12.539L92.5516 12.4894C93.1474 12.2858 93.4776 11.6488 93.2973 11.0448Z" fill="white"/>
<path d="M91.7151 22.6963C91.3065 22.6798 90.9639 22.999 90.9488 23.4062L90.8841 25.0957C90.2017 24.5908 89.6321 24.068 89.1794 23.5273C92.2049 21.2709 93.7183 18.1381 93.7183 14.1262C93.7183 13.8483 93.7101 13.5745 93.6922 13.3076C93.6784 13.0916 93.461 12.9485 93.256 13.0187L91.4179 13.6488C91.2831 13.6942 91.195 13.8208 91.195 13.9639C91.195 13.9652 91.195 13.9652 91.195 13.9666C91.195 17.4035 90.0036 20.0368 87.622 21.8625L87.0593 21.2723C86.8254 21.0398 86.5929 20.8334 86.3604 20.6546C85.7701 20.1538 85.1152 19.7589 84.3998 19.4727L83.4601 21.0852C83.9981 21.3535 84.4906 21.6493 84.9377 21.9712C85.2597 22.2216 85.5899 22.5092 85.9311 22.8311C85.1964 23.1173 84.3283 23.2604 83.3253 23.2604C81.9453 23.2604 80.7373 22.7155 79.6986 21.6218C78.5346 20.422 77.9526 18.8384 77.9526 16.8682C77.9526 14.4922 78.5731 12.467 79.8128 10.7912C79.9559 10.5972 79.9834 10.3413 79.8816 10.1225L79.3395 8.96271C79.1427 8.54308 78.5814 8.4619 78.2746 8.80862C76.3759 10.9577 75.428 13.5814 75.428 16.6784C75.428 19.3461 76.1874 21.4691 77.7105 23.0444C79.2322 24.6018 81.3 25.3805 83.9155 25.3805C85.0616 25.3805 86.2696 25.0847 87.5422 24.4945C87.5422 24.5138 87.5587 24.5303 87.5959 24.5482L87.999 25.0036C88.215 25.2375 88.4296 25.4521 88.6442 25.6488C88.9345 25.9309 89.2441 26.2033 89.5743 26.4675L87.827 26.7261C87.4239 26.7853 87.1446 27.1609 87.2051 27.5654C87.2588 27.9327 87.5752 28.1955 87.9343 28.1955C87.9701 28.1955 88.0072 28.1928 88.043 28.1873L91.6628 27.6507C92.0137 27.5984 92.2792 27.304 92.293 26.949L92.4264 23.4626C92.4402 23.054 92.1224 22.7114 91.7151 22.6963Z" fill="#F8D153"/>
<path d="M84.1316 17.9986C83.9183 17.9986 83.7064 17.9257 83.5482 17.7991L81.4666 16.1302C81.2932 15.9912 81.19 15.8 81.1749 15.5922C81.1611 15.39 81.2327 15.1932 81.3785 15.0378C81.5092 14.8988 81.6922 14.8039 81.8917 14.7722C81.9412 14.764 81.9921 14.7599 82.043 14.7599C82.2563 14.7599 82.4627 14.8314 82.6236 14.9594L84.0284 16.0862L87.3606 12.465C87.4927 12.3219 87.6771 12.2242 87.8807 12.1926C87.9302 12.1843 87.9811 12.1802 88.032 12.1802C88.2426 12.1802 88.4462 12.249 88.6058 12.3742C88.7805 12.5117 88.8864 12.7016 88.9043 12.9094C88.9208 13.1116 88.8507 13.3084 88.7076 13.4652L84.8002 17.7124C84.6681 17.8555 84.4838 17.9532 84.2801 17.9848C84.2526 17.989 84.2251 17.9917 84.1976 17.9945C84.1756 17.9972 84.1536 17.9986 84.1316 17.9986Z" fill="white"/>
</svg>
