<svg width="176" height="31" viewBox="0 0 176 31" fill="none" xmlns="http://www.w3.org/2000/svg">
<rect width="176" height="29.4745" transform="translate(0 0.880371)" fill="#131D26"/>
<path d="M3.03516 23.5224L13.244 5.51855H16.0853L19.0529 23.5224H16.7139L15.8342 18.342H8.56718L5.67559 23.5224H3.03516ZM9.59888 16.4821H15.5585L14.854 11.9561C14.8037 11.6212 14.7535 11.3275 14.7033 11.0763C14.6531 10.7247 14.6106 10.3808 14.5771 10.0459C14.4766 9.19068 14.4006 8.33544 14.3504 7.48149C13.8983 8.5879 13.2942 9.81151 12.5394 11.1523L9.59888 16.4821Z" fill="#F8D153"/>
<path d="M25.5407 12.3103C26.8983 10.9025 28.2558 10.198 29.6147 10.198C30.8215 10.198 31.8185 10.6424 32.6068 11.5311C33.4452 12.5035 33.8638 13.8109 33.8638 15.4531C33.8638 17.7664 33.2018 19.7525 31.8777 21.4128C30.5871 23.006 29.1033 23.802 27.4276 23.802C25.8344 23.802 24.6275 23.0137 23.807 21.4385L22.3232 28.529H20.1104L23.8817 10.5007H25.9181L25.5407 12.3103ZM24.509 18.8728C24.509 19.1072 24.5257 19.3339 24.5592 19.5516C24.8606 21.1951 25.7919 22.0155 27.3504 22.0155C28.5907 22.0155 29.6392 21.2698 30.4931 19.777C31.2479 18.4529 31.624 17.0193 31.624 15.4776C31.624 13.1476 30.7275 11.9819 28.9333 11.9819C28.2288 11.9819 27.5758 12.2086 26.9717 12.6607C26.4513 13.0471 25.9915 13.5906 25.5883 14.2952C24.8671 15.569 24.5077 16.8686 24.5077 18.1927V18.8728H24.509Z" fill="white"/>
<path d="M39.5207 12.3103C40.8783 10.9025 42.2359 10.198 43.5947 10.198C44.8016 10.198 45.7985 10.6424 46.5868 11.5311C47.4253 12.5035 47.8439 13.8109 47.8439 15.4531C47.8439 17.7664 47.1819 19.7525 45.8578 21.4128C44.5672 23.006 43.0834 23.802 41.4077 23.802C39.8144 23.802 38.6075 23.0137 37.7871 21.4385L36.3033 28.529H34.0905L37.8618 10.5007H39.8981L39.5207 12.3103ZM38.489 18.8728C38.489 19.1072 38.5058 19.3339 38.5393 19.5516C38.8407 21.1951 39.7719 22.0155 41.3304 22.0155C42.5708 22.0155 43.6192 21.2698 44.4732 19.777C45.2279 18.4529 45.604 17.0193 45.604 15.4776C45.604 13.1476 44.7076 11.9819 42.9134 11.9819C42.2088 11.9819 41.5558 12.2086 40.9517 12.6607C40.4314 13.0471 39.9715 13.5906 39.5684 14.2952C38.8471 15.569 38.4877 16.8686 38.4877 18.1927V18.8728H38.489Z" fill="white"/>
<path d="M48.975 23.5224L52.7463 5.51855H54.9591L51.1878 23.5224H48.975Z" fill="white"/>
<path d="M60.7685 25.0044C60.4503 25.5737 60.1734 26.0271 59.939 26.3619C59.6209 26.814 59.3105 27.1914 59.0091 27.4928C58.2878 28.1806 57.4338 28.5232 56.4446 28.5232C55.8573 28.5232 55.364 28.4472 54.9608 28.2965L55.087 26.21C55.6229 26.3439 56.0427 26.4109 56.3441 26.4109C56.8967 26.4109 57.3668 26.2344 57.752 25.8828C58.0199 25.6484 58.338 25.2117 58.7076 24.5755L59.4122 23.3184L57.2496 10.2437H59.4367L60.4168 16.8062C60.6345 18.1135 60.802 19.4208 60.9192 20.7282L66.7526 10.2424H69.0659L60.7685 25.0044Z" fill="white"/>
<path d="M175.831 30.3607H0L0 0.88623H175.831V30.3607ZM0.780569 29.6106H175.05V1.63633H0.780569V29.6106Z" fill="#F8D153"/>
<path d="M176.001 1.63232H141.644V30.1425H176.001V1.63232Z" fill="#F8D153"/>
<path d="M151.391 25.0776C150.059 25.0776 149.014 24.7595 148.256 24.1219C147.497 23.4844 147.117 22.6227 147.117 21.5343C147.117 19.7156 147.904 18.3619 149.479 17.4706C151.055 16.5806 152.966 16.0693 155.216 15.9379L157.438 15.7691C157.607 15.7511 157.742 15.6983 157.846 15.6146C157.949 15.5296 158.01 15.4227 158.029 15.2913L158.141 14.5327C158.179 14.2325 158.198 14.0265 158.198 13.9144C158.198 13.0901 157.931 12.4474 157.397 11.9875C156.862 11.529 156.127 11.2984 155.189 11.2984C153.483 11.2984 152.012 12.0674 150.774 13.604C150.717 13.6787 150.662 13.7212 150.605 13.7302C150.549 13.7405 150.474 13.7264 150.38 13.6877L148.946 13.1815C148.834 13.1442 148.778 13.0695 148.778 12.9561C148.778 12.8621 148.815 12.75 148.89 12.6187C149.583 11.663 150.479 10.9223 151.575 10.3968C152.672 9.87262 153.932 9.60986 155.358 9.60986C157.026 9.60986 158.297 9.96664 159.168 10.6789C160.04 11.3912 160.475 12.3752 160.475 13.631C160.475 13.8191 160.456 14.0999 160.419 14.4747L159.04 24.4581C159.021 24.6088 158.989 24.7015 158.943 24.7389C158.895 24.7762 158.797 24.7956 158.648 24.7956H157.241C156.998 24.7956 156.875 24.6462 156.875 24.3461L157.016 22.9962C157.016 22.8841 156.987 22.8275 156.931 22.8275C156.874 22.8275 156.771 22.9022 156.622 23.0529C155.103 24.4027 153.359 25.0776 151.391 25.0776ZM157.691 17.5698L157.719 17.4011C157.719 17.2517 157.616 17.186 157.41 17.204L155.47 17.3727C153.895 17.4848 152.508 17.8223 151.308 18.3851C150.108 18.948 149.509 19.8856 149.509 21.1968C149.509 21.8537 149.753 22.3741 150.241 22.7579C150.728 23.1418 151.402 23.335 152.265 23.335C152.884 23.335 153.489 23.2268 154.079 23.0117C154.669 22.7966 155.209 22.5106 155.695 22.1538C156.182 21.7984 156.576 21.4223 156.877 21.0294C157.177 20.6353 157.345 20.2708 157.383 19.9333L157.691 17.5698Z" fill="#131D27"/>
<path d="M165.507 24.4014C165.488 24.5895 165.451 24.7015 165.395 24.7389C165.339 24.7762 165.207 24.7956 165.001 24.7956H163.566C163.247 24.7956 163.107 24.6371 163.144 24.3177L165.14 10.201C165.158 10.0697 165.187 9.98594 165.225 9.94858C165.263 9.91123 165.337 9.89191 165.451 9.89191H167.222C167.447 9.89191 167.54 10.0323 167.503 10.3144L165.507 24.4014ZM168.095 6.74143C168.058 6.92948 168.006 7.05571 167.94 7.12139C167.875 7.18708 167.749 7.21928 167.56 7.21928H165.845C165.564 7.21928 165.461 7.04154 165.536 6.68476L165.873 4.35087C165.911 4.07008 166.051 3.92969 166.294 3.92969H168.122C168.234 3.92969 168.319 3.97606 168.375 4.07008C168.431 4.16411 168.44 4.28647 168.403 4.43588L168.095 6.74143Z" fill="#131D27"/>
<path d="M97.668 21.1563C96.729 22.2125 95.7489 22.9583 94.7262 23.3936C93.804 23.7787 92.9242 23.896 92.0857 23.7453C90.3585 23.4271 89.4955 22.4469 89.4955 20.8034C89.4955 20.4183 89.5368 19.9649 89.6218 19.4459C89.672 19.1277 89.7635 18.6499 89.8987 18.0123L91.483 10.4941H93.6958L91.8101 19.6468C91.7599 19.9649 91.7341 20.2251 91.7341 20.426C91.7341 21.4655 92.3292 21.9845 93.5193 21.9845C94.9438 21.9845 96.1507 21.3057 97.1399 19.9482C97.5418 19.3943 97.8599 18.7503 98.0956 18.0123C98.1793 17.7444 98.2631 17.4262 98.3468 17.0566L99.7301 10.4941H101.943L99.2278 23.5186H97.1657L97.668 21.1563Z" fill="white"/>
<path d="M102.646 23.5193L105.362 10.4948H107.6L104.859 23.5193H102.646ZM105.891 8.02958L106.419 5.51538H108.632L108.104 8.02958H105.891Z" fill="white"/>
<path d="M118.11 14.641C118.094 12.8648 117.231 11.976 115.52 11.976C114.163 11.976 113.073 12.6806 112.251 14.0884C111.496 15.379 111.12 16.9632 111.12 18.8412C111.12 21.0037 111.967 22.0844 113.66 22.0844C115.336 22.0844 116.543 20.978 117.281 18.7652L119.494 18.9919C118.387 22.1939 116.435 23.7949 113.634 23.7949C112.192 23.7949 111.044 23.3428 110.189 22.4373C109.317 21.4984 108.882 20.2245 108.882 18.6158C108.882 16.2355 109.494 14.2494 110.717 12.6561C111.991 11.0139 113.659 10.1921 115.721 10.1921C117.062 10.1921 118.152 10.5605 118.99 11.2985C119.862 12.0868 120.288 13.1597 120.273 14.5173L118.11 14.641Z" fill="white"/>
<path d="M120.877 23.5193L124.648 5.51538H126.861L124.522 16.6799L131.01 10.4948H133.952L128.369 15.3481L131.739 23.5205H129.299L126.709 16.8319L124.018 19.1709L123.088 23.5205H120.877V23.5193Z" fill="white"/>
<path d="M85.6496 7.42717C84.2573 5.95239 82.4232 5.21436 80.1421 5.21436C78.961 5.21436 77.8636 5.40498 76.8525 5.78623C76.2871 5.99876 76.0256 6.6505 76.2819 7.1979C76.5176 7.7028 77.1153 7.93979 77.6266 7.71568C78.4084 7.37178 79.2559 7.20047 80.1691 7.20047C81.6439 7.20047 82.8675 7.73629 83.84 8.8092C83.849 8.81951 83.8593 8.82982 83.8683 8.84012C83.9559 8.93544 84.1015 8.9496 84.2045 8.87103L85.6187 7.79554C85.7359 7.70666 85.7527 7.53536 85.6522 7.42845C85.6509 7.42845 85.6496 7.42717 85.6496 7.42717Z" fill="white"/>
<path d="M87.3421 10.4C87.2133 9.97109 87.0523 9.5615 86.8604 9.17381C86.5861 8.62125 85.8764 8.45381 85.3856 8.82733L85.1048 9.04115C84.7365 9.32065 84.6012 9.82039 84.7944 10.2403C84.9142 10.5018 85.016 10.7748 85.0984 11.0608C85.2736 11.6648 85.915 12.0023 86.5101 11.7988L86.644 11.7524C87.2017 11.5618 87.5109 10.9654 87.3421 10.4Z" fill="white"/>
<path d="M85.8609 21.3077C85.4784 21.2923 85.1577 21.5911 85.1435 21.9723L85.083 23.554C84.4441 23.0813 83.9109 22.5919 83.4871 22.0857C86.3195 19.9733 87.7363 17.0405 87.7363 13.2847C87.7363 13.0245 87.7286 12.7682 87.7118 12.5183C87.6989 12.3161 87.4954 12.1821 87.3035 12.2478L85.5827 12.8377C85.4565 12.8802 85.3741 12.9987 85.3741 13.1327C85.3741 13.134 85.3741 13.134 85.3741 13.1352C85.3741 16.3527 84.2586 18.818 82.0291 20.5272L81.5023 19.9746C81.2833 19.7569 81.0656 19.5637 80.848 19.3963C80.2954 18.9275 79.6823 18.5578 79.0126 18.2899L78.1328 19.7994C78.6365 20.0506 79.0976 20.3275 79.5162 20.6289C79.8176 20.8633 80.1267 21.1325 80.4461 21.4339C79.7583 21.7018 78.9456 21.8358 78.0066 21.8358C76.7147 21.8358 75.5839 21.3257 74.6114 20.3018C73.5217 19.1786 72.9769 17.6961 72.9769 15.8517C72.9769 13.6273 73.5578 11.7313 74.7183 10.1625C74.8523 9.9809 74.878 9.74133 74.7827 9.53653L74.2752 8.45074C74.091 8.05789 73.5655 7.9819 73.2783 8.30648C71.5008 10.3184 70.6134 12.7746 70.6134 15.6739C70.6134 18.1714 71.3244 20.1588 72.7502 21.6336C74.1748 23.0916 76.1107 23.8206 78.5592 23.8206C79.6321 23.8206 80.763 23.5437 81.9544 22.9911C81.9544 23.0092 81.9698 23.0246 82.0046 23.0414L82.382 23.4677C82.5842 23.6867 82.7852 23.8876 82.9861 24.0718C83.2579 24.3358 83.5477 24.5909 83.8568 24.8382L82.221 25.0803C81.8436 25.1357 81.5821 25.4873 81.6388 25.866C81.6891 26.2099 81.9853 26.4559 82.3215 26.4559C82.355 26.4559 82.3897 26.4533 82.4232 26.4482L85.812 25.9459C86.1404 25.8969 86.389 25.6213 86.4019 25.289L86.5268 22.0251C86.5397 21.6426 86.2422 21.3219 85.8609 21.3077Z" fill="#F8D153"/>
<path d="M78.7615 16.9099C78.5618 16.9099 78.3635 16.8416 78.2153 16.7231L76.2666 15.1608C76.1043 15.0307 76.0077 14.8517 75.9935 14.6572C75.9806 14.4678 76.0476 14.2836 76.1841 14.1381C76.3065 14.008 76.4778 13.9191 76.6646 13.8895C76.7109 13.8818 76.7586 13.8779 76.8062 13.8779C77.0059 13.8779 77.1991 13.9449 77.3498 14.0647L78.6648 15.1196L81.7844 11.7295C81.9081 11.5956 82.0807 11.5041 82.2713 11.4745C82.3177 11.4668 82.3653 11.4629 82.413 11.4629C82.61 11.4629 82.8007 11.5273 82.9501 11.6445C83.1137 11.7733 83.2128 11.951 83.2296 12.1455C83.245 12.3349 83.1793 12.5191 83.0454 12.6659L79.3874 16.642C79.2638 16.776 79.0912 16.8674 78.9006 16.897C78.8748 16.9009 78.849 16.9035 78.8233 16.906C78.8027 16.9086 78.7821 16.9099 78.7615 16.9099Z" fill="white"/>
</svg>
