<svg width="14" height="14" viewBox="0 0 14 14" fill="none" xmlns="http://www.w3.org/2000/svg">
<path d="M2.3335 6.84014C2.3335 6.61865 2.49809 6.43561 2.71163 6.40664L2.771 6.40264L10.4617 6.40299L7.68325 3.63593C7.51203 3.46545 7.51144 3.18844 7.68192 3.01722C7.83691 2.86156 8.07993 2.84692 8.25148 2.97363L8.30064 3.01588L11.8298 6.52988C11.8524 6.55236 11.872 6.57668 11.8886 6.60236C11.8933 6.61009 11.8981 6.618 11.9026 6.62607C11.9068 6.63299 11.9106 6.64017 11.9141 6.64743C11.9191 6.65799 11.9239 6.66891 11.9283 6.68004C11.9318 6.68863 11.9348 6.69698 11.9375 6.7054C11.9407 6.71584 11.9439 6.72696 11.9466 6.73825C11.9486 6.74614 11.9502 6.75372 11.9515 6.76134C11.9535 6.77268 11.9551 6.78441 11.9563 6.79628C11.9573 6.80533 11.958 6.8143 11.9583 6.82327C11.9584 6.82872 11.9585 6.83442 11.9585 6.84014L11.9583 6.85709C11.9579 6.86568 11.9574 6.87426 11.9565 6.88281L11.9585 6.84014C11.9585 6.86775 11.9559 6.89476 11.951 6.92095C11.9499 6.92721 11.9486 6.93363 11.9471 6.94002C11.944 6.95319 11.9404 6.96588 11.9362 6.97831C11.9342 6.98449 11.9318 6.99109 11.9293 6.99764C11.9242 7.0108 11.9186 7.02335 11.9125 7.03558C11.9097 7.04132 11.9065 7.04734 11.9032 7.0533C11.8977 7.06301 11.8921 7.07225 11.8861 7.08125C11.8819 7.08762 11.8773 7.09425 11.8724 7.10078L11.8686 7.10582C11.8568 7.12122 11.844 7.13581 11.8304 7.1495L11.8298 7.14991L8.30066 10.6645C8.12946 10.835 7.85245 10.8344 7.68195 10.6632C7.52695 10.5076 7.51333 10.2645 7.64077 10.0935L7.68323 10.0445L10.4605 7.27799L2.771 7.27764C2.52937 7.27764 2.3335 7.08177 2.3335 6.84014Z" fill="#0077B5"/>
</svg>
