<svg width="1415" height="321" viewBox="0 0 1415 321" fill="none" xmlns="http://www.w3.org/2000/svg">
<path d="M1287.77 283.18C1287.77 284.466 1287.53 285.542 1287.05 286.406C1286.58 287.266 1285.88 287.914 1284.97 288.352C1284.06 288.784 1282.96 289 1281.67 289H1278.5V277.578H1282.02C1283.2 277.578 1284.22 277.792 1285.08 278.219C1285.94 278.641 1286.6 279.268 1287.07 280.102C1287.54 280.93 1287.77 281.956 1287.77 283.18ZM1285.82 283.234C1285.82 282.297 1285.67 281.526 1285.38 280.922C1285.08 280.318 1284.65 279.87 1284.08 279.578C1283.51 279.281 1282.81 279.133 1281.98 279.133H1280.38V287.43H1281.7C1283.08 287.43 1284.11 287.078 1284.8 286.375C1285.48 285.672 1285.82 284.625 1285.82 283.234ZM1298.5 284.656C1298.5 285.375 1298.41 286.013 1298.22 286.57C1298.03 287.128 1297.76 287.599 1297.4 287.984C1297.04 288.365 1296.61 288.656 1296.1 288.859C1295.6 289.057 1295.03 289.156 1294.39 289.156C1293.8 289.156 1293.26 289.057 1292.76 288.859C1292.27 288.656 1291.84 288.365 1291.47 287.984C1291.11 287.599 1290.83 287.128 1290.64 286.57C1290.44 286.013 1290.34 285.375 1290.34 284.656C1290.34 283.703 1290.5 282.896 1290.83 282.234C1291.16 281.568 1291.64 281.06 1292.25 280.711C1292.87 280.362 1293.6 280.188 1294.45 280.188C1295.25 280.188 1295.95 280.362 1296.56 280.711C1297.17 281.06 1297.64 281.568 1297.99 282.234C1298.33 282.901 1298.5 283.708 1298.5 284.656ZM1292.23 284.656C1292.23 285.286 1292.31 285.826 1292.46 286.273C1292.61 286.721 1292.85 287.065 1293.18 287.305C1293.5 287.539 1293.91 287.656 1294.43 287.656C1294.94 287.656 1295.35 287.539 1295.68 287.305C1296 287.065 1296.23 286.721 1296.39 286.273C1296.54 285.826 1296.61 285.286 1296.61 284.656C1296.61 284.026 1296.54 283.492 1296.39 283.055C1296.23 282.612 1296 282.276 1295.68 282.047C1295.35 281.812 1294.93 281.695 1294.42 281.695C1293.66 281.695 1293.1 281.951 1292.75 282.461C1292.4 282.971 1292.23 283.703 1292.23 284.656ZM1305.92 280.188C1306.89 280.188 1307.65 280.44 1308.19 280.945C1308.74 281.445 1309.01 282.25 1309.01 283.359V289H1307.18V283.703C1307.18 283.031 1307.04 282.529 1306.76 282.195C1306.49 281.857 1306.06 281.688 1305.48 281.688C1304.64 281.688 1304.06 281.945 1303.73 282.461C1303.41 282.977 1303.25 283.724 1303.25 284.703V289H1301.41V280.352H1302.84L1303.1 281.523H1303.2C1303.39 281.221 1303.62 280.974 1303.9 280.781C1304.18 280.583 1304.49 280.435 1304.83 280.336C1305.18 280.237 1305.55 280.188 1305.92 280.188ZM1313.85 277.578L1313.97 277.75C1313.88 278.13 1313.75 278.536 1313.6 278.969C1313.46 279.401 1313.3 279.833 1313.13 280.266C1312.95 280.698 1312.78 281.107 1312.6 281.492H1311.28C1311.35 281.185 1311.42 280.862 1311.5 280.523C1311.58 280.18 1311.66 279.836 1311.73 279.492C1311.8 279.143 1311.87 278.807 1311.92 278.484C1311.98 278.156 1312.03 277.854 1312.07 277.578H1313.85ZM1319.5 287.672C1319.74 287.672 1319.97 287.651 1320.21 287.609C1320.44 287.562 1320.66 287.508 1320.85 287.445V288.836C1320.65 288.924 1320.38 289 1320.06 289.062C1319.74 289.125 1319.4 289.156 1319.05 289.156C1318.56 289.156 1318.12 289.076 1317.73 288.914C1317.34 288.747 1317.03 288.464 1316.8 288.062C1316.57 287.661 1316.46 287.107 1316.46 286.398V281.75H1315.28V280.93L1316.54 280.281L1317.15 278.43H1318.3V280.352H1320.78V281.75H1318.3V286.375C1318.3 286.812 1318.41 287.138 1318.63 287.352C1318.85 287.565 1319.14 287.672 1319.5 287.672ZM1332.68 281.75H1330.58V289H1328.75V281.75H1327.33V280.867L1328.75 280.328V279.727C1328.75 278.992 1328.86 278.409 1329.09 277.977C1329.32 277.544 1329.66 277.234 1330.09 277.047C1330.53 276.854 1331.05 276.758 1331.65 276.758C1332.05 276.758 1332.41 276.792 1332.74 276.859C1333.07 276.922 1333.34 276.995 1333.57 277.078L1333.09 278.469C1332.91 278.411 1332.71 278.359 1332.5 278.312C1332.28 278.26 1332.04 278.234 1331.79 278.234C1331.38 278.234 1331.07 278.365 1330.87 278.625C1330.68 278.885 1330.58 279.266 1330.58 279.766V280.352H1332.68V281.75ZM1342.62 284.656C1342.62 285.375 1342.52 286.013 1342.33 286.57C1342.15 287.128 1341.87 287.599 1341.51 287.984C1341.15 288.365 1340.72 288.656 1340.22 288.859C1339.71 289.057 1339.14 289.156 1338.51 289.156C1337.91 289.156 1337.37 289.057 1336.87 288.859C1336.38 288.656 1335.95 288.365 1335.58 287.984C1335.22 287.599 1334.95 287.128 1334.75 286.57C1334.55 286.013 1334.45 285.375 1334.45 284.656C1334.45 283.703 1334.62 282.896 1334.94 282.234C1335.28 281.568 1335.75 281.06 1336.37 280.711C1336.98 280.362 1337.71 280.188 1338.56 280.188C1339.36 280.188 1340.06 280.362 1340.67 280.711C1341.28 281.06 1341.76 281.568 1342.1 282.234C1342.44 282.901 1342.62 283.708 1342.62 284.656ZM1336.34 284.656C1336.34 285.286 1336.42 285.826 1336.57 286.273C1336.72 286.721 1336.96 287.065 1337.29 287.305C1337.61 287.539 1338.03 287.656 1338.54 287.656C1339.05 287.656 1339.46 287.539 1339.79 287.305C1340.11 287.065 1340.35 286.721 1340.5 286.273C1340.65 285.826 1340.72 285.286 1340.72 284.656C1340.72 284.026 1340.65 283.492 1340.5 283.055C1340.35 282.612 1340.11 282.276 1339.79 282.047C1339.46 281.812 1339.05 281.695 1338.53 281.695C1337.77 281.695 1337.21 281.951 1336.87 282.461C1336.52 282.971 1336.34 283.703 1336.34 284.656ZM1349.91 280.188C1350.05 280.188 1350.21 280.195 1350.38 280.211C1350.56 280.227 1350.7 280.247 1350.83 280.273L1350.66 281.992C1350.55 281.961 1350.41 281.938 1350.25 281.922C1350.1 281.906 1349.95 281.898 1349.83 281.898C1349.5 281.898 1349.19 281.953 1348.89 282.062C1348.6 282.167 1348.33 282.328 1348.1 282.547C1347.87 282.76 1347.69 283.029 1347.56 283.352C1347.43 283.674 1347.37 284.049 1347.37 284.477V289H1345.53V280.352H1346.96L1347.21 281.875H1347.3C1347.47 281.568 1347.68 281.286 1347.94 281.031C1348.19 280.776 1348.49 280.573 1348.81 280.422C1349.15 280.266 1349.51 280.188 1349.91 280.188ZM1355.7 292.844C1354.53 292.844 1353.63 292.633 1353 292.211C1352.38 291.789 1352.07 291.198 1352.07 290.438C1352.07 289.906 1352.23 289.456 1352.57 289.086C1352.9 288.721 1353.38 288.469 1354 288.328C1353.76 288.224 1353.56 288.062 1353.39 287.844C1353.22 287.62 1353.14 287.372 1353.14 287.102C1353.14 286.779 1353.23 286.503 1353.41 286.273C1353.59 286.044 1353.87 285.823 1354.23 285.609C1353.78 285.417 1353.41 285.104 1353.14 284.672C1352.87 284.234 1352.73 283.721 1352.73 283.133C1352.73 282.508 1352.86 281.977 1353.13 281.539C1353.4 281.096 1353.78 280.76 1354.29 280.531C1354.8 280.297 1355.42 280.18 1356.15 280.18C1356.3 280.18 1356.47 280.19 1356.65 280.211C1356.84 280.227 1357.01 280.247 1357.17 280.273C1357.33 280.294 1357.45 280.318 1357.54 280.344H1360.53V281.367L1359.06 281.641C1359.2 281.839 1359.31 282.065 1359.4 282.32C1359.48 282.57 1359.52 282.844 1359.52 283.141C1359.52 284.036 1359.21 284.742 1358.59 285.258C1357.98 285.768 1357.13 286.023 1356.04 286.023C1355.78 286.013 1355.53 285.992 1355.29 285.961C1355.1 286.076 1354.96 286.203 1354.86 286.344C1354.76 286.479 1354.71 286.633 1354.71 286.805C1354.71 286.945 1354.76 287.06 1354.86 287.148C1354.96 287.232 1355.1 287.294 1355.29 287.336C1355.49 287.378 1355.73 287.398 1356.01 287.398H1357.5C1358.45 287.398 1359.18 287.599 1359.68 288C1360.18 288.401 1360.43 288.99 1360.43 289.766C1360.43 290.75 1360.02 291.508 1359.21 292.039C1358.4 292.576 1357.23 292.844 1355.7 292.844ZM1355.77 291.555C1356.41 291.555 1356.95 291.492 1357.39 291.367C1357.82 291.242 1358.16 291.062 1358.38 290.828C1358.6 290.599 1358.72 290.326 1358.72 290.008C1358.72 289.727 1358.65 289.51 1358.5 289.359C1358.36 289.208 1358.15 289.104 1357.87 289.047C1357.59 288.99 1357.24 288.961 1356.82 288.961H1355.47C1355.13 288.961 1354.83 289.013 1354.57 289.117C1354.31 289.227 1354.1 289.383 1353.96 289.586C1353.82 289.789 1353.75 290.034 1353.75 290.32C1353.75 290.716 1353.92 291.021 1354.27 291.234C1354.62 291.448 1355.12 291.555 1355.77 291.555ZM1356.13 284.82C1356.67 284.82 1357.06 284.674 1357.32 284.383C1357.59 284.086 1357.72 283.669 1357.72 283.133C1357.72 282.549 1357.58 282.112 1357.31 281.82C1357.04 281.529 1356.65 281.383 1356.12 281.383C1355.61 281.383 1355.21 281.531 1354.94 281.828C1354.68 282.125 1354.54 282.565 1354.54 283.148C1354.54 283.674 1354.68 284.086 1354.94 284.383C1355.21 284.674 1355.61 284.82 1356.13 284.82ZM1366.35 280.188C1367.12 280.188 1367.78 280.346 1368.34 280.664C1368.89 280.982 1369.31 281.432 1369.61 282.016C1369.91 282.599 1370.05 283.297 1370.05 284.109V285.094H1364.28C1364.3 285.932 1364.53 286.578 1364.95 287.031C1365.39 287.484 1365.99 287.711 1366.77 287.711C1367.32 287.711 1367.81 287.659 1368.25 287.555C1368.69 287.445 1369.15 287.286 1369.62 287.078V288.57C1369.18 288.773 1368.74 288.922 1368.3 289.016C1367.85 289.109 1367.31 289.156 1366.69 289.156C1365.84 289.156 1365.09 288.992 1364.45 288.664C1363.8 288.331 1363.3 287.836 1362.94 287.18C1362.58 286.523 1362.4 285.708 1362.4 284.734C1362.4 283.766 1362.56 282.943 1362.89 282.266C1363.22 281.589 1363.68 281.073 1364.27 280.719C1364.87 280.365 1365.56 280.188 1366.35 280.188ZM1366.35 281.57C1365.77 281.57 1365.3 281.758 1364.95 282.133C1364.59 282.508 1364.38 283.057 1364.32 283.781H1368.26C1368.25 283.349 1368.18 282.966 1368.04 282.633C1367.9 282.299 1367.7 282.039 1367.41 281.852C1367.14 281.664 1366.78 281.57 1366.35 281.57ZM1376.14 287.672C1376.38 287.672 1376.62 287.651 1376.85 287.609C1377.09 287.562 1377.3 287.508 1377.5 287.445V288.836C1377.29 288.924 1377.03 289 1376.71 289.062C1376.38 289.125 1376.05 289.156 1375.7 289.156C1375.21 289.156 1374.77 289.076 1374.38 288.914C1373.99 288.747 1373.68 288.464 1373.45 288.062C1373.22 287.661 1373.1 287.107 1373.1 286.398V281.75H1371.93V280.93L1373.19 280.281L1373.79 278.43H1374.95V280.352H1377.43V281.75H1374.95V286.375C1374.95 286.812 1375.06 287.138 1375.28 287.352C1375.5 287.565 1375.78 287.672 1376.14 287.672ZM1388.23 287.672C1388.47 287.672 1388.7 287.651 1388.94 287.609C1389.17 287.562 1389.39 287.508 1389.58 287.445V288.836C1389.38 288.924 1389.11 289 1388.79 289.062C1388.47 289.125 1388.13 289.156 1387.78 289.156C1387.29 289.156 1386.85 289.076 1386.46 288.914C1386.07 288.747 1385.76 288.464 1385.53 288.062C1385.3 287.661 1385.19 287.107 1385.19 286.398V281.75H1384.01V280.93L1385.28 280.281L1385.88 278.43H1387.03V280.352H1389.51V281.75H1387.03V286.375C1387.03 286.812 1387.14 287.138 1387.36 287.352C1387.58 287.565 1387.87 287.672 1388.23 287.672ZM1393.97 276.844V279.898C1393.97 280.216 1393.96 280.526 1393.94 280.828C1393.93 281.13 1393.91 281.365 1393.89 281.531H1393.99C1394.17 281.229 1394.4 280.982 1394.66 280.789C1394.93 280.591 1395.22 280.443 1395.55 280.344C1395.88 280.245 1396.24 280.195 1396.61 280.195C1397.28 280.195 1397.84 280.307 1398.3 280.531C1398.77 280.75 1399.12 281.091 1399.36 281.555C1399.61 282.018 1399.74 282.62 1399.74 283.359V289H1397.9V283.703C1397.9 283.031 1397.77 282.529 1397.49 282.195C1397.21 281.857 1396.79 281.688 1396.21 281.688C1395.65 281.688 1395.21 281.805 1394.88 282.039C1394.56 282.268 1394.32 282.609 1394.18 283.062C1394.04 283.51 1393.97 284.057 1393.97 284.703V289H1392.14V276.844H1393.97ZM1404.95 280.352V289H1403.11V280.352H1404.95ZM1404.04 277.039C1404.32 277.039 1404.56 277.115 1404.77 277.266C1404.97 277.417 1405.08 277.677 1405.08 278.047C1405.08 278.411 1404.97 278.672 1404.77 278.828C1404.56 278.979 1404.32 279.055 1404.04 279.055C1403.75 279.055 1403.5 278.979 1403.3 278.828C1403.1 278.672 1403 278.411 1403 278.047C1403 277.677 1403.1 277.417 1403.3 277.266C1403.5 277.115 1403.75 277.039 1404.04 277.039ZM1414.19 286.531C1414.19 287.099 1414.05 287.578 1413.78 287.969C1413.5 288.359 1413.1 288.656 1412.57 288.859C1412.04 289.057 1411.39 289.156 1410.63 289.156C1410.02 289.156 1409.5 289.112 1409.07 289.023C1408.63 288.94 1408.22 288.81 1407.84 288.633V287.047C1408.25 287.24 1408.71 287.406 1409.22 287.547C1409.74 287.688 1410.22 287.758 1410.68 287.758C1411.29 287.758 1411.72 287.664 1411.99 287.477C1412.25 287.284 1412.39 287.029 1412.39 286.711C1412.39 286.523 1412.33 286.357 1412.22 286.211C1412.12 286.06 1411.92 285.906 1411.63 285.75C1411.34 285.589 1410.92 285.396 1410.36 285.172C1409.82 284.953 1409.35 284.734 1408.98 284.516C1408.6 284.297 1408.32 284.034 1408.13 283.727C1407.94 283.414 1407.84 283.016 1407.84 282.531C1407.84 281.766 1408.14 281.185 1408.75 280.789C1409.35 280.388 1410.16 280.188 1411.16 280.188C1411.69 280.188 1412.19 280.242 1412.66 280.352C1413.13 280.456 1413.6 280.609 1414.05 280.812L1413.47 282.195C1413.08 282.023 1412.69 281.883 1412.29 281.773C1411.9 281.659 1411.5 281.602 1411.1 281.602C1410.62 281.602 1410.26 281.674 1410.01 281.82C1409.77 281.966 1409.64 282.174 1409.64 282.445C1409.64 282.648 1409.7 282.82 1409.82 282.961C1409.94 283.102 1410.15 283.242 1410.44 283.383C1410.74 283.523 1411.15 283.698 1411.68 283.906C1412.19 284.104 1412.64 284.312 1413.01 284.531C1413.39 284.745 1413.68 285.008 1413.89 285.32C1414.09 285.633 1414.19 286.036 1414.19 286.531Z" fill="#F6D155"/>
<path d="M1288.01 320.5L1284.34 309.551L1276.69 318.202L1288.01 320.5ZM285.5 245.5L285.2 244.546L285.5 245.5ZM10.5001 47L9.63452 46.4993L9.58242 46.5894L9.54998 46.6882L10.5001 47ZM100.501 8.50005L92.4769 0.19613L89.2973 11.2967L100.501 8.50005ZM94.8038 5.99108C93.4461 5.69461 92.0994 5.43841 90.7641 5.22087L90.4425 7.19485C91.7424 7.40662 93.0541 7.65614 94.3772 7.94505L94.8038 5.99108ZM86.6862 4.67125C85.305 4.52404 83.9369 4.4179 82.5822 4.35094L82.4835 6.34851C83.8004 6.41359 85.1307 6.51679 86.4743 6.65999L86.6862 4.67125ZM78.4655 4.26647C77.0785 4.27825 75.7066 4.33074 74.3504 4.42176L74.4844 6.41727C75.8019 6.32885 77.1347 6.27784 78.4825 6.26639L78.4655 4.26647ZM70.2517 4.81796C68.8782 4.99153 67.5222 5.20416 66.1839 5.45338L66.5501 7.41957C67.8505 7.17739 69.1681 6.97081 70.5024 6.80218L70.2517 4.81796ZM62.1611 6.32364C60.8193 6.65462 59.4969 7.02183 58.1946 7.42255L58.7827 9.33411C60.0496 8.9443 61.3356 8.58721 62.6401 8.26544L62.1611 6.32364ZM54.2936 8.7426C52.9983 9.22111 51.7246 9.73206 50.473 10.2725L51.2658 12.1086C52.4852 11.5821 53.7257 11.0845 54.9867 10.6187L54.2936 8.7426ZM46.7411 12.0012C45.5053 12.613 44.2932 13.2527 43.1054 13.9171L44.0818 15.6626C45.241 15.0142 46.4234 14.3902 47.6285 13.7936L46.7411 12.0012ZM39.5713 16.0089C38.4002 16.7408 37.2554 17.4955 36.1373 18.2696L37.2759 19.9139C38.3688 19.1572 39.4874 18.4198 40.6313 17.7049L39.5713 16.0089ZM32.8145 20.6848C31.716 21.5219 30.6466 22.3761 29.6071 23.2437L30.8886 24.7792C31.906 23.9301 32.9522 23.0944 34.0267 22.2755L32.8145 20.6848ZM26.5146 25.9411C25.4886 26.8758 24.4961 27.8211 23.5378 28.7726L24.9469 30.1919C25.8853 29.2602 26.8571 28.3346 27.8615 27.4195L26.5146 25.9411ZM20.691 31.7227C19.7434 32.7479 18.8354 33.7753 17.9681 34.7997L19.4944 36.0921C20.3432 35.0896 21.2319 34.084 22.1597 33.0803L20.691 31.7227ZM15.3869 37.9905C14.5242 39.1081 13.7119 40.2157 12.9512 41.3064L14.5917 42.4505C15.3336 41.3866 16.1268 40.305 16.9701 39.2126L15.3869 37.9905ZM10.6915 44.736C10.322 45.3319 9.96959 45.9201 9.63452 46.4993L11.3657 47.5008C11.6903 46.9397 12.0322 46.3689 12.3913 45.7898L10.6915 44.736ZM9.54998 46.6882C9.34326 47.318 9.1396 47.9515 8.93904 48.5883L10.8467 49.1891C11.0449 48.5598 11.2461 47.934 11.4502 47.3119L9.54998 46.6882ZM7.77313 52.4507C7.39785 53.7489 7.03522 55.0602 6.68553 56.3839L8.6192 56.8947C8.96498 55.5858 9.32351 54.2893 9.69446 53.0061L7.77313 52.4507ZM5.70378 60.2744C5.38893 61.5824 5.08657 62.9015 4.797 64.2308L6.75117 64.6565C7.03768 63.3412 7.33681 62.0363 7.64824 60.7424L5.70378 60.2744ZM3.97848 68.19C3.72133 69.5035 3.47657 70.8262 3.24445 72.1573L5.21472 72.5009C5.44448 71.1833 5.68673 69.8742 5.94122 68.5743L3.97848 68.19ZM2.58631 76.1758C2.3842 77.4944 2.19445 78.8206 2.01732 80.1537L3.9999 80.4171C4.17528 79.0972 4.36313 77.7842 4.56322 76.4789L2.58631 76.1758ZM1.52427 84.1712C1.37361 85.5088 1.23564 86.8526 1.11061 88.2022L3.10208 88.3867C3.2259 87.0503 3.36252 85.7195 3.5117 84.3951L1.52427 84.1712ZM0.77817 92.2183C0.680142 93.5623 0.594978 94.9112 0.522918 96.2647L2.52009 96.371C2.59145 95.0307 2.67579 93.6947 2.77287 92.3638L0.77817 92.2183ZM0.347578 100.299C0.302373 101.642 0.270125 102.988 0.25106 104.337L2.25086 104.365C2.26974 103.029 2.30168 101.696 2.34644 100.367L0.347578 100.299ZM0.233646 108.394C0.2411 109.735 0.261689 111.079 0.295635 112.425L2.295 112.374C2.26138 111.042 2.241 109.711 2.23362 108.383L0.233646 108.394ZM0.437618 116.466C0.498342 117.813 0.572586 119.161 0.660569 120.511L2.65633 120.381C2.56922 119.045 2.49571 117.709 2.43559 116.376L0.437618 116.466ZM0.963547 124.535C1.07823 125.877 1.20669 127.22 1.34913 128.562L3.33797 128.352C3.19698 127.022 3.06982 125.693 2.95628 124.365L0.963547 124.535ZM1.81742 132.582C1.98696 133.916 2.17053 135.25 2.36835 136.584L4.3467 136.29C4.15094 134.971 3.96927 133.65 3.80148 132.33L1.81742 132.582ZM3.00476 140.581C3.23074 141.909 3.47111 143.236 3.72608 144.56L5.69004 144.182C5.43781 142.872 5.2 141.559 4.97642 140.245L3.00476 140.581ZM4.53361 148.522C4.81748 149.84 5.11612 151.157 5.42975 152.47L7.37505 152.005C7.06492 150.707 6.76957 149.405 6.4888 148.101L4.53361 148.522ZM6.41351 156.392C6.75628 157.696 7.11416 158.996 7.48736 160.293L9.40932 159.739C9.04043 158.458 8.68665 157.172 8.34776 155.884L6.41351 156.392ZM8.65314 164.17C9.05633 165.456 9.475 166.738 9.90934 168.014L11.8028 167.37C11.3736 166.109 10.96 164.843 10.5615 163.572L8.65314 164.17ZM11.2595 171.83C11.7252 173.096 12.2068 174.357 12.7044 175.613L14.5637 174.876C14.0722 173.636 13.5966 172.391 13.1366 171.14L11.2595 171.83ZM14.2427 179.354C14.7716 180.595 15.3167 181.83 15.8783 183.059L17.6972 182.227C17.1429 181.015 16.6048 179.796 16.0826 178.57L14.2427 179.354ZM17.6106 186.72C18.2031 187.93 18.8122 189.134 19.4381 190.329L21.2101 189.402C20.5927 188.222 19.9916 187.035 19.4069 185.84L17.6106 186.72ZM21.366 193.894C22.0238 195.071 22.6985 196.24 23.3902 197.401L25.1083 196.377C24.4261 195.233 23.7608 194.08 23.112 192.918L21.366 193.894ZM25.5105 200.848C26.2343 201.988 26.9753 203.119 27.7337 204.241L29.3907 203.121C28.6431 202.015 27.9126 200.9 27.1989 199.776L25.5105 200.848ZM30.0485 207.561C30.8348 208.654 31.6385 209.738 32.4596 210.812L34.0482 209.597C33.2391 208.539 32.4472 207.471 31.6722 206.393L30.0485 207.561ZM34.9754 214.002C35.8235 215.045 36.689 216.078 37.572 217.099L39.0853 215.792C38.2154 214.785 37.3628 213.768 36.5271 212.74L34.9754 214.002ZM40.2649 220.122C41.1801 221.119 42.1128 222.104 43.0633 223.077L44.4944 221.68C43.5582 220.721 42.6394 219.751 41.738 218.769L40.2649 220.122ZM45.9252 225.921C46.8936 226.855 47.8793 227.777 48.8826 228.686L50.226 227.205C49.2379 226.309 48.267 225.401 47.3132 224.481L45.9252 225.921ZM51.9449 231.379C52.9625 232.246 53.9971 233.101 55.0488 233.944L56.2995 232.383C55.2635 231.553 54.2445 230.711 53.2422 229.856L51.9449 231.379ZM58.2449 236.427C59.3274 237.242 60.427 238.044 61.544 238.833L62.6979 237.199C61.5975 236.422 60.5142 235.632 59.4478 234.829L58.2449 236.427ZM64.8634 241.105C65.9807 241.845 67.1144 242.573 68.2647 243.288L69.3202 241.589C68.1866 240.885 67.0693 240.167 65.9684 239.438L64.8634 241.105ZM71.7657 245.392C72.92 246.063 74.0902 246.721 75.2765 247.366L76.2318 245.609C75.0622 244.973 73.9086 244.324 72.7708 243.663L71.7657 245.392ZM78.8436 249.241C80.0484 249.853 81.269 250.452 82.5056 251.037L83.3611 249.229C82.1413 248.652 80.9374 248.061 79.7492 247.458L78.8436 249.241ZM86.1913 252.72C87.4067 253.255 88.6368 253.778 89.8818 254.287L90.6392 252.436C89.4104 251.933 88.1965 251.418 86.9973 250.89L86.1913 252.72ZM93.6615 255.776C94.932 256.258 96.2174 256.726 97.5178 257.181L98.1783 255.293C96.894 254.844 95.6247 254.381 94.3703 253.906L93.6615 255.776ZM101.289 258.449C102.56 258.859 103.844 259.257 105.143 259.641L105.711 257.724C104.428 257.344 103.159 256.951 101.903 256.546L101.289 258.449ZM109.08 260.757C110.371 261.107 111.675 261.444 112.992 261.768L113.47 259.826C112.168 259.505 110.879 259.172 109.603 258.827L109.08 260.757ZM116.88 262.681C118.188 262.973 119.51 263.253 120.844 263.52L121.237 261.56C119.917 261.295 118.61 261.018 117.315 260.729L116.88 262.681ZM124.885 264.286C126.186 264.519 127.499 264.74 128.823 264.949L129.135 262.973C127.824 262.766 126.524 262.548 125.237 262.318L124.885 264.286ZM132.779 265.534C134.109 265.718 135.451 265.89 136.805 266.05L137.04 264.064C135.699 263.905 134.37 263.735 133.053 263.553L132.779 265.534ZM140.901 266.497C142.212 266.627 143.534 266.747 144.866 266.856L145.029 264.862C143.708 264.754 142.398 264.636 141.099 264.506L140.901 266.497ZM148.847 267.146C150.185 267.232 151.533 267.308 152.891 267.372L152.986 265.374C151.639 265.31 150.302 265.236 148.976 265.15L148.847 267.146ZM156.999 267.533C158.329 267.574 159.669 267.604 161.019 267.625L161.049 265.625C159.709 265.605 158.38 265.574 157.06 265.534L156.999 267.533ZM164.989 267.655C166.322 267.655 167.664 267.645 169.016 267.625L168.986 265.625C167.644 265.645 166.312 265.655 164.989 265.655L164.989 267.655ZM173.1 267.535C174.463 267.495 175.836 267.444 177.219 267.384L177.132 265.386C175.759 265.446 174.395 265.496 173.041 265.535L173.1 267.535ZM181.15 267.187C182.468 267.112 183.796 267.028 185.131 266.934L184.992 264.939C183.665 265.032 182.346 265.115 181.036 265.19L181.15 267.187ZM189.164 266.627C190.517 266.515 191.879 266.394 193.249 266.263L193.059 264.272C191.697 264.402 190.344 264.522 189 264.634L189.164 266.627ZM197.31 265.851C198.607 265.712 199.912 265.564 201.225 265.407L200.989 263.421C199.683 263.577 198.386 263.724 197.096 263.863L197.31 265.851ZM205.186 264.913C206.514 264.74 207.85 264.558 209.193 264.368L208.913 262.388C207.577 262.577 206.248 262.758 204.928 262.93L205.186 264.913ZM213.246 263.772C214.592 263.566 215.946 263.352 217.307 263.13L216.984 261.156C215.63 261.377 214.283 261.59 212.945 261.794L213.246 263.772ZM221.182 262.477C222.48 262.251 223.785 262.018 225.097 261.777L224.736 259.81C223.431 260.05 222.132 260.282 220.84 260.506L221.182 262.477ZM229.054 261.031C230.38 260.775 231.712 260.511 233.052 260.239L232.654 258.279C231.32 258.55 229.994 258.813 228.674 259.068L229.054 261.031ZM237.091 259.399C238.387 259.123 239.689 258.84 240.998 258.55L240.564 256.597C239.261 256.886 237.965 257.168 236.675 257.443L237.091 259.399ZM244.849 257.678C246.139 257.38 247.435 257.076 248.737 256.764L248.272 254.819C246.975 255.129 245.684 255.433 244.4 255.729L244.849 257.678ZM252.662 255.807C253.977 255.481 255.297 255.148 256.624 254.808L256.127 252.87C254.806 253.21 253.49 253.541 252.181 253.866L252.662 255.807ZM260.623 253.765C261.895 253.428 263.172 253.084 264.455 252.734L263.928 250.805C262.65 251.153 261.377 251.496 260.111 251.832L260.623 253.765ZM268.262 251.68C269.536 251.322 270.816 250.958 272.102 250.587L271.548 248.665C270.267 249.035 268.991 249.398 267.721 249.754L268.262 251.68ZM275.975 249.455C277.271 249.072 278.573 248.681 279.88 248.284L279.299 246.371C277.996 246.766 276.699 247.155 275.407 247.538L275.975 249.455ZM283.819 247.074C284.478 246.869 285.139 246.662 285.8 246.454L285.2 244.546C284.54 244.754 283.882 244.96 283.225 245.164L283.819 247.074ZM285.8 246.454C286.425 246.257 287.051 246.06 287.677 245.863L287.077 243.955C286.451 244.153 285.825 244.349 285.2 244.546L285.8 246.454ZM291.447 244.679C292.707 244.283 293.97 243.887 295.237 243.49L294.639 241.582C293.372 241.979 292.108 242.375 290.848 242.771L291.447 244.679ZM299.047 242.298C300.321 241.899 301.598 241.501 302.878 241.101L302.283 239.192C301.002 239.592 299.725 239.99 298.451 240.389L299.047 242.298ZM306.73 239.901C308.017 239.501 309.307 239.1 310.601 238.698L310.008 236.788C308.714 237.19 307.423 237.591 306.135 237.992L306.73 239.901ZM314.385 237.526C315.644 237.136 316.906 236.746 318.17 236.356L317.581 234.445C316.315 234.835 315.053 235.225 313.794 235.615L314.385 237.526ZM321.974 235.183C323.245 234.792 324.519 234.401 325.795 234.009L325.209 232.097C323.931 232.489 322.657 232.881 321.386 233.272L321.974 235.183ZM329.635 232.833C330.918 232.441 332.204 232.049 333.493 231.656L332.91 229.743C331.62 230.136 330.334 230.528 329.05 230.921L329.635 232.833ZM337.368 230.477C338.626 230.095 339.886 229.713 341.15 229.331L340.571 227.417C339.307 227.799 338.045 228.181 336.787 228.564L337.368 230.477ZM344.948 228.184C346.216 227.802 347.488 227.42 348.762 227.037L348.187 225.122C346.912 225.504 345.64 225.887 344.37 226.27L344.948 228.184ZM352.592 225.89C353.871 225.507 355.153 225.125 356.438 224.742L355.867 222.825C354.582 223.208 353.299 223.591 352.019 223.973L352.592 225.89ZM360.3 223.595C361.59 223.212 362.883 222.83 364.178 222.447L363.612 220.529C362.316 220.912 361.023 221.294 359.732 221.677L360.3 223.595ZM367.979 221.328C369.246 220.956 370.516 220.584 371.788 220.212L371.226 218.292C369.953 218.664 368.683 219.037 367.415 219.409L367.979 221.328ZM375.611 219.096C376.888 218.725 378.167 218.353 379.449 217.982L378.892 216.061C377.61 216.432 376.33 216.804 375.052 217.176L375.611 219.096ZM383.301 216.869C384.587 216.498 385.876 216.128 387.167 215.758L386.616 213.835C385.324 214.206 384.034 214.576 382.747 214.947L383.301 216.869ZM391.047 214.648C392.323 214.285 393.601 213.921 394.881 213.558L394.335 211.634C393.054 211.997 391.775 212.361 390.499 212.725L391.047 214.648ZM398.7 212.478C399.975 212.118 401.252 211.759 402.532 211.4L401.992 209.474C400.711 209.833 399.433 210.193 398.157 210.553L398.7 212.478ZM406.377 210.325C407.661 209.967 408.946 209.609 410.234 209.252L409.7 207.325C408.411 207.682 407.124 208.04 405.839 208.398L406.377 210.325ZM414.105 208.182C415.397 207.826 416.692 207.47 417.988 207.115L417.46 205.186C416.162 205.542 414.867 205.898 413.574 206.254L414.105 208.182ZM421.862 206.058C423.137 205.711 424.413 205.365 425.691 205.019L425.169 203.088C423.89 203.434 422.613 203.781 421.337 204.128L421.862 206.058ZM429.532 203.984C430.814 203.639 432.099 203.296 433.385 202.952L432.869 201.02C431.582 201.364 430.297 201.708 429.013 202.052L429.532 203.984ZM437.249 201.925C438.539 201.583 439.83 201.242 441.124 200.901L440.615 198.967C439.32 199.308 438.027 199.649 436.736 199.992L437.249 201.925ZM445.011 199.882C446.308 199.543 447.607 199.205 448.908 198.867L448.406 196.931C447.104 197.269 445.804 197.608 444.505 197.947L445.011 199.882ZM452.769 197.87C454.05 197.54 455.334 197.21 456.619 196.882L456.124 194.944C454.837 195.273 453.553 195.603 452.27 195.933L452.769 197.87ZM460.479 195.899C461.768 195.572 463.058 195.246 464.35 194.921L463.862 192.982C462.569 193.307 461.277 193.633 459.988 193.96L460.479 195.899ZM468.232 193.948C469.527 193.625 470.824 193.302 472.123 192.981L471.642 191.04C470.342 191.361 469.044 191.684 467.747 192.008L468.232 193.948ZM476.024 192.019C477.326 191.699 478.63 191.38 479.935 191.063L479.462 189.119C478.155 189.438 476.85 189.757 475.547 190.077L476.024 192.019ZM483.796 190.127C485.084 189.816 486.374 189.506 487.665 189.197L487.2 187.252C485.907 187.561 484.616 187.871 483.326 188.183L483.796 190.127ZM491.544 188.273C492.839 187.966 494.135 187.66 495.432 187.355L494.975 185.408C493.676 185.713 492.378 186.02 491.083 186.327L491.544 188.273ZM499.329 186.444C500.63 186.141 501.932 185.839 503.235 185.538L502.786 183.59C501.481 183.891 500.178 184.193 498.876 184.496L499.329 186.444ZM507.15 184.64C508.454 184.342 509.759 184.046 511.065 183.751L510.624 181.8C509.316 182.096 508.01 182.392 506.705 182.69L507.15 184.64ZM514.945 182.878C516.239 182.588 517.535 182.299 518.832 182.012L518.4 180.059C517.101 180.347 515.804 180.636 514.508 180.926L514.945 182.878ZM522.729 181.153C524.029 180.868 525.33 180.584 526.633 180.302L526.209 178.347C524.905 178.63 523.602 178.914 522.3 179.2L522.729 181.153ZM530.545 179.458C531.85 179.178 533.157 178.899 534.465 178.621L534.05 176.665C532.74 176.943 531.432 177.222 530.125 177.502L530.545 179.458ZM538.393 177.793C539.7 177.519 541.008 177.246 542.318 176.974L541.912 175.016C540.601 175.288 539.291 175.561 537.983 175.835L538.393 177.793ZM546.216 176.171C547.516 175.904 548.818 175.639 550.121 175.376L549.724 173.415C548.419 173.679 547.116 173.945 545.814 174.212L546.216 176.171ZM554.033 174.588C555.338 174.327 556.645 174.068 557.953 173.809L557.565 171.847C556.256 172.106 554.948 172.366 553.641 172.627L554.033 174.588ZM561.879 173.039C563.189 172.784 564.501 172.53 565.813 172.277L565.435 170.313C564.121 170.566 562.808 170.82 561.497 171.076L561.879 173.039ZM569.753 171.524C571.065 171.275 572.378 171.028 573.692 170.782L573.324 168.816C572.009 169.062 570.694 169.31 569.38 169.56L569.753 171.524ZM577.607 170.054C578.913 169.813 580.221 169.574 581.529 169.336L581.171 167.368C579.861 167.606 578.552 167.846 577.244 168.088L577.607 170.054ZM585.457 168.626C586.767 168.391 588.078 168.158 589.391 167.926L589.043 165.957C587.729 166.189 586.416 166.422 585.104 166.658L585.457 168.626ZM593.331 167.236C594.645 167.007 595.961 166.78 597.277 166.555L596.94 164.583C595.622 164.809 594.305 165.036 592.988 165.265L593.331 167.236ZM601.23 165.883C602.547 165.662 603.865 165.441 605.185 165.223L604.858 163.25C603.537 163.469 602.217 163.689 600.898 163.911L601.23 165.883ZM609.116 164.577C610.427 164.364 611.739 164.152 613.053 163.942L612.737 161.967C611.422 162.177 610.107 162.389 608.794 162.603L609.116 164.577ZM616.995 163.316C618.31 163.109 619.626 162.904 620.943 162.701L620.638 160.725C619.319 160.928 618.001 161.133 616.684 161.341L616.995 163.316ZM624.896 162.097C626.215 161.897 627.534 161.699 628.854 161.503L628.561 159.525C627.238 159.721 625.917 159.919 624.596 160.119L624.896 162.097ZM632.818 160.92C634.14 160.727 635.463 160.537 636.787 160.348L636.505 158.368C635.179 158.557 633.854 158.748 632.53 158.941L632.818 160.92ZM640.735 159.79C642.051 159.606 643.368 159.424 644.686 159.244L644.415 157.263C643.095 157.443 641.776 157.625 640.458 157.81L640.735 159.79ZM648.642 158.709C649.961 158.533 651.281 158.359 652.602 158.186L652.343 156.203C651.02 156.376 649.698 156.55 648.377 156.727L648.642 158.709ZM656.567 157.674C657.89 157.505 659.213 157.338 660.537 157.174L660.29 155.189C658.964 155.354 657.639 155.521 656.314 155.69L656.567 157.674ZM664.511 156.685C665.836 156.524 667.162 156.365 668.489 156.208L668.254 154.222C666.925 154.379 665.597 154.539 664.27 154.7L664.511 156.685ZM672.456 155.746C673.776 155.594 675.097 155.444 676.419 155.296L676.197 153.308C674.873 153.457 673.55 153.607 672.227 153.759L672.456 155.746ZM680.387 154.858C681.71 154.715 683.034 154.573 684.359 154.433L684.149 152.444C682.823 152.584 681.496 152.726 680.171 152.87L680.387 154.858ZM688.335 154.02C689.66 153.885 690.987 153.751 692.314 153.62L692.117 151.63C690.788 151.761 689.459 151.895 688.131 152.031L688.335 154.02ZM696.297 153.233C697.625 153.106 698.954 152.981 700.283 152.858L700.1 150.867C698.768 150.99 697.437 151.115 696.107 151.242L696.297 153.233ZM704.265 152.498C705.59 152.38 706.915 152.264 708.24 152.151L708.07 150.158C706.742 150.272 705.415 150.388 704.088 150.506L704.265 152.498ZM712.218 151.818C713.545 151.709 714.872 151.602 716.199 151.497L716.042 149.504C714.713 149.608 713.383 149.715 712.054 149.824L712.218 151.818ZM720.184 151.191C721.512 151.091 722.841 150.993 724.171 150.898L724.028 148.903C722.696 148.998 721.365 149.096 720.034 149.196L720.184 151.191ZM728.161 150.618C729.492 150.528 730.823 150.439 732.154 150.353L732.025 148.357C730.691 148.444 729.358 148.532 728.025 148.623L728.161 150.618ZM736.149 150.102C737.476 150.021 738.804 149.942 740.132 149.865L740.017 147.869C738.686 147.945 737.356 148.024 736.027 148.106L736.149 150.102ZM744.118 149.643C745.447 149.572 746.776 149.502 748.106 149.435L748.005 147.438C746.673 147.505 745.341 147.574 744.01 147.646L744.118 149.643ZM752.097 149.242C753.427 149.18 754.758 149.12 756.09 149.063L756.004 147.065C754.67 147.122 753.337 147.182 752.003 147.244L752.097 149.242ZM760.085 148.899C761.417 148.847 762.75 148.797 764.082 148.75L764.012 146.751C762.676 146.799 761.341 146.848 760.007 146.901L760.085 148.899ZM768.082 148.616C769.412 148.574 770.743 148.534 772.073 148.497L772.018 146.498C770.684 146.535 769.351 146.575 768.019 146.617L768.082 148.616ZM776.064 148.394C777.395 148.362 778.725 148.332 780.056 148.305L780.016 146.306C778.682 146.333 777.349 146.362 776.016 146.394L776.064 148.394ZM784.051 148.233C785.382 148.211 786.714 148.192 788.046 148.175L788.022 146.176C786.687 146.192 785.352 146.211 784.018 146.233L784.051 148.233ZM792.044 148.134C793.376 148.123 794.709 148.114 796.042 148.108L796.034 146.108C794.698 146.114 793.362 146.123 792.027 146.134L792.044 148.134ZM800.042 148.099C801.375 148.098 802.707 148.1 804.04 148.105L804.047 146.105C802.712 146.1 801.377 146.098 800.042 146.099L800.042 148.099ZM808.031 148.128C809.362 148.138 810.693 148.151 812.024 148.167L812.048 146.167C810.714 146.151 809.38 146.138 808.047 146.128L808.031 148.128ZM816.018 148.222C817.349 148.243 818.681 148.267 820.012 148.294L820.053 146.294C818.718 146.268 817.384 146.243 816.049 146.222L816.018 148.222ZM824.008 148.382C825.34 148.415 826.672 148.45 828.004 148.488L828.061 146.489C826.726 146.451 825.391 146.415 824.057 146.383L824.008 148.382ZM832.002 148.61C833.334 148.654 834.667 148.7 835.999 148.75L836.073 146.751C834.738 146.702 833.402 146.655 832.067 146.611L832.002 148.61ZM839.987 148.906C841.317 148.961 842.646 149.019 843.976 149.079L844.067 147.081C842.735 147.021 841.402 146.963 840.07 146.908L839.987 148.906ZM847.965 149.27C849.295 149.337 850.624 149.406 851.954 149.479L852.063 147.482C850.73 147.409 849.398 147.34 848.065 147.273L847.965 149.27ZM855.944 149.705C857.273 149.783 858.603 149.864 859.933 149.949L860.06 147.953C858.727 147.868 857.394 147.787 856.061 147.708L855.944 149.705ZM863.923 150.211C865.253 150.301 866.583 150.394 867.912 150.49L868.057 148.496C866.724 148.399 865.391 148.306 864.058 148.215L863.923 150.211ZM871.896 150.788C873.222 150.89 874.548 150.995 875.875 151.104L876.037 149.11C874.708 149.002 873.379 148.896 872.049 148.794L871.896 150.788ZM879.853 151.438C881.179 151.552 882.506 151.669 883.832 151.79L884.013 149.798C882.684 149.677 881.354 149.56 880.025 149.445L879.853 151.438ZM887.809 152.161C889.135 152.288 890.461 152.418 891.787 152.551L891.986 150.561C890.658 150.427 889.329 150.297 888 150.17L887.809 152.161ZM895.763 152.959C897.089 153.099 898.414 153.241 899.739 153.387L899.958 151.399C898.629 151.253 897.301 151.11 895.972 150.97L895.763 152.959ZM903.713 153.834C905.034 153.985 906.355 154.14 907.675 154.298L907.913 152.312C906.589 152.154 905.265 151.999 903.941 151.847L903.713 153.834ZM911.637 154.782C912.958 154.947 914.278 155.115 915.598 155.286L915.855 153.302C914.532 153.131 913.208 152.963 911.885 152.798L911.637 154.782ZM919.558 155.809C920.878 155.986 922.197 156.167 923.516 156.351L923.793 154.37C922.47 154.186 921.148 154.004 919.825 153.826L919.558 155.809ZM927.474 156.914C928.792 157.104 930.111 157.299 931.43 157.496L931.726 155.518C930.404 155.32 929.082 155.126 927.76 154.934L927.474 156.914ZM935.384 158.098C936.699 158.302 938.013 158.509 939.328 158.72L939.644 156.745C938.326 156.534 937.008 156.326 935.69 156.122L935.384 158.098ZM943.265 159.36C944.578 159.577 945.89 159.798 947.201 160.021L947.538 158.05C946.222 157.825 944.907 157.605 943.592 157.387L943.265 159.36ZM951.135 160.703C952.447 160.933 953.757 161.167 955.068 161.405L955.424 159.437C954.111 159.199 952.796 158.964 951.482 158.733L951.135 160.703ZM958.998 162.127C960.308 162.372 961.618 162.62 962.927 162.871L963.304 160.907C961.991 160.655 960.678 160.406 959.365 160.161L958.998 162.127ZM966.853 163.635C968.161 163.894 969.468 164.155 970.775 164.42L971.172 162.46C969.862 162.195 968.552 161.932 967.241 161.673L966.853 163.635ZM974.679 165.224C975.981 165.495 977.282 165.77 978.582 166.048L979.001 164.092C977.697 163.813 976.392 163.538 975.088 163.266L974.679 165.224ZM982.482 166.894C983.782 167.179 985.081 167.468 986.38 167.761L986.82 165.81C985.517 165.516 984.215 165.226 982.911 164.94L982.482 166.894ZM990.275 168.649C991.573 168.949 992.871 169.253 994.168 169.56L994.629 167.613C993.328 167.305 992.027 167.001 990.726 166.701L990.275 168.649ZM998.058 170.492C999.354 170.806 1000.65 171.124 1001.95 171.446L1002.43 169.505C1001.13 169.182 999.829 168.863 998.53 168.548L998.058 170.492ZM1005.82 172.418C1007.1 172.745 1008.39 173.076 1009.68 173.411L1010.18 171.475C1008.89 171.14 1007.6 170.808 1006.31 170.48L1005.82 172.418ZM1013.53 174.425C1014.82 174.767 1016.1 175.112 1017.39 175.462L1017.91 173.532C1016.62 173.182 1015.34 172.835 1014.05 172.492L1013.53 174.425ZM1021.24 176.521C1022.52 176.877 1023.8 177.238 1025.09 177.602L1025.63 175.678C1024.35 175.313 1023.06 174.952 1021.77 174.594L1021.24 176.521ZM1028.93 178.706C1030.21 179.078 1031.49 179.453 1032.77 179.833L1033.34 177.915C1032.06 177.535 1030.77 177.158 1029.49 176.785L1028.93 178.706ZM1036.61 180.982C1037.88 181.366 1039.15 181.754 1040.41 182.146L1041 180.235C1039.73 179.842 1038.46 179.453 1037.19 179.067L1036.61 180.982ZM1044.22 183.332C1045.48 183.732 1046.75 184.135 1048.02 184.542L1048.63 182.638C1047.36 182.23 1046.09 181.825 1044.82 181.425L1044.22 183.332ZM1051.81 185.774C1053.08 186.189 1054.34 186.607 1055.61 187.03L1056.24 185.133C1054.97 184.709 1053.7 184.29 1052.44 183.874L1051.81 185.774ZM1059.39 188.309C1060.66 188.739 1061.92 189.173 1063.18 189.611L1063.84 187.721C1062.57 187.282 1061.31 186.847 1060.04 186.416L1059.39 188.309ZM1066.96 190.936C1068.21 191.38 1069.47 191.828 1070.72 192.28L1071.4 190.399C1070.14 189.946 1068.89 189.496 1067.63 189.051L1066.96 190.936ZM1074.46 193.641C1075.71 194.098 1076.95 194.56 1078.2 195.025L1078.9 193.151C1077.65 192.685 1076.4 192.222 1075.15 191.763L1074.46 193.641ZM1081.93 196.432C1083.17 196.905 1084.41 197.382 1085.65 197.863L1086.38 195.998C1085.13 195.516 1083.89 195.037 1082.64 194.563L1081.93 196.432ZM1089.38 199.318C1090.62 199.807 1091.86 200.3 1093.09 200.797L1093.84 198.94C1092.6 198.442 1091.35 197.948 1090.11 197.457L1089.38 199.318ZM1096.81 202.299C1098.04 202.804 1099.28 203.313 1100.52 203.826L1101.28 201.979C1100.04 201.464 1098.8 200.954 1097.56 200.447L1096.81 202.299ZM1104.19 205.365C1105.41 205.88 1106.63 206.4 1107.85 206.923L1108.64 205.085C1107.42 204.56 1106.19 204.039 1104.97 203.522L1104.19 205.365ZM1111.51 208.504C1112.72 209.036 1113.94 209.571 1115.15 210.11L1115.97 208.282C1114.75 207.741 1113.53 207.204 1112.3 206.671L1111.51 208.504ZM1118.8 211.74C1120.01 212.288 1121.23 212.839 1122.44 213.394L1123.27 211.576C1122.06 211.019 1120.84 210.466 1119.62 209.917L1118.8 211.74ZM1126.07 215.073C1127.28 215.637 1128.49 216.204 1129.7 216.776L1130.56 214.968C1129.35 214.395 1128.13 213.825 1126.92 213.26L1126.07 215.073ZM1133.33 218.504C1134.52 219.077 1135.71 219.654 1136.91 220.236L1137.78 218.438C1136.59 217.855 1135.39 217.276 1134.19 216.701L1133.33 218.504ZM1140.47 221.989C1141.66 222.578 1142.85 223.17 1144.03 223.767L1144.93 221.98C1143.74 221.382 1142.55 220.787 1141.36 220.197L1140.47 221.989ZM1147.59 225.569C1148.77 226.174 1149.96 226.783 1151.14 227.396L1152.06 225.62C1150.87 225.005 1149.69 224.394 1148.5 223.788L1147.59 225.569ZM1154.69 229.247C1155.87 229.868 1157.05 230.494 1158.23 231.123L1159.17 229.359C1157.99 228.727 1156.8 228.1 1155.62 227.477L1154.69 229.247ZM1161.76 233.024C1162.94 233.662 1164.11 234.304 1165.29 234.95L1166.25 233.197C1165.07 232.549 1163.89 231.905 1162.71 231.265L1161.76 233.024ZM1168.76 236.872C1169.91 237.516 1171.07 238.164 1172.22 238.816L1173.21 237.075C1172.05 236.421 1170.89 235.771 1169.73 235.125L1168.76 236.872ZM1175.68 240.785C1176.83 241.446 1177.98 242.11 1179.13 242.779L1180.14 241.05C1178.98 240.379 1177.83 239.713 1176.67 239.05L1175.68 240.785ZM1182.57 244.797C1183.72 245.474 1184.87 246.155 1186.01 246.841L1187.04 245.124C1185.89 244.437 1184.74 243.754 1183.59 243.075L1182.57 244.797ZM1189.45 248.909C1190.59 249.602 1191.73 250.3 1192.88 251.002L1193.92 249.298C1192.78 248.594 1191.63 247.894 1190.48 247.199L1189.45 248.909ZM1196.3 253.12C1197.42 253.819 1198.54 254.523 1199.66 255.23L1200.73 253.539C1199.6 252.83 1198.48 252.124 1197.35 251.423L1196.3 253.12ZM1203 257.358C1204.12 258.072 1205.23 258.79 1206.35 259.511L1207.43 257.833C1206.32 257.109 1205.2 256.39 1204.08 255.674L1203 257.358ZM1209.68 261.689C1210.79 262.419 1211.9 263.153 1213.01 263.892L1214.12 262.227C1213.01 261.486 1211.89 260.75 1210.78 260.018L1209.68 261.689ZM1216.33 266.119C1217.44 266.866 1218.54 267.616 1219.65 268.371L1220.78 266.72C1219.67 265.963 1218.56 265.21 1217.45 264.461L1216.33 266.119ZM1222.96 270.648C1224.06 271.412 1225.16 272.179 1226.26 272.951L1227.41 271.314C1226.31 270.54 1225.2 269.77 1224.1 269.004L1222.96 270.648ZM1229.52 275.248C1230.59 276.012 1231.67 276.779 1232.74 277.551L1233.91 275.927C1232.83 275.153 1231.75 274.383 1230.67 273.617L1229.52 275.248ZM1235.95 279.878C1237.02 280.658 1238.09 281.442 1239.16 282.23L1240.35 280.62C1239.28 279.83 1238.21 279.043 1237.13 278.261L1235.95 279.878ZM1242.37 284.606C1243.43 285.402 1244.5 286.202 1245.56 287.007L1246.77 285.411C1245.7 284.604 1244.63 283.802 1243.56 283.003L1242.37 284.606ZM1248.75 289.432C1249.81 290.245 1250.88 291.062 1251.93 291.883L1253.16 290.302C1252.1 289.478 1251.03 288.659 1249.97 287.844L1248.75 289.432ZM1255.11 294.358C1256.17 295.184 1257.22 296.014 1258.27 296.848L1259.51 295.282C1258.46 294.445 1257.4 293.613 1256.35 292.785L1255.11 294.358ZM1261.36 299.313C1262.38 300.139 1263.41 300.969 1264.44 301.803L1265.7 300.25C1264.67 299.414 1263.64 298.582 1262.61 297.754L1261.36 299.313ZM1267.51 304.316C1268.54 305.158 1269.56 306.003 1270.58 306.853L1271.86 305.316C1270.84 304.463 1269.81 303.615 1268.78 302.771L1267.51 304.316ZM1273.64 309.415C1274.66 310.273 1275.68 311.135 1276.7 312.001L1278 310.478C1276.98 309.61 1275.95 308.745 1274.93 307.885L1273.64 309.415ZM1279.75 314.612C1280.76 315.486 1281.78 316.364 1282.79 317.247L1284.1 315.739C1283.09 314.854 1282.07 313.973 1281.05 313.096L1279.75 314.612Z" fill="#F6D155"/>
</svg>
