<svg width="40" height="40" viewBox="0 0 40 40" fill="none" xmlns="http://www.w3.org/2000/svg">
<path d="M20.0007 36.6666C24.603 36.6666 28.7697 34.8011 31.7857 31.785C34.8018 28.7689 36.6673 24.6023 36.6673 19.9999C36.6673 15.3976 34.8018 11.2309 31.7857 8.2148C28.7697 5.19873 24.603 3.33325 20.0007 3.33325C15.3983 3.33325 11.2317 5.19873 8.21553 8.2148C5.19947 11.2309 3.33398 15.3976 3.33398 19.9999C3.33398 24.6023 5.19947 28.7689 8.21553 31.785C11.2317 34.8011 15.3983 36.6666 20.0007 36.6666Z" fill="#219653"/>
<path fill-rule="evenodd" clip-rule="evenodd" d="M29.5131 13.8214C30.164 14.4723 30.164 15.5276 29.5131 16.1784L19.5131 26.1784C18.8623 26.8293 17.807 26.8293 17.1561 26.1784L12.1561 21.1784C11.5053 20.5276 11.5053 19.4723 12.1561 18.8214C12.807 18.1705 13.8623 18.1705 14.5131 18.8214L18.3346 22.6429L27.1561 13.8214C27.807 13.1705 28.8623 13.1705 29.5131 13.8214Z" fill="white"/>
</svg>
