<svg width="14" height="14" viewBox="0 0 14 14" fill="none" xmlns="http://www.w3.org/2000/svg">
<path d="M2.33301 6.84002C2.33301 6.61853 2.4976 6.43548 2.71114 6.40651L2.77051 6.40252L10.4612 6.40287L7.68277 3.63581C7.51154 3.46533 7.51095 3.18832 7.68143 3.01709C7.83642 2.86144 8.07944 2.84679 8.25099 2.97351L8.30015 3.01576L11.8293 6.52976C11.8519 6.55224 11.8715 6.57656 11.8881 6.60224C11.8928 6.60997 11.8976 6.61788 11.9021 6.62595C11.9063 6.63286 11.9101 6.64005 11.9136 6.64731C11.9186 6.65787 11.9234 6.66878 11.9278 6.67992C11.9313 6.68851 11.9343 6.69686 11.937 6.70528C11.9403 6.71571 11.9434 6.72684 11.9461 6.73813C11.9481 6.74601 11.9497 6.7536 11.9511 6.76122C11.953 6.77256 11.9547 6.78428 11.9558 6.79615C11.9569 6.80521 11.9575 6.81417 11.9578 6.82315C11.9579 6.8286 11.958 6.8343 11.958 6.84002L11.9578 6.85697C11.9575 6.86555 11.9569 6.87413 11.956 6.88269L11.958 6.84002C11.958 6.86763 11.9555 6.89464 11.9506 6.92083C11.9494 6.92708 11.9481 6.93351 11.9466 6.9399C11.9435 6.95307 11.9399 6.96575 11.9357 6.97819C11.9337 6.98436 11.9313 6.99096 11.9288 6.99752C11.9237 7.01068 11.9182 7.02323 11.912 7.03545C11.9092 7.0412 11.906 7.04722 11.9027 7.05318C11.8972 7.06289 11.8916 7.07213 11.8856 7.08113C11.8814 7.0875 11.8768 7.09413 11.8719 7.10065L11.8681 7.1057C11.8563 7.1211 11.8436 7.13569 11.8299 7.14938L11.8293 7.14979L8.30018 10.6644C8.12897 10.8349 7.85196 10.8343 7.68146 10.6631C7.52646 10.5074 7.51284 10.2644 7.64028 10.0934L7.68274 10.0444L10.46 7.27787L2.77051 7.27752C2.52888 7.27752 2.33301 7.08164 2.33301 6.84002Z" fill="#0077B5"/>
</svg>
