<svg width="12" height="12" viewBox="0 0 12 12" fill="none" xmlns="http://www.w3.org/2000/svg">
<path d="M11.2498 5.18577V3.45035C11.2498 3.14093 11.1269 2.84418 10.9081 2.62539C10.6893 2.4066 10.3926 2.28368 10.0832 2.28368H6.58317V1.51835C6.76109 1.35852 6.87484 1.12868 6.87484 0.87085C6.87484 0.638785 6.78265 0.416226 6.61856 0.252131C6.45446 0.0880369 6.2319 -0.00415039 5.99984 -0.00415039C5.76777 -0.00415039 5.54521 0.0880369 5.38112 0.252131C5.21702 0.416226 5.12484 0.638785 5.12484 0.87085C5.12484 1.12868 5.23859 1.35852 5.4165 1.51835V2.28368H1.9165C1.60708 2.28368 1.31034 2.4066 1.09155 2.62539C0.872754 2.84418 0.749837 3.14093 0.749837 3.45035V5.19918L0.707837 5.2021C0.560772 5.21258 0.423145 5.27841 0.322691 5.38633C0.222238 5.49426 0.166426 5.63624 0.166504 5.78368V6.95035C0.166504 7.10506 0.227962 7.25343 0.337358 7.36283C0.446755 7.47222 0.595128 7.53368 0.749837 7.53368V10.4503C0.749837 10.7598 0.872754 11.0565 1.09155 11.2753C1.31034 11.4941 1.60708 11.617 1.9165 11.617H10.0832C10.3926 11.617 10.6893 11.4941 10.9081 11.2753C11.1269 11.0565 11.2498 10.7598 11.2498 10.4503V7.53368C11.4045 7.53368 11.5529 7.47222 11.6623 7.36283C11.7717 7.25343 11.8332 7.10506 11.8332 6.95035V5.81985C11.8399 5.72932 11.8256 5.63845 11.7912 5.55443C11.6733 5.26977 11.4208 5.20152 11.2498 5.18577ZM3.08317 5.78368C3.08317 5.13968 3.47517 4.61702 3.95817 4.61702C4.44117 4.61702 4.83317 5.13968 4.83317 5.78368C4.83317 6.42768 4.44117 6.95035 3.95817 6.95035C3.47517 6.95035 3.08317 6.42768 3.08317 5.78368ZM8.332 9.28368C7.74809 9.28193 3.6665 9.28368 3.6665 9.28368V8.11702C3.6665 8.11702 7.75042 8.11585 8.33434 8.11702L8.332 9.28368ZM8.0415 6.95035C7.5585 6.95035 7.1665 6.42768 7.1665 5.78368C7.1665 5.13968 7.5585 4.61702 8.0415 4.61702C8.5245 4.61702 8.9165 5.13968 8.9165 5.78368C8.9165 6.42768 8.5245 6.95035 8.0415 6.95035Z" fill="#C1C1C3"/>
</svg>
