<svg width="20" height="20" viewBox="0 0 20 20" fill="none" xmlns="http://www.w3.org/2000/svg">
<path d="M11.6668 1.66699H5.00016C4.55814 1.66699 4.13421 1.84259 3.82165 2.15515C3.50909 2.46771 3.3335 2.89163 3.3335 3.33366V16.667C3.3335 17.109 3.50909 17.5329 3.82165 17.8455C4.13421 18.1581 4.55814 18.3337 5.00016 18.3337H15.0002C15.4422 18.3337 15.8661 18.1581 16.1787 17.8455C16.4912 17.5329 16.6668 17.109 16.6668 16.667V6.66699L11.6668 1.66699ZM8.33183 12.307H7.41266V15.0353H6.6485V12.307H5.74433V11.667H8.33183V12.307ZM10.6027 15.0353L10.2985 14.4262C10.1735 14.1912 10.0935 14.0162 9.99933 13.8212H9.9885C9.91933 14.0153 9.83433 14.1903 9.7285 14.4262L9.44933 15.0353H8.5785L9.55433 13.3312L8.6135 11.667H9.4885L9.7835 12.282C9.88433 12.4862 9.9585 12.6512 10.0385 12.8412H10.0493C10.1293 12.6262 10.1943 12.4762 10.2793 12.282L10.5635 11.667H11.4327L10.4835 13.3112L11.4818 15.0353H10.6027ZM14.256 12.307H13.336V15.0353H12.5718V12.307H11.6677V11.667H14.2552L14.256 12.307ZM11.6668 7.50033H10.8335V3.33366L15.0002 7.50033H11.6668Z" fill="#2F88FF"/>
</svg>
