<svg width="20" height="21" viewBox="0 0 20 21" fill="none" xmlns="http://www.w3.org/2000/svg">
<rect y="0.5" width="20" height="20" rx="10" fill="#131D26" fill-opacity="0.12"/>
<rect x="0.5" y="1" width="19" height="19" rx="9.5" stroke="#E7E7E7" stroke-opacity="0.08"/>
<path d="M7.99977 13.7801L5.68644 11.4667C5.56179 11.3421 5.39272 11.272 5.21644 11.272C5.04015 11.272 4.87109 11.3421 4.74644 11.4667C4.62179 11.5914 4.55176 11.7604 4.55176 11.9367C4.55176 12.024 4.56895 12.1104 4.60235 12.1911C4.63576 12.2717 4.68472 12.345 4.74644 12.4067L7.53311 15.1934C7.79311 15.4534 8.2131 15.4534 8.4731 15.1934L15.5264 8.14005C15.6511 8.0154 15.7211 7.84634 15.7211 7.67005C15.7211 7.49377 15.6511 7.3247 15.5264 7.20005C15.4018 7.0754 15.2327 7.00537 15.0564 7.00537C14.8802 7.00537 14.7111 7.0754 14.5864 7.20005L7.99977 13.7801Z" fill="#131D26"/>
</svg>
