<svg width="20" height="20" viewBox="0 0 20 20" fill="none" xmlns="http://www.w3.org/2000/svg">
<path d="M10.0039 15.8437H9.9872C9.93553 15.8437 4.76636 15.8337 3.4622 15.4795C3.10981 15.3846 2.78855 15.1987 2.53056 14.9406C2.27258 14.6825 2.08693 14.3611 1.9922 14.0087C1.75768 12.6856 1.64444 11.3439 1.65386 10.0003C1.64781 8.6545 1.76412 7.31092 2.00136 5.98616C2.09877 5.63314 2.28528 5.31108 2.54299 5.05089C2.8007 4.7907 3.12096 4.60111 3.47303 4.50033C4.74136 4.16699 9.76803 4.16699 9.98136 4.16699H9.99886C10.0514 4.16699 15.2339 4.17699 16.5247 4.53116C17.2405 4.72533 17.7997 5.28449 17.993 6.00033C18.2347 7.32866 18.3489 8.67616 18.3322 10.0262C18.338 11.3704 18.2214 12.7123 17.9839 14.0353C17.8879 14.3874 17.7015 14.7082 17.4432 14.9659C17.1849 15.2237 16.8636 15.4093 16.5114 15.5045C15.2447 15.8403 10.2172 15.8437 10.0039 15.8437ZM8.3372 7.50449L8.33303 12.5045L12.6764 10.0045L8.3372 7.50449Z" fill="#E7E7E7"/>
</svg>
