<svg width="188" height="33" viewBox="0 0 188 33" fill="none" xmlns="http://www.w3.org/2000/svg">
<path d="M188 32.7948H0V0.000244141H188V32.7948Z" fill="#131D26"/>
<path d="M188 32.7948H0V0.000244141H188V32.7948ZM0.834593 31.9603H187.165V0.834833H0.834593V31.9603Z" fill="#F8D153"/>
<path d="M20.075 7.3359C18.5141 5.6826 16.4579 4.85522 13.9007 4.85522C12.5767 4.85522 11.3464 5.06893 10.2129 5.49633C9.57905 5.73458 9.28593 6.46521 9.57327 7.07888C9.83751 7.64491 10.5075 7.91058 11.0807 7.65934C11.9572 7.27381 12.9073 7.08177 13.9311 7.08177C15.5844 7.08177 16.9561 7.68244 18.0463 8.88524C18.0564 8.89679 18.0679 8.90835 18.078 8.9199C18.1762 9.02675 18.3394 9.04263 18.4549 8.95455L20.0403 7.74886C20.1717 7.64923 20.1905 7.45719 20.0779 7.33734C20.0764 7.33734 20.075 7.3359 20.075 7.3359Z" fill="white"/>
<path d="M21.9723 10.6683C21.8279 10.1875 21.6474 9.72834 21.4323 9.29372C21.1247 8.67427 20.3291 8.48656 19.779 8.9053L19.4642 9.145C19.0512 9.45833 18.8996 10.0186 19.1162 10.4893C19.2505 10.7824 19.3646 11.0885 19.457 11.4091C19.6534 12.0863 20.3724 12.4646 21.0395 12.2365L21.1897 12.1845C21.8149 11.9708 22.1615 11.3022 21.9723 10.6683Z" fill="white"/>
<path d="M33.5483 22.7263C32.4957 23.9103 31.3969 24.7464 30.2504 25.2344C29.2165 25.6662 28.2303 25.7976 27.2903 25.6286C25.354 25.272 24.3866 24.1731 24.3866 22.3307C24.3866 21.8989 24.4328 21.3907 24.5281 20.8088C24.5844 20.4521 24.6869 19.9164 24.8385 19.2017L26.6146 10.7734H29.0953L26.9813 21.034C26.925 21.3907 26.8962 21.6824 26.8962 21.9076C26.8962 23.0729 27.5632 23.6548 28.8974 23.6548C30.4944 23.6548 31.8474 22.8938 32.9563 21.3719C33.4068 20.751 33.7635 20.029 34.0277 19.2017C34.1216 18.9013 34.2154 18.5447 34.3093 18.1303L35.8601 10.7734H38.3408L35.2969 25.3745H32.9852L33.5483 22.7263Z" fill="white"/>
<path d="M39.1291 25.3762L42.1729 10.7751H44.6825L41.6098 25.3762H39.1291ZM42.7664 8.01142L43.3584 5.19287H45.839L45.247 8.01142H42.7664Z" fill="white"/>
<path d="M56.465 15.4258C56.4463 13.4346 55.4788 12.4383 53.5613 12.4383C52.0394 12.4383 50.8178 13.2282 49.8966 14.8064C49.0504 16.2532 48.6288 18.0292 48.6288 20.1345C48.6288 22.5588 49.5775 23.7703 51.4762 23.7703C53.3548 23.7703 54.7078 22.53 55.5351 20.0493L58.0158 20.3034C56.7755 23.893 54.5865 25.6878 51.4474 25.6878C49.8302 25.6878 48.5436 25.181 47.5848 24.166C46.6073 23.1133 46.1193 21.6853 46.1193 19.8818C46.1193 17.2134 46.8051 14.9869 48.1769 13.2007C49.6049 11.3597 51.4748 10.4385 53.7865 10.4385C55.2897 10.4385 56.5112 10.8514 57.4512 11.6788C58.4288 12.5625 58.9067 13.7653 58.8894 15.2872L56.465 15.4258Z" fill="white"/>
<path d="M59.5666 25.3762L63.7944 5.19287H66.2751L63.6529 17.7089L70.926 10.7751H74.2239L67.9659 16.2158L71.7433 25.3776H69.0085L66.1047 17.8793L63.0883 20.5014L62.0458 25.3776H59.5666V25.3762Z" fill="white"/>
<path d="M72.1375 25.3762L83.5821 5.19287H86.7674L90.0942 25.3762H87.472L86.4858 19.5687H78.3391L75.0975 25.3762H72.1375ZM79.4957 17.4836H86.1768L85.387 12.4096C85.3307 12.0342 85.2743 11.705 85.218 11.4234C85.1617 11.0292 85.1141 10.6437 85.0765 10.2683C84.9639 9.30952 84.8787 8.35075 84.8224 7.39342C84.3156 8.63376 83.6384 10.0055 82.7922 11.5086L79.4957 17.4836Z" fill="#F8D153"/>
<path d="M97.3672 12.8038C98.8891 11.2256 100.411 10.4358 101.934 10.4358C103.287 10.4358 104.405 10.9339 105.289 11.9303C106.229 13.0204 106.698 14.486 106.698 16.327C106.698 18.9203 105.956 21.1469 104.471 23.0081C103.025 24.7943 101.361 25.6866 99.4826 25.6866C97.6964 25.6866 96.3435 24.8029 95.4237 23.037L93.7603 30.9858H91.2796L95.5074 10.7751H97.7903L97.3672 12.8038ZM96.2106 20.1607C96.2106 20.4235 96.2294 20.6776 96.267 20.9216C96.6048 22.7641 97.6488 23.6839 99.3959 23.6839C100.786 23.6839 101.962 22.8478 102.919 21.1743C103.765 19.6899 104.187 18.0829 104.187 16.3545C104.187 13.7424 103.182 12.4356 101.171 12.4356C100.381 12.4356 99.6486 12.6898 98.9714 13.1966C98.3881 13.6298 97.8726 14.2391 97.4207 15.0289C96.612 16.457 96.2092 17.9139 96.2092 19.3983V20.1607H96.2106Z" fill="white"/>
<path d="M113.04 12.8038C114.562 11.2256 116.083 10.4358 117.607 10.4358C118.96 10.4358 120.077 10.9339 120.961 11.9303C121.901 13.0204 122.37 14.486 122.37 16.327C122.37 18.9203 121.628 21.1469 120.144 23.0081C118.697 24.7943 117.034 25.6866 115.155 25.6866C113.369 25.6866 112.016 24.8029 111.096 23.037L109.433 30.9858H106.952L111.18 10.7751H113.463L113.04 12.8038ZM111.883 20.1607C111.883 20.4235 111.902 20.6776 111.939 20.9216C112.277 22.7641 113.321 23.6839 115.068 23.6839C116.459 23.6839 117.634 22.8478 118.592 21.1743C119.438 19.6899 119.859 18.0829 119.859 16.3545C119.859 13.7424 118.854 12.4356 116.843 12.4356C116.053 12.4356 115.321 12.6898 114.644 13.1966C114.061 13.6298 113.545 14.2391 113.093 15.0289C112.284 16.457 111.882 17.9139 111.882 19.3983V20.1607H111.883Z" fill="white"/>
<path d="M123.638 25.3762L127.866 5.19287H130.347L126.119 25.3762H123.638Z" fill="white"/>
<path d="M136.859 27.0391C136.502 27.6774 136.192 28.1856 135.929 28.561C135.572 29.0679 135.224 29.4909 134.886 29.8288C134.078 30.5999 133.12 30.984 132.011 30.984C131.353 30.984 130.8 30.8988 130.348 30.7298L130.49 28.3907C131.09 28.5408 131.561 28.6159 131.899 28.6159C132.518 28.6159 133.045 28.4181 133.477 28.0239C133.777 27.7611 134.134 27.2716 134.548 26.5583L135.338 25.149L132.914 10.4917H135.366L136.465 17.8485C136.709 19.3141 136.896 20.7797 137.028 22.2453L143.567 10.4902H146.161L136.859 27.0391Z" fill="white"/>
<path d="M20.3118 22.8981C19.8829 22.8807 19.5234 23.2157 19.5075 23.6431L19.4396 25.4163C18.7235 24.8864 18.1257 24.3377 17.6506 23.7702C20.8258 21.4022 22.4141 18.1143 22.4141 13.9038C22.4141 13.6121 22.4055 13.3248 22.3867 13.0447C22.3723 12.818 22.1441 12.6678 21.929 12.7415L19.9999 13.4028C19.8584 13.4504 19.766 13.5833 19.766 13.7334C19.766 13.7349 19.766 13.7349 19.766 13.7363C19.766 17.3433 18.5155 20.1069 16.0161 22.023L15.4255 21.4036C15.18 21.1596 14.936 20.943 14.692 20.7553C14.0725 20.2297 13.3852 19.8153 12.6344 19.5149L11.6482 21.2072C12.2128 21.4888 12.7297 21.7992 13.199 22.1371C13.5368 22.3999 13.8834 22.7017 14.2415 23.0396C13.4704 23.3399 12.5593 23.4901 11.5067 23.4901C10.0584 23.4901 8.79064 22.9183 7.70047 21.7704C6.4789 20.5112 5.86812 18.8493 5.86812 16.7816C5.86812 14.2879 6.51933 12.1624 7.82032 10.4037C7.97049 10.2001 7.99937 9.93156 7.89251 9.70197L7.3236 8.48474C7.11712 8.04434 6.528 7.95915 6.206 8.32302C4.21338 10.5784 3.21851 13.332 3.21851 16.5823C3.21851 19.3821 4.01556 21.6101 5.61399 23.2634C7.21098 24.8979 9.38121 25.7152 12.1261 25.7152C13.3289 25.7152 14.5967 25.4047 15.9323 24.7853C15.9323 24.8055 15.9497 24.8228 15.9886 24.8416L16.4117 25.3196C16.6384 25.565 16.8637 25.7903 17.0889 25.9967C17.3936 26.2928 17.7185 26.5787 18.065 26.8559L16.2312 27.1274C15.8082 27.1894 15.515 27.5836 15.5786 28.0082C15.6349 28.3937 15.967 28.6695 16.3439 28.6695C16.3814 28.6695 16.4204 28.6666 16.4579 28.6608L20.2569 28.0977C20.6251 28.0428 20.9038 27.7338 20.9182 27.3613L21.0583 23.7023C21.0727 23.2735 20.7392 22.914 20.3118 22.8981Z" fill="#F8D153"/>
<path d="M188 0.834961H149.484V32.7964H188V0.834961Z" fill="#F8D153"/>
<path d="M160.412 27.1173C158.919 27.1173 157.748 26.7606 156.898 26.0459C156.047 25.3311 155.621 24.3651 155.621 23.145C155.621 21.1062 156.504 19.5886 158.269 18.5894C160.035 17.5917 162.178 17.0184 164.701 16.8711L167.192 16.682C167.381 16.6618 167.532 16.6026 167.649 16.5087C167.765 16.4134 167.833 16.2936 167.854 16.1463L167.98 15.2958C168.022 14.9594 168.043 14.7283 168.043 14.6027C168.043 13.6786 167.745 12.9581 167.145 12.4426C166.546 11.9286 165.722 11.6701 164.67 11.6701C162.757 11.6701 161.108 12.5321 159.721 14.2547C159.657 14.3385 159.595 14.3861 159.531 14.3962C159.468 14.4078 159.384 14.3919 159.279 14.3486L157.672 13.7811C157.546 13.7392 157.483 13.6555 157.483 13.5284C157.483 13.423 157.524 13.2974 157.608 13.1501C158.385 12.0787 159.39 11.2485 160.619 10.6593C161.849 10.0717 163.261 9.7771 164.86 9.7771C166.729 9.7771 168.155 10.1771 169.131 10.9756C170.108 11.7741 170.596 12.8772 170.596 14.2851C170.596 14.4959 170.575 14.8106 170.533 15.2308L168.988 26.4228C168.966 26.5917 168.93 26.6957 168.878 26.7375C168.825 26.7794 168.715 26.8011 168.547 26.8011H166.971C166.698 26.8011 166.561 26.6336 166.561 26.2971L166.718 24.7839C166.718 24.6583 166.686 24.5947 166.623 24.5947C166.559 24.5947 166.444 24.6785 166.276 24.8474C164.574 26.3607 162.619 27.1173 160.412 27.1173ZM167.475 18.7006L167.506 18.5114C167.506 18.3439 167.391 18.2703 167.16 18.2905L164.985 18.4797C163.219 18.6053 161.664 18.9836 160.32 19.6146C158.974 20.2456 158.303 21.2968 158.303 22.7667C158.303 23.5031 158.576 24.0865 159.123 24.5168C159.669 24.947 160.425 25.1636 161.393 25.1636C162.086 25.1636 162.764 25.0423 163.426 24.8012C164.087 24.5601 164.692 24.2395 165.238 23.8396C165.784 23.441 166.226 23.0194 166.562 22.579C166.898 22.1372 167.088 21.7285 167.129 21.3502L167.475 18.7006Z" fill="#131D27"/>
<path d="M176.238 26.3608C176.216 26.5716 176.174 26.6972 176.112 26.7391C176.049 26.7809 175.901 26.8026 175.67 26.8026H174.062C173.704 26.8026 173.546 26.625 173.588 26.2669L175.826 10.4414C175.846 10.2941 175.878 10.2003 175.921 10.1584C175.963 10.1165 176.047 10.0948 176.174 10.0948H178.16C178.412 10.0948 178.516 10.2522 178.474 10.5685L176.238 26.3608ZM179.139 6.563C179.097 6.77381 179.039 6.91532 178.965 6.98896C178.892 7.0626 178.75 7.09869 178.539 7.09869H176.616C176.301 7.09869 176.186 6.89943 176.269 6.49946L176.648 3.88306C176.69 3.56828 176.847 3.41089 177.12 3.41089H179.169C179.295 3.41089 179.39 3.46287 179.452 3.56828C179.515 3.67369 179.526 3.81086 179.484 3.97835L179.139 6.563Z" fill="#131D27"/>
<path d="M12.3528 17.9675C12.129 17.9675 11.9066 17.8909 11.7406 17.7581L9.55591 16.0066C9.37398 15.8608 9.26568 15.6601 9.2498 15.442C9.23536 15.2298 9.31045 15.0233 9.4635 14.8601C9.60068 14.7143 9.79272 14.6147 10.0021 14.5814C10.0541 14.5728 10.1075 14.5685 10.1609 14.5685C10.3847 14.5685 10.6013 14.6435 10.7703 14.7778L12.2445 15.9604L15.7417 12.16C15.8803 12.0098 16.0738 11.9073 16.2875 11.8741C16.3395 11.8654 16.3929 11.8611 16.4464 11.8611C16.6673 11.8611 16.881 11.9333 17.0485 12.0647C17.2319 12.2091 17.343 12.4083 17.3618 12.6264C17.3791 12.8386 17.3055 13.0451 17.1553 13.2097L13.0546 17.6671C12.9159 17.8173 12.7225 17.9198 12.5088 17.953C12.4799 17.9574 12.451 17.9603 12.4221 17.9631C12.399 17.966 12.3759 17.9675 12.3528 17.9675Z" fill="white"/>
</svg>
