<svg width="28" height="28" viewBox="0 0 28 28" fill="none" xmlns="http://www.w3.org/2000/svg">
<rect x="0.5" y="0.5" width="27" height="27" rx="3.5" fill="#ABABAB" fill-opacity="0.12"/>
<rect x="0.5" y="0.5" width="27" height="27" rx="3.5" stroke="#E5E6EC"/>
<path d="M7.72407 10.642C7.94596 10.4202 8.29318 10.4 8.53786 10.5815L8.60796 10.642L13.9993 16.0332L19.3907 10.642C19.6126 10.4202 19.9598 10.4 20.2045 10.5815L20.2746 10.642C20.4965 10.8639 20.5167 11.2112 20.3351 11.4558L20.2746 11.5259L14.4413 17.3593C14.2194 17.5811 13.8722 17.6013 13.6275 17.4198L13.5574 17.3593L7.72407 11.5259C7.48 11.2818 7.48 10.8861 7.72407 10.642Z" fill="#414343"/>
</svg>
