<svg width="14" height="14" viewBox="0 0 14 14" fill="none" xmlns="http://www.w3.org/2000/svg">
<path d="M11.0478 5.07365C11.1641 5.07365 11.2696 5.1244 11.353 5.21015C11.4307 5.30173 11.4699 5.41548 11.4585 5.53565C11.4585 5.57531 11.1476 9.50694 10.9701 11.1618C10.8589 12.1774 10.2042 12.794 9.22214 12.8109C8.46704 12.8278 7.72895 12.8337 7.00221 12.8337C6.23065 12.8337 5.47612 12.8278 4.7437 12.8109C3.79457 12.7882 3.13932 12.1605 3.03379 11.1618C2.85112 9.50111 2.5459 5.57531 2.54022 5.53565C2.53455 5.41548 2.57313 5.30173 2.65142 5.21015C2.72857 5.1244 2.83977 5.07365 2.95664 5.07365H11.0478ZM8.20442 1.16699C8.72012 1.16699 9.18079 1.52691 9.31411 2.04023L9.40942 2.46606C9.48657 2.81314 9.78725 3.05872 10.1333 3.05872H11.8342C12.0611 3.05872 12.25 3.24714 12.25 3.48689V3.70855C12.25 3.94246 12.0611 4.13671 11.8342 4.13671H2.16641C1.93892 4.13671 1.75 3.94246 1.75 3.70855V3.48689C1.75 3.24714 1.93892 3.05872 2.16641 3.05872H3.86725C4.21275 3.05872 4.51343 2.81314 4.59115 2.46665L4.68022 2.06882C4.81865 1.52691 5.27421 1.16699 5.79557 1.16699H8.20442Z" fill="#F8F9FF"/>
</svg>
