<svg width="43" height="24" viewBox="0 0 43 24" fill="none" xmlns="http://www.w3.org/2000/svg">
<g clip-path="url(#clip0_2754_71241)">
<path d="M40.4916 0.205078H6.26307C4.86697 0.205078 3.71157 1.36476 3.71157 2.82053V18.8834C3.71157 18.908 3.71157 18.9327 3.71157 18.9574C3.71157 21.2767 2.14698 23.3 -0.043457 23.8429H40.4916C41.8877 23.8429 43.0431 22.6832 43.0431 21.2274V2.79586C43.0431 1.36476 41.9118 0.205078 40.4916 0.205078Z" fill="#CC0000"/>
<path d="M17.2154 9.48409L16.06 14.9617C16.2767 14.9864 16.5174 14.9124 16.6859 14.7643C16.8544 14.4436 16.9507 14.0981 17.0229 13.7527L17.6969 10.5204C17.745 10.2737 17.7931 10.0269 17.8172 9.78017C17.8172 9.68148 17.7691 9.60746 17.6969 9.55811C17.5284 9.48408 17.3839 9.45941 17.2154 9.48409ZM15.362 8.05299H16.9747C17.6728 8.02831 18.3708 8.07766 19.0689 8.20103C19.3577 8.25038 19.6225 8.4231 19.8151 8.66984C19.9595 8.89191 20.0317 9.13865 20.0317 9.41006C19.9836 9.95289 19.8873 10.471 19.7669 10.9892L19.1411 13.9007C19.0448 14.4189 18.9245 14.9124 18.7319 15.4059C18.6356 15.6526 18.4671 15.85 18.2505 15.998C18.0338 16.1461 17.7931 16.2448 17.5284 16.2941C17.1432 16.3682 16.7581 16.3928 16.3489 16.3682H13.6289L15.362 8.05299ZM22.9924 8.05299L22.7758 9.13865H20.6576L20.8742 8.05299H22.9924ZM22.6795 9.55811L21.2593 16.3682H19.1411L20.5613 9.55811H22.6795ZM27.1085 12.0502H25.231L25.3995 11.2853C25.4476 11.1126 25.4717 10.9152 25.4476 10.7425C25.4236 10.6438 25.3273 10.5944 25.231 10.5944C25.1347 10.5944 25.0384 10.6438 24.9662 10.7178C24.8699 10.8905 24.8218 11.0879 24.7977 11.2853L24.1478 14.4683C24.0997 14.641 24.0997 14.8384 24.1237 15.0111C24.1478 15.1098 24.2441 15.1838 24.3404 15.1838C24.4607 15.1838 24.6052 15.1098 24.6533 14.9864C24.7496 14.7643 24.8459 14.5176 24.8699 14.2709L25.0384 13.4813H26.8197C26.7474 13.9007 26.6271 14.2955 26.5067 14.6903C26.266 15.3565 25.7605 15.8747 25.1347 16.1708C24.7737 16.3188 24.3644 16.3928 23.9793 16.3928C23.522 16.4175 23.0887 16.3188 22.7036 16.0967C22.4147 15.8993 22.2222 15.6033 22.174 15.2578C22.1259 14.7397 22.1499 14.2215 22.2944 13.728L22.6795 11.8034C22.7517 11.3593 22.8961 10.9152 23.1128 10.4957C23.3294 10.1503 23.6423 9.90354 24.0034 9.70615C24.4367 9.48408 24.9181 9.36072 25.4236 9.36072C25.8809 9.33604 26.3142 9.45941 26.6993 9.70615C26.9882 9.90354 27.2048 10.1996 27.2529 10.5697C27.3011 11.0632 27.2529 11.5567 27.1326 12.0502M30.5747 11.9268L30.695 11.4333C30.7673 11.2113 30.7913 10.9892 30.7913 10.7425C30.7673 10.6438 30.695 10.5944 30.5747 10.5944C30.4543 10.5697 30.334 10.6191 30.2618 10.7178C30.1655 10.9399 30.0933 11.1866 30.0451 11.4087L29.9248 11.9021L30.5747 11.9268ZM32.4763 13.0372H29.7081L29.3952 14.4929C29.3471 14.6903 29.323 14.8877 29.3471 15.0851C29.3712 15.1838 29.4434 15.2085 29.5878 15.2085C29.7322 15.2085 29.8766 15.1591 29.9489 15.0358C30.0692 14.8137 30.1414 14.5916 30.1896 14.3696L30.3821 13.4813H32.4041L32.2837 13.9748C32.2115 14.2955 32.1152 14.641 31.9949 14.9371C31.6819 15.5292 31.1765 15.9734 30.5747 16.2201C30.1896 16.3682 29.7804 16.4175 29.3712 16.4175C28.986 16.4175 28.6009 16.3682 28.2158 16.2201C27.6862 16.0474 27.3011 15.5539 27.277 14.9864C27.277 14.5916 27.3251 14.2215 27.4214 13.8267L27.8547 11.8528C27.951 11.3593 28.1435 10.8905 28.4083 10.4464C28.649 10.1009 29.0101 9.82952 29.3952 9.6568C29.8285 9.48409 30.2858 9.38539 30.7432 9.38539C31.2246 9.36072 31.7301 9.48408 32.1393 9.70615C32.4522 9.87887 32.6929 10.1996 32.7651 10.5697C32.8373 11.0879 32.8133 11.6061 32.6688 12.0995L32.4763 13.0372ZM34.0649 8.66984H34.2575C34.3297 8.66984 34.4019 8.66984 34.4501 8.62049C34.4982 8.59582 34.5223 8.54647 34.4982 8.49712C34.4982 8.44777 34.4741 8.39843 34.4501 8.37375C34.4019 8.34908 34.3297 8.3244 34.2816 8.3244H34.0649V8.66984ZM33.8242 9.33604V8.17636H34.3538C34.4501 8.17636 34.5704 8.20103 34.6426 8.27506C34.7149 8.34908 34.7389 8.4231 34.7389 8.5218C34.7389 8.59582 34.7149 8.66984 34.6667 8.74386C34.5945 8.81789 34.5223 8.84256 34.426 8.84256C34.4741 8.86723 34.4982 8.89191 34.5464 8.91658C34.5945 8.9906 34.6426 9.03995 34.6667 9.11397L34.8111 9.33604H34.5223L34.426 9.13865C34.3779 9.06463 34.3297 8.9906 34.2816 8.91658C34.2334 8.86723 34.1853 8.84256 34.1131 8.86723H34.0649V9.33604H33.8242ZM34.3297 7.88027C34.089 7.88027 33.8483 7.97897 33.7039 8.15168C33.5354 8.3244 33.4632 8.54647 33.4632 8.76854C33.4632 9.26202 33.8483 9.6568 34.3297 9.6568C34.8111 9.6568 35.1963 9.26202 35.1963 8.76854C35.1963 8.59582 35.1481 8.44777 35.0759 8.29973C35.0037 8.17636 34.8834 8.05299 34.7389 7.97897C34.6186 7.90494 34.4982 7.8556 34.3538 7.83092L34.3297 7.88027ZM34.2816 7.6582C34.5704 7.6582 34.8593 7.7569 35.0759 7.97897C35.4851 8.39842 35.4851 9.0893 35.0759 9.53343C34.6667 9.97757 33.9927 9.95289 33.5595 9.53343C33.3669 9.33604 33.2465 9.03995 33.2465 8.76854C33.2465 8.57114 33.2947 8.34908 33.415 8.17636C33.5113 8.00364 33.6557 7.88027 33.8242 7.78157C33.9446 7.70755 34.1131 7.6582 34.2816 7.6582Z" fill="#FFFFFE"/>
</g>
<defs>
<clipPath id="clip0_2754_71241">
<rect width="43" height="24" fill="white"/>
</clipPath>
</defs>
</svg>
