<svg width="22" height="22" viewBox="0 0 22 22" fill="none" xmlns="http://www.w3.org/2000/svg">
<rect width="22" height="22" rx="4" fill="#EB5757"/>
<path d="M11.0003 5.16626C14.2262 5.16626 16.8337 7.78018 16.8337 10.9996C16.8337 14.2202 14.2262 16.8329 11.0003 16.8329C7.78033 16.8329 5.16699 14.2202 5.16699 10.9996C5.16699 7.78018 7.78033 5.16626 11.0003 5.16626ZM11.0003 12.7093C10.7203 12.7093 10.4928 12.9368 10.4928 13.2168C10.4928 13.4968 10.7203 13.7302 11.0062 13.7302C11.2862 13.7302 11.5137 13.4968 11.5137 13.2168C11.5137 12.9368 11.2862 12.7093 11.0003 12.7093ZM11.0003 8.27543C10.7203 8.27543 10.487 8.50934 10.487 8.78876V11.3671C10.487 11.6477 10.7203 11.8746 11.0003 11.8746C11.2803 11.8746 11.5078 11.6477 11.5078 11.3671V8.78876C11.5078 8.50934 11.2803 8.27543 11.0003 8.27543Z" fill="#F8F9FF"/>
</svg>
