<svg width="34" height="34" viewBox="0 0 34 34" fill="none" xmlns="http://www.w3.org/2000/svg">
<path d="M17.0007 0.333252C7.78398 0.333252 0.333984 7.78325 0.333984 16.9999C0.333984 26.2166 7.78398 33.6666 17.0007 33.6666C26.2173 33.6666 33.6673 26.2166 33.6673 16.9999C33.6673 7.78325 26.2173 0.333252 17.0007 0.333252ZM24.1673 24.1666C24.0131 24.3211 23.83 24.4437 23.6284 24.5273C23.4267 24.6109 23.2106 24.654 22.9923 24.654C22.774 24.654 22.5579 24.6109 22.3563 24.5273C22.1547 24.4437 21.9715 24.3211 21.8173 24.1666L17.0007 19.3499L12.184 24.1666C11.8724 24.4782 11.4497 24.6533 11.009 24.6533C10.5683 24.6533 10.1456 24.4782 9.83398 24.1666C9.52235 23.855 9.34728 23.4323 9.34728 22.9916C9.34728 22.7734 9.39026 22.5573 9.47377 22.3557C9.55728 22.1541 9.67968 21.9709 9.83398 21.8166L14.6507 16.9999L9.83398 12.1833C9.52235 11.8716 9.34728 11.449 9.34728 11.0083C9.34728 10.5675 9.52235 10.1449 9.83398 9.83325C10.1456 9.52162 10.5683 9.34655 11.009 9.34655C11.4497 9.34655 11.8724 9.52162 12.184 9.83325L17.0007 14.6499L21.8173 9.83325C21.9716 9.67895 22.1548 9.55655 22.3564 9.47304C22.558 9.38953 22.7741 9.34655 22.9923 9.34655C23.2105 9.34655 23.4266 9.38953 23.6282 9.47304C23.8298 9.55655 24.013 9.67895 24.1673 9.83325C24.3216 9.98755 24.444 10.1707 24.5275 10.3723C24.611 10.574 24.654 10.79 24.654 11.0083C24.654 11.2265 24.611 11.4425 24.5275 11.6442C24.444 11.8458 24.3216 12.0289 24.1673 12.1833L19.3507 16.9999L24.1673 21.8166C24.8006 22.4499 24.8006 23.5166 24.1673 24.1666Z" fill="#EB5757"/>
</svg>
