<svg width="20" height="20" viewBox="0 0 20 20" fill="none" xmlns="http://www.w3.org/2000/svg">
<rect width="20" height="20" rx="10" fill="#F6D155"/>
<path d="M7.99977 13.2801L5.68644 10.9667C5.56179 10.8421 5.39272 10.772 5.21644 10.772C5.04015 10.772 4.87109 10.8421 4.74644 10.9667C4.62179 11.0914 4.55176 11.2604 4.55176 11.4367C4.55176 11.524 4.56895 11.6104 4.60235 11.6911C4.63576 11.7717 4.68472 11.845 4.74644 11.9067L7.53311 14.6934C7.79311 14.9534 8.2131 14.9534 8.4731 14.6934L15.5264 7.64005C15.6511 7.5154 15.7211 7.34634 15.7211 7.17005C15.7211 6.99377 15.6511 6.8247 15.5264 6.70005C15.4018 6.5754 15.2327 6.50537 15.0564 6.50537C14.8802 6.50537 14.7111 6.5754 14.5864 6.70005L7.99977 13.2801Z" fill="#131D26"/>
</svg>
