<svg width="681" height="613" viewBox="0 0 681 613" fill="none" xmlns="http://www.w3.org/2000/svg">
<path d="M265.337 372.325C256.695 424.678 217.236 466.906 200.019 483.11C181.33 500.697 161.151 497.728 159.265 462.094C157.811 434.586 162.437 403.272 171.484 375.282C179.415 350.746 192.822 327.42 211.833 312.515C216.595 308.78 222.144 306.529 227.884 305.908C242.543 304.329 256.181 313.706 261.363 328.957C265.969 342.517 267.732 357.841 265.34 372.325H265.337Z" fill="url(#paint0_linear_8503_7243)"/>
<path d="M410.663 372.325C413.606 390.158 420.126 406.816 428.125 421.673C428.887 423.092 429.664 424.491 430.454 425.877C445.657 452.568 465.189 472.953 475.982 483.11C494.669 500.7 514.849 497.725 516.738 462.094C518.192 434.586 513.564 403.272 504.519 375.282C504.179 374.227 503.827 373.174 503.465 372.124C502.864 370.374 502.232 368.626 501.571 366.893C493.439 345.502 480.998 325.71 464.17 312.515C459.411 308.783 453.862 306.529 448.122 305.908C433.46 304.329 419.824 313.706 414.643 328.957C410.037 342.517 408.274 357.843 410.666 372.325H410.663Z" fill="url(#paint1_linear_8503_7243)"/>
<path opacity="0.1" d="M428.126 421.673C428.888 423.092 429.665 424.491 430.455 425.877C459.263 415.251 483.697 397.268 503.463 372.122C502.862 370.372 502.23 368.624 501.569 366.891C490.594 381.296 478.068 393.426 464.186 403.077C453.138 410.754 441.082 416.968 428.126 421.673Z" fill="#131E2E"/>
<path opacity="0.1" d="M247.871 421.673C247.109 423.092 246.332 424.491 245.542 425.877C216.734 415.251 192.299 397.268 172.534 372.122C173.135 370.372 173.766 368.624 174.428 366.891C185.402 381.296 197.929 393.426 211.811 403.077C222.858 410.754 234.915 416.968 247.871 421.673Z" fill="#131E2E"/>
<path d="M216.43 379.089C216.43 397.788 219.212 416.964 224.288 435.436C284.378 489.227 378.452 487.333 449.666 435.38C454.735 416.925 457.512 397.77 457.512 379.089C457.512 296.72 403.542 283.201 336.971 283.201C270.4 283.201 216.43 296.72 216.43 379.089Z" fill="url(#paint2_linear_8503_7243)"/>
<path d="M224.292 435.433C241.587 498.326 285.513 553.064 336.972 553.064C388.431 553.064 432.387 498.292 449.67 435.374C447.044 435.261 444.418 435.028 441.812 434.663C422.044 431.909 403.335 421.845 389.935 406.76C381.242 396.976 374.788 385.254 365.73 375.821C365.655 375.741 365.582 375.667 365.506 375.59C350.334 359.964 325.532 359.964 310.36 375.59C310.284 375.667 310.211 375.741 310.136 375.821C301.078 385.254 294.624 396.976 285.931 406.76C272.531 421.847 253.822 431.909 234.054 434.663C230.819 435.115 227.559 435.369 224.297 435.431L224.292 435.433Z" fill="url(#paint3_linear_8503_7243)"/>
<path d="M475.196 242.273C493.07 242.273 507.559 226.729 507.559 207.556C507.559 188.382 493.07 172.838 475.196 172.838V242.271V242.273Z" fill="url(#paint4_linear_8503_7243)"/>
<path d="M200.658 242.273C182.784 242.273 168.296 226.729 168.296 207.556C168.296 188.382 182.784 172.838 200.658 172.838V242.271V242.273Z" fill="url(#paint5_linear_8503_7243)"/>
<path d="M192.01 214.366C192.01 286.94 257.372 305.118 338.001 305.118C418.628 305.118 483.992 286.94 483.992 214.366V200.752C483.99 128.178 418.628 110 338.001 110C257.374 110 192.01 128.178 192.01 200.752V214.366Z" fill="url(#paint6_linear_8503_7243)"/>
<path d="M221.827 222.645C221.827 262.899 273.807 272.982 337.928 272.982C402.05 272.982 454.029 262.899 454.029 222.645V215.094C454.029 174.84 402.05 164.758 337.928 164.758C273.807 164.758 221.827 174.84 221.827 215.094V222.645Z" fill="#131C27"/>
<path d="M369.383 226.671C368.668 229.513 371.231 232.087 374.013 231.343C380.417 229.628 386.982 228.771 393.55 228.771C400.118 228.771 406.683 229.628 413.087 231.343C415.866 232.087 418.429 229.513 417.718 226.671C414.958 215.678 405.184 207.554 393.55 207.554C381.917 207.554 372.144 215.681 369.383 226.671Z" fill="#F6D155"/>
<path d="M306.477 226.671C307.191 229.513 304.628 232.087 301.846 231.343C295.442 229.628 288.877 228.771 282.309 228.771C275.742 228.771 269.176 229.628 262.772 231.343C259.993 232.087 257.43 229.513 258.142 226.671C260.901 215.678 270.676 207.554 282.309 207.554C293.943 207.554 303.715 215.681 306.477 226.671Z" fill="#F6D155"/>
<path opacity="0.76" d="M221.826 215.094V222.643C221.826 223.092 221.833 223.539 221.846 223.98C222.983 184.835 274.52 174.979 337.924 174.979C401.329 174.979 452.868 184.837 454.005 223.98C454.02 223.539 454.025 223.092 454.025 222.643V215.094C454.025 174.837 402.046 164.758 337.922 164.758C273.798 164.758 221.823 174.837 221.823 215.094H221.826Z" fill="#131E2E"/>
<path d="M272.884 115.48C279.851 122.336 284.462 131.591 286.61 143.504C287.287 147.272 290.544 149.979 294.294 149.979H381.708C385.458 149.979 388.716 147.269 389.397 143.504C391.543 131.591 396.154 122.333 403.121 115.483C383.516 111.532 361.401 110 338.001 110C314.601 110 292.486 111.532 272.884 115.48Z" fill="#FBD050"/>
<path d="M272.884 115.48C279.851 122.335 284.462 131.591 286.61 143.503C287.287 147.271 290.544 149.979 294.294 149.979H381.708C385.458 149.979 388.716 147.269 389.397 143.503C391.543 131.591 396.154 122.333 403.121 115.482C393.721 121.18 388.233 126.024 386.22 137.199C385.587 140.734 382.528 143.275 379.011 143.275H296.998C293.479 143.275 290.423 140.731 289.789 137.199C287.775 126.021 282.077 118.516 272.889 115.477L272.884 115.48Z" fill="#141E26"/>
<path d="M337.929 452.348C320.625 452.348 306.597 438.034 306.597 420.377C306.597 402.72 320.625 388.406 337.929 388.406C355.232 388.406 369.26 402.72 369.26 420.377C369.26 438.034 355.232 452.348 337.929 452.348Z" fill="url(#paint7_linear_8503_7243)"/>
<path d="M337.926 445.957C324.087 445.957 312.868 434.509 312.868 420.387C312.868 406.265 324.087 394.817 337.926 394.817C351.766 394.817 362.984 406.265 362.984 420.387C362.984 434.509 351.766 445.957 337.926 445.957Z" fill="#FBD050"/>
<path opacity="0.1" d="M312.868 420.387C312.868 421.206 312.906 422.017 312.982 422.815C314.179 409.83 324.889 399.671 337.926 399.671C350.964 399.671 361.674 409.83 362.871 422.815C362.949 422.017 362.984 421.206 362.984 420.387C362.984 406.262 351.766 394.817 337.926 394.817C324.087 394.817 312.868 406.262 312.868 420.387Z" fill="#131E2E"/>
<path opacity="0.63" d="M337.922 613.001C293.808 613.001 258.047 606.329 258.047 598.098C258.047 589.868 293.808 583.196 337.922 583.196C382.036 583.196 417.797 589.868 417.797 598.098C417.797 606.329 382.036 613.001 337.922 613.001Z" fill="url(#paint8_radial_8503_7243)"/>
<path d="M134.285 94L134.768 93.8695L133.793 93.9122L133.793 93.9122L133.793 93.9122L133.793 93.9125L133.793 93.9139L133.791 93.9202L133.787 93.946C133.783 93.9691 133.776 94.0039 133.767 94.0496C133.75 94.141 133.724 94.2765 133.689 94.451C133.62 94.8 133.514 95.3049 133.373 95.926C133.091 97.1689 132.666 98.8743 132.095 100.726C130.942 104.458 129.225 108.674 126.95 110.949C124.675 113.224 120.459 114.941 116.726 116.094C114.875 116.665 113.17 117.09 111.927 117.373C111.306 117.514 110.801 117.619 110.452 117.688C110.277 117.723 110.142 117.749 110.051 117.767C110.005 117.775 109.97 117.782 109.947 117.786L109.921 117.791L109.915 117.792L109.913 117.792L109.913 117.792L109.939 118.78L109.94 118.78L109.941 118.781L109.948 118.781L109.975 118.785C109.999 118.788 110.035 118.793 110.083 118.799C110.179 118.812 110.321 118.832 110.504 118.858C110.869 118.912 111.398 118.993 112.047 119.106C113.346 119.332 115.127 119.681 117.053 120.178C118.98 120.674 121.044 121.315 122.914 122.122C124.79 122.93 126.436 123.891 127.557 125.012C128.678 126.133 129.639 127.78 130.448 129.656C131.254 131.525 131.895 133.589 132.392 135.517C132.888 137.443 133.238 139.223 133.463 140.522C133.576 141.172 133.658 141.7 133.711 142.066C133.738 142.248 133.757 142.39 133.77 142.486C133.777 142.534 133.781 142.57 133.784 142.595L133.788 142.622L133.789 142.628L133.789 142.63L133.789 142.63L134.763 142.714L134.764 142.714L134.764 142.713L134.766 142.707L134.773 142.683L134.802 142.59C134.828 142.507 134.867 142.384 134.918 142.226C135.021 141.91 135.173 141.452 135.371 140.887C135.766 139.756 136.342 138.2 137.065 136.498C138.52 133.073 140.538 129.131 142.835 126.834C145.132 124.537 149.074 122.519 152.499 121.064C154.201 120.341 155.757 119.765 156.887 119.37C157.452 119.172 157.911 119.02 158.227 118.917C158.385 118.866 158.508 118.827 158.591 118.801L158.684 118.772L158.708 118.765L158.713 118.763L158.715 118.763L158.715 118.763L158.569 118.284L158.715 118.763L160.38 118.256L158.7 117.802L158.7 117.802L158.698 117.801L158.693 117.8L158.668 117.793L158.572 117.766C158.487 117.742 158.361 117.707 158.199 117.66C157.875 117.565 157.405 117.425 156.826 117.241C155.668 116.874 154.074 116.336 152.335 115.651C148.833 114.272 144.822 112.33 142.531 110.038C140.24 107.747 138.297 103.736 136.918 100.235C136.233 98.4951 135.695 96.9019 135.328 95.7434C135.145 95.1644 135.004 94.6946 134.91 94.3701C134.863 94.2079 134.827 94.082 134.803 93.9971L134.776 93.9009L134.77 93.8769L134.768 93.8711L134.768 93.8697L134.768 93.8695L134.285 94Z" fill="#F6D155" stroke="#131D26"/>
<path d="M337.285 10L337.768 9.86947L336.793 9.91222L336.793 9.91222L336.793 9.91222L336.793 9.9125L336.793 9.91393L336.791 9.92017L336.787 9.94603C336.783 9.96913 336.776 10.0039 336.767 10.0496C336.75 10.141 336.724 10.2765 336.689 10.451C336.62 10.8 336.514 11.3049 336.373 11.926C336.091 13.1689 335.666 14.8743 335.095 16.7256C333.942 20.4582 332.225 24.6739 329.95 26.949C327.675 29.224 323.459 30.9412 319.726 32.0938C317.875 32.6655 316.17 33.0905 314.927 33.3726C314.306 33.5135 313.801 33.6187 313.452 33.6884C313.277 33.7233 313.142 33.7493 313.051 33.7666C313.005 33.7752 312.97 33.7816 312.947 33.7859L312.921 33.7906L312.915 33.7917L312.913 33.792L312.913 33.792L312.939 34.7804L312.94 34.7805L312.941 34.7807L312.948 34.7815L312.975 34.785C312.999 34.7881 313.035 34.7928 313.083 34.7993C313.179 34.8122 313.321 34.8318 313.504 34.8584C313.869 34.9118 314.398 34.9934 315.047 35.1061C316.346 35.3317 318.127 35.6813 320.053 36.1776C321.98 36.6742 324.044 37.3153 325.914 38.1215C327.79 38.9305 329.436 39.8914 330.557 41.0124C331.678 42.1335 332.639 43.7798 333.448 45.6557C334.254 47.5252 334.895 49.5891 335.392 51.5166C335.888 53.4426 336.238 55.2231 336.463 56.5224C336.576 57.1718 336.658 57.7002 336.711 58.0656C336.738 58.2483 336.757 58.3902 336.77 58.486C336.777 58.5339 336.781 58.5703 336.784 58.5946L336.788 58.6217L336.789 58.6282L336.789 58.6297L336.789 58.63L337.763 58.7141L337.764 58.7138L337.764 58.7125L337.766 58.7069L337.773 58.6834L337.802 58.5897C337.828 58.5069 337.867 58.3842 337.918 58.226C338.021 57.9097 338.173 57.4515 338.371 56.8866C338.766 55.7562 339.342 54.2002 340.065 52.4979C341.52 49.073 343.538 45.1306 345.835 42.8337C348.132 40.5368 352.074 38.5186 355.499 37.0643C357.201 36.3414 358.757 35.7653 359.887 35.37C360.452 35.1724 360.911 35.0202 361.227 34.9175C361.385 34.8662 361.508 34.8272 361.591 34.8012L361.684 34.772L361.708 34.7648L361.713 34.763L361.715 34.7626L361.715 34.7626L361.569 34.2842L361.715 34.7626L363.38 34.2558L361.7 33.8016L361.7 33.8015L361.698 33.8011L361.693 33.7996L361.668 33.793L361.572 33.7662C361.487 33.7424 361.361 33.7067 361.199 33.6595C360.875 33.5651 360.405 33.4246 359.826 33.2412C358.668 32.8742 357.074 32.336 355.335 31.651C351.833 30.2721 347.822 28.3297 345.531 26.0383C343.24 23.7469 341.297 19.7361 339.918 16.2346C339.233 14.4951 338.695 12.9019 338.328 11.7434C338.145 11.1644 338.004 10.6946 337.91 10.3701C337.863 10.2079 337.827 10.082 337.803 9.99709L337.776 9.9009L337.77 9.87688L337.768 9.87107L337.768 9.86974L337.768 9.86947L337.285 10Z" fill="#F6D155" stroke="#131D26"/>
<path d="M536.285 109L536.768 108.869L535.793 108.912L535.793 108.912L535.793 108.912L535.793 108.913L535.793 108.914L535.791 108.92L535.787 108.946C535.783 108.969 535.776 109.004 535.767 109.05C535.75 109.141 535.724 109.276 535.689 109.451C535.62 109.8 535.514 110.305 535.373 110.926C535.091 112.169 534.666 113.874 534.095 115.726C532.942 119.458 531.225 123.674 528.95 125.949C526.675 128.224 522.459 129.941 518.726 131.094C516.875 131.665 515.17 132.09 513.927 132.373C513.306 132.514 512.801 132.619 512.452 132.688C512.277 132.723 512.142 132.749 512.051 132.767C512.005 132.775 511.97 132.782 511.947 132.786L511.921 132.791L511.915 132.792L511.913 132.792L511.913 132.792L511.939 133.78L511.94 133.78L511.941 133.781L511.948 133.781L511.975 133.785C511.999 133.788 512.035 133.793 512.083 133.799C512.179 133.812 512.321 133.832 512.504 133.858C512.869 133.912 513.398 133.993 514.047 134.106C515.346 134.332 517.127 134.681 519.053 135.178C520.98 135.674 523.044 136.315 524.914 137.122C526.79 137.93 528.436 138.891 529.557 140.012C530.678 141.133 531.639 142.78 532.448 144.656C533.254 146.525 533.895 148.589 534.392 150.517C534.888 152.443 535.238 154.223 535.463 155.522C535.576 156.172 535.658 156.7 535.711 157.066C535.738 157.248 535.757 157.39 535.77 157.486C535.777 157.534 535.781 157.57 535.784 157.595L535.788 157.622L535.789 157.628L535.789 157.63L535.789 157.63L536.763 157.714L536.764 157.714L536.764 157.713L536.766 157.707L536.773 157.683L536.802 157.59C536.828 157.507 536.867 157.384 536.918 157.226C537.021 156.91 537.173 156.452 537.371 155.887C537.766 154.756 538.342 153.2 539.065 151.498C540.52 148.073 542.538 144.131 544.835 141.834C547.132 139.537 551.074 137.519 554.499 136.064C556.201 135.341 557.757 134.765 558.887 134.37C559.452 134.172 559.911 134.02 560.227 133.917C560.385 133.866 560.508 133.827 560.591 133.801L560.684 133.772L560.708 133.765L560.713 133.763L560.715 133.763L560.715 133.763L560.569 133.284L560.715 133.763L562.38 133.256L560.7 132.802L560.7 132.802L560.698 132.801L560.693 132.8L560.668 132.793L560.572 132.766C560.487 132.742 560.361 132.707 560.199 132.66C559.875 132.565 559.405 132.425 558.826 132.241C557.668 131.874 556.074 131.336 554.335 130.651C550.833 129.272 546.822 127.33 544.531 125.038C542.24 122.747 540.297 118.736 538.918 115.235C538.233 113.495 537.695 111.902 537.328 110.743C537.145 110.164 537.004 109.695 536.91 109.37C536.863 109.208 536.827 109.082 536.803 108.997L536.776 108.901L536.77 108.877L536.768 108.871L536.768 108.87L536.768 108.869L536.285 109Z" fill="#F6D155" stroke="#131D26"/>
<g clip-path="url(#clip0_8503_7243)">
<path d="M124.234 180.41L44.3692 208.519C41.1117 209.666 39.3783 213.35 40.5866 216.783L53.9186 254.662C53.9391 254.72 53.9596 254.778 53.9801 254.837C55.9051 260.306 53.9338 266.362 49.2734 269.441L143.853 236.153C147.11 235.006 148.844 231.323 147.635 227.89L132.337 184.425C131.15 181.05 127.547 179.244 124.234 180.41Z" fill="#CC0000"/>
<path d="M77.6241 221.404L79.4746 235.27C80.0006 235.15 80.5008 234.778 80.771 234.29C80.898 233.396 80.8359 232.502 80.7177 231.628L79.6075 223.452C79.515 222.831 79.4225 222.209 79.2739 221.608C79.192 221.375 79.0182 221.24 78.8088 221.183C78.3542 221.147 77.9967 221.207 77.6241 221.404ZM72.1117 219.551L75.8746 218.227C77.4829 217.595 79.1526 217.138 80.8837 216.856C81.5987 216.735 82.3598 216.925 83.0139 217.349C83.5352 217.754 83.9085 218.276 84.1338 218.916C84.472 220.236 84.6774 221.537 84.8266 222.858L85.7829 230.238C85.9884 231.539 86.1171 232.801 86.0774 234.123C86.0575 234.784 85.8282 235.388 85.4456 235.915C85.063 236.442 84.5833 236.872 84.0065 237.206C83.1693 237.697 82.2912 238.071 81.3159 238.349L74.9694 240.583L72.1117 219.551ZM89.9155 213.285L90.3111 216.023L85.3688 217.762L84.9731 215.024L89.9155 213.285ZM90.4346 217.091L92.7733 234.317L87.8309 236.056L85.4922 218.831L90.4346 217.091ZM102.837 219.331L98.4564 220.873L98.2147 218.93C98.1836 218.484 98.076 217.998 97.8765 217.611C97.7384 217.398 97.4728 217.36 97.2481 217.44C97.0235 217.519 96.8398 217.714 96.7327 217.948C96.6514 218.434 96.7029 218.939 96.8106 219.425L97.936 227.464C97.967 227.911 98.1309 228.377 98.3304 228.764C98.4685 228.977 98.7545 229.073 98.9792 228.994C99.26 228.895 99.5356 228.602 99.5455 228.271C99.5858 227.668 99.6057 227.007 99.4571 226.406L99.1949 224.406L103.351 222.943C103.531 223.991 103.577 225.021 103.624 226.051C103.616 227.82 102.866 229.457 101.652 230.669C100.932 231.314 100.039 231.825 99.1402 232.141C98.0936 232.575 97.0007 232.698 95.9178 232.491C95.08 232.262 94.385 231.722 93.9859 230.947C93.4435 229.765 93.0696 228.523 92.997 227.241L92.2982 222.386C92.0981 221.279 92.0665 220.113 92.2238 218.946C92.4426 217.954 92.9679 217.115 93.6465 216.353C94.4731 215.473 95.494 214.787 96.6735 214.372C97.7201 213.938 98.8334 213.873 99.9368 214.139C100.775 214.367 101.526 214.888 101.945 215.721C102.467 216.845 102.765 218.048 102.893 219.311M110.822 216.193L110.694 214.931C110.678 214.348 110.55 213.804 110.345 213.222C110.207 213.009 109.997 212.952 109.716 213.051C109.415 213.092 109.175 213.307 109.089 213.599C109.048 214.202 109.085 214.843 109.157 215.406L109.285 216.669L110.822 216.193ZM116.181 217.25L109.722 219.523L110.2 223.213C110.252 223.718 110.359 224.204 110.579 224.649C110.717 224.862 110.906 224.861 111.243 224.743C111.58 224.624 111.876 224.389 111.942 224.039C112.039 223.416 112.023 222.833 111.951 222.27L111.663 220.017L116.381 218.357L116.51 219.619C116.607 220.435 116.669 221.329 116.634 222.126C116.396 223.779 115.585 225.242 114.386 226.318C113.61 226.983 112.696 227.436 111.741 227.772C110.843 228.088 109.903 228.288 108.882 228.255C107.503 228.283 106.195 227.435 105.667 226.117C105.34 225.186 105.145 224.273 105.042 223.263L104.414 218.252C104.229 217.01 104.29 215.746 104.539 214.481C104.814 213.469 105.431 212.532 106.186 211.809C107.054 211.046 108.039 210.437 109.106 210.062C110.209 209.608 111.491 209.484 112.63 209.672C113.503 209.822 114.331 210.381 114.807 211.194C115.405 212.357 115.779 213.599 115.852 214.881L116.181 217.25ZM116.263 205.646L116.712 205.488C116.881 205.429 117.049 205.37 117.12 205.214C117.212 205.116 117.227 204.98 117.13 204.883C117.089 204.767 116.992 204.67 116.916 204.632C116.783 204.613 116.594 204.614 116.482 204.654L115.976 204.832L116.263 205.646ZM116.254 207.415L115.292 204.68L116.527 204.245C116.752 204.166 117.053 204.126 117.283 204.241C117.513 204.356 117.631 204.511 117.712 204.744C117.774 204.918 117.779 205.113 117.728 205.327C117.621 205.561 117.473 205.678 117.249 205.757C117.381 205.776 117.458 205.814 117.591 205.833C117.765 205.968 117.918 206.045 118.035 206.2L118.557 206.605L117.883 206.842L117.494 206.455C117.321 206.32 117.147 206.185 116.973 206.05C116.82 205.974 116.687 205.955 116.539 206.072L116.427 206.112L116.816 207.217L116.254 207.415ZM116.225 203.567C115.664 203.765 115.184 204.195 114.99 204.721C114.74 205.267 114.756 205.85 114.941 206.373C115.35 207.537 116.576 208.152 117.7 207.756C118.823 207.361 119.394 206.114 118.984 204.95C118.841 204.543 118.606 204.233 118.314 203.943C118.044 203.712 117.66 203.52 117.262 203.464C116.92 203.388 116.598 203.37 116.24 203.431L116.225 203.567ZM115.929 203.083C116.603 202.846 117.358 202.841 118.048 203.187C119.351 203.84 119.925 205.469 119.338 206.853C118.752 208.236 117.159 208.731 115.8 208.098C115.187 207.791 114.66 207.191 114.435 206.551C114.271 206.086 114.199 205.523 114.337 205.016C114.418 204.53 114.653 204.12 114.964 203.749C115.183 203.476 115.535 203.221 115.929 203.083Z" fill="#FFFFFE"/>
</g>
<g clip-path="url(#clip1_8503_7243)">
<path fill-rule="evenodd" clip-rule="evenodd" d="M625.932 22.5029C625.076 22.0197 624.133 21.9659 623.04 22.3504C621.948 22.7349 621.22 23.4035 620.891 24.3835C620.566 25.3358 620.653 26.5556 621.157 27.9875L624.855 38.496C622.972 37.4963 621.192 36.9392 619.497 36.7376C618.451 36.614 617.281 36.6665 616.041 36.9303C615.319 37.0913 614.609 37.2879 613.834 37.5608C610.24 38.8258 607.764 41.0936 606.416 44.3879C605.082 47.6502 605.198 51.5061 606.76 55.9438C607.498 58.0384 608.471 59.9036 609.668 61.5039C610.861 63.0923 612.213 64.3851 613.769 65.3538C615.316 66.2989 616.982 66.8695 618.712 67.0983C620.435 67.3034 622.173 67.1039 623.923 66.4879C624.722 66.2068 625.46 65.867 626.107 65.493C626.564 65.2525 626.941 64.9734 627.353 64.682C628.328 63.9266 629.174 63.0303 629.876 62.025C630.606 60.9837 631.245 59.7613 631.832 58.3176L632.078 59.0158C632.54 60.3294 633.219 61.2076 634.119 61.7021C635.034 62.1647 635.986 62.2421 636.96 61.899C637.982 61.5393 638.684 60.9068 639.073 60.025C639.45 59.1077 639.448 57.9778 638.965 56.605L627.906 25.1863C627.413 23.8969 626.757 22.9707 625.932 22.5029ZM628.824 54.0832C628.668 55.6277 628.153 56.9395 627.36 57.95C626.532 58.9729 625.489 59.6857 624.209 60.1364L624.185 60.1446C622.905 60.5953 621.645 60.6531 620.343 60.3666C619.04 60.0405 617.84 59.3323 616.755 58.1982C615.669 57.0641 614.792 55.5107 614.118 53.5936C613.472 51.7594 613.187 50.0508 613.3 48.495C613.38 46.9239 613.828 45.5694 614.599 44.4601C615.389 43.3306 616.439 42.5622 617.778 42.0909L617.848 42.0661C619.105 41.6238 620.374 41.5896 621.697 41.9353C623.008 42.2851 624.22 43.0288 625.317 44.1587C626.415 45.2887 627.303 46.8379 627.965 48.7195C628.697 50.723 628.983 52.5109 628.824 54.0832ZM606.099 62.4276C605.503 62.1983 604.833 62.208 604.07 62.4767C603.377 62.7206 602.946 63.0717 602.659 63.4922C602.046 64.6389 601.543 65.5738 601.15 66.2575C600.749 66.9174 600.285 67.5862 599.746 68.268C599.246 68.9095 598.646 69.4931 597.988 69.9109C597.318 70.3726 596.581 70.7519 595.712 71.0578C595.512 71.1281 595.347 71.186 595.163 71.2243C594.057 71.5337 592.931 71.5975 591.835 71.3715C590.534 71.1246 589.363 70.4992 588.273 69.5397C587.213 68.5162 586.353 67.1965 585.763 65.5954L599.975 60.5931C601.878 59.9234 603.246 59.1226 604.116 58.2576C604.982 57.3412 605.09 55.9996 604.461 54.2127C603.778 52.2719 602.595 50.5604 600.919 49.0622C599.243 47.564 597.219 46.5743 594.755 46.138C592.311 45.6817 589.691 45.9653 586.849 46.9657L586.637 47.0402C584.543 47.8038 582.738 48.825 581.268 50.0871C579.717 51.4179 578.571 52.9251 577.76 54.6337C577.027 56.3411 576.617 58.2144 576.621 60.2482C576.624 62.282 576.974 64.3663 577.707 66.4491C579.282 70.9222 581.819 73.9662 585.311 75.6761C588.621 77.2776 592.454 77.4047 596.81 76.0176C597.054 75.9586 597.312 75.8676 597.57 75.7767C599.579 75.0697 601.308 74.1686 602.698 73.094C604.089 72.0193 605.164 70.9096 605.918 69.7529C606.669 68.5844 607.164 67.479 607.357 66.4534C607.574 65.4194 607.566 64.5711 607.341 63.9321C607.141 63.1381 606.702 62.6409 606.099 62.4276ZM584.588 55.3558C585.31 53.7318 586.585 52.5914 588.394 51.9547L588.417 51.9465C590.296 51.285 592.043 51.3351 593.615 52.1252C595.187 52.9153 596.525 54.5056 597.524 56.8938L584.369 61.524C583.775 59.0467 583.83 56.9923 584.588 55.3558ZM575.019 72.6885C574.303 72.9407 573.872 73.2919 573.584 73.7123C572.983 74.8549 572.469 75.794 572.076 76.4776C571.675 77.1376 571.234 77.7981 570.695 78.4798C570.171 79.1297 569.595 79.7049 568.913 80.1311C568.268 80.5844 567.507 80.972 566.637 81.278C566.438 81.3482 566.273 81.4061 566.089 81.4445C564.983 81.7538 563.857 81.8176 562.761 81.5916C561.483 81.3365 560.289 80.7194 559.246 79.7433C558.139 78.7363 557.302 77.4084 556.712 75.8072L570.901 70.8132C572.78 70.1518 574.148 69.351 575.042 68.4778C575.884 67.5696 576.004 66.2239 575.376 64.437C574.692 62.4962 573.533 60.7764 571.857 59.2782C570.181 57.7799 568.145 56.7944 565.693 56.354C563.248 55.8977 560.605 56.1895 557.786 57.1817L557.552 57.2644C555.457 58.0281 553.675 59.041 552.182 60.3114C550.631 61.6421 549.485 63.1494 548.697 64.8497C547.942 66.5654 547.532 68.4386 547.535 70.4724C547.526 72.5104 547.888 74.5906 548.622 76.6733C550.196 81.1465 552.744 84.1863 556.249 85.8921C559.558 87.4936 563.38 87.6248 567.725 86.2419C567.991 86.1746 568.226 86.0919 568.485 86.0009C570.517 85.2857 572.222 84.3929 573.613 83.3182C575.003 82.2436 576.078 81.1338 576.821 79.9813C577.594 78.8045 578.066 77.7074 578.283 76.6735C578.5 75.6395 578.492 74.7912 578.267 74.1522C578.013 73.4303 577.578 72.945 576.983 72.7157C576.425 72.4066 575.724 72.4405 575.019 72.6885ZM555.494 65.5961C556.216 63.972 557.491 62.8316 559.3 62.195L559.324 62.1867C561.203 61.5253 562.95 61.5754 564.522 62.3654C566.105 63.1514 567.432 64.7458 568.454 67.1257L555.288 71.7601C554.705 69.2787 554.784 67.2159 555.494 65.5961ZM480.735 111.527L474.758 94.5453C475.268 94.419 475.758 94.2731 476.228 94.1078C478.589 93.2768 480.576 91.8724 482.072 90.1222L488.633 108.76C489.191 110.346 489.243 111.658 488.778 112.699C488.313 113.741 487.499 114.466 486.313 114.884C485.162 115.289 484.096 115.225 483.085 114.676C482.093 114.108 481.289 113.101 480.735 111.527ZM537.184 53.7404C536.327 53.2571 535.372 53.2075 534.304 53.5837C533.199 53.9723 532.483 54.6368 532.155 55.6168C531.806 56.5773 531.916 57.7889 532.42 59.2208L536.119 69.7293C534.236 68.7296 532.455 68.1725 530.761 67.971C529.702 67.8514 528.544 67.8999 527.327 68.1553C526.629 68.3081 525.896 68.513 525.12 68.7858C521.526 70.0508 519.027 72.3269 517.702 75.6129C516.369 78.8752 516.485 82.7311 518.047 87.1688C518.784 89.2634 519.758 91.1286 520.931 92.7372C522.124 94.3256 523.5 95.6102 525.055 96.5789C526.603 97.5239 528.269 98.0946 529.999 98.3233C531.745 98.5202 533.46 98.3289 535.21 97.7129C535.985 97.4401 536.723 97.1004 537.394 96.718C537.851 96.4775 538.228 96.1985 538.64 95.9071C539.615 95.1516 540.461 94.2553 541.163 93.2501C541.892 92.2087 542.508 90.9946 543.119 89.5426L543.365 90.2408C543.827 91.5544 544.506 92.4327 545.406 92.9272C546.274 93.4062 547.272 93.4672 548.247 93.124C549.222 92.7809 549.947 92.1401 550.336 91.2583C550.713 90.341 550.664 89.2276 550.181 87.8549L539.122 56.4361C538.641 55.1426 537.997 54.2123 537.184 53.7404ZM540.099 85.3123C539.943 86.8568 539.428 88.1686 538.623 89.1833C537.819 90.198 536.752 90.9191 535.496 91.3614L535.472 91.3697C534.192 91.8203 532.932 91.8781 531.63 91.5916C530.303 91.2738 529.127 90.5573 528.041 89.4232C526.956 88.2891 526.079 86.7358 525.404 84.8187C524.759 82.9844 524.474 81.2758 524.563 79.7283C524.667 78.1489 525.091 76.8027 525.886 75.6851C526.653 74.564 527.726 73.7873 529.041 73.3242L529.123 73.2953C530.38 72.853 531.649 72.8188 532.948 73.1727C534.283 73.5142 535.495 74.258 536.592 75.3879C537.678 76.522 538.578 78.0671 539.24 79.9487C539.96 81.9563 540.223 83.7525 540.099 85.3123ZM493.098 84.3928L493.406 85.2685C494.127 83.1529 495.08 81.474 496.293 80.1561C497.565 78.8571 499.15 77.8471 501.123 77.1525C503.026 76.4828 504.886 76.2934 506.673 76.5689C508.472 76.8403 509.984 77.6115 511.241 78.858C512.043 79.5601 512.685 80.4112 513.164 81.3597C513.639 82.2965 514.18 83.5692 514.734 85.1431L519.382 98.3497C519.89 99.7934 519.924 100.978 519.497 101.94C519.114 102.913 518.35 103.594 517.293 103.966C516.213 104.346 515.214 104.285 514.251 103.76C513.295 103.259 512.591 102.309 512.1 100.913L507.935 89.079C507.106 86.7241 506.148 85.0529 505.041 84.046C503.958 83.0308 502.398 82.8749 500.401 83.5777C499.098 84.0366 498.072 84.8364 497.278 85.954C496.487 87.0835 496.051 88.3941 496.02 89.921C496.055 91.1059 496.57 93.1323 497.599 96.0553L500.723 104.931C501.235 106.386 501.265 107.559 500.83 108.537C500.392 109.503 499.651 110.175 498.571 110.556C497.514 110.928 496.539 110.859 495.575 110.333C494.62 109.832 493.916 108.882 493.425 107.486L486.198 86.9544C485.723 85.6054 485.666 84.4683 486.036 83.6066C486.386 82.7254 487.083 82.081 488.14 81.7089C488.763 81.4898 489.372 81.4215 489.997 81.5473C490.623 81.6731 491.188 81.9663 491.721 82.4304C492.427 82.8999 492.806 83.5644 493.098 84.3928ZM466.462 70.8256C470.74 67.378 476.365 65.5049 481.784 67.5874C482.813 68.0364 484.018 68.6098 484.738 69.5667C485.639 70.7392 483.224 69.9533 482.871 69.8514C481.2 69.4552 479.58 69.2011 477.862 69.2338C468.765 69.6426 462.557 76.8685 460.183 85.5774C459.281 89.3529 459.095 93.0625 459.273 97.0167C459.305 97.4444 459.378 97.9904 459.276 98.4122C459.202 98.8771 458.827 97.3997 458.802 97.3287C458.457 95.7875 458.263 94.2599 458.123 92.6999C457.692 84.313 460.393 76.2337 466.462 70.8256ZM480.756 81.1692C481.893 84.3999 480.222 87.9406 477.016 89.0692C473.809 90.1978 470.293 88.4962 469.151 85.2537C468.01 82.0113 469.685 78.4824 472.892 77.3538C476.098 76.2251 479.615 77.9268 480.756 81.1692Z" fill="white"/>
</g>
<g clip-path="url(#clip2_8503_7243)">
<path fill-rule="evenodd" clip-rule="evenodd" d="M234.989 64.7169L201.667 52.9889C200.074 52.4281 198.29 53.1689 197.762 54.6706L186.379 87.0107C185.851 88.5124 186.31 90.0427 187.904 90.6035L221.226 102.331C222.822 102.893 224.952 102.274 225.481 100.773L236.863 68.4327C237.39 66.9342 236.583 65.2777 234.989 64.7169ZM208.549 71.5863L213.813 73.4388L212.9 76.0321L212.959 76.0528C214.254 74.9379 217.124 74.3526 220.053 75.3835C225.679 77.3636 226.231 80.8019 224.35 86.1461L220.835 96.1311L215.249 94.1648L218.416 85.1641C219.258 82.7728 219.008 80.3234 216.696 79.5098C213.888 78.5214 211.903 79.8863 210.842 82.9023L207.8 91.5434L202.214 89.577L208.546 71.5851L208.549 71.5863ZM192.908 86.3017L198.495 88.2681L204.826 70.2793L199.239 68.3129L192.908 86.3017ZM207.738 64.2271C207.081 66.0916 204.99 67.0502 203.06 66.371C201.13 65.6918 200.1 63.6345 200.757 61.77C201.413 59.9055 203.504 58.9468 205.434 59.626C207.364 60.3052 208.394 62.3626 207.738 64.2271Z" fill="white"/>
<path d="M181.735 82.3692L176.52 80.5338L177.274 78.3917L177.219 78.3722C175.602 79.264 173.212 79.6212 169.797 78.4191C165.14 76.7803 162.325 71.9851 164.372 66.1708C166.322 60.6309 171.575 58.3209 176.463 60.0413C179.49 61.1066 181.001 62.8085 181.671 64.5335L181.727 64.553L185.646 53.4165L191.233 55.3829L181.735 82.3692ZM176.443 64.5831C173.249 63.4591 170.679 65.026 169.649 67.9536C168.619 70.8813 169.608 73.8038 172.802 74.9277C175.998 76.0528 178.656 74.4777 179.706 71.4933C180.786 68.4236 179.639 65.7082 176.443 64.5831Z" fill="white"/>
<path d="M159.781 71.3836C157.881 72.5693 154.649 73.0876 150.267 71.5453C144.419 69.487 142.01 64.4341 144.079 58.5567C145.917 53.3355 150.557 50.923 156.921 53.1629C162.416 55.097 164.578 59.776 162.42 65.909C162.204 66.521 161.889 67.0943 161.889 67.0943L148.642 62.4318L148.479 62.9985C148.298 64.6794 148.846 67.003 151.624 67.981C154.054 68.836 156.16 68.1591 157.262 67.4371L159.781 71.3836ZM157.816 61.8173C158.52 59.9307 157.758 57.4995 155.485 56.6996C152.781 55.748 150.62 57.2812 149.842 59.0108L157.816 61.8173Z" fill="white"/>
<path d="M147.105 49.9599L140.588 47.6661L131.538 52.5683L137.236 36.3778L131.652 34.4126L122.154 61.3989L127.738 63.3641L130.903 54.3697L134.628 65.789L141.22 68.1093L136.787 55.4937L147.105 49.9599Z" fill="white"/>
<path d="M106.143 35.5428L111.407 37.3953L110.494 39.9886L110.553 40.0093C111.848 38.8944 114.718 38.3091 117.647 39.34C123.273 41.3201 123.627 45.3199 121.944 50.1026L118.429 60.0876L112.842 58.1213L116.01 49.1206C116.942 46.4737 116.602 44.2799 114.29 43.4663C111.482 42.4779 109.387 44.1552 108.436 46.8588L105.394 55.4999L99.8075 53.5335L106.14 35.5416L106.143 35.5428Z" fill="white"/>
<path d="M90.5004 50.2582L96.0873 52.2245L102.419 34.2358L96.8317 32.2694L90.5004 50.2582ZM100.704 30.193C102.555 30.8446 104.565 29.9209 105.193 28.1353C105.822 26.3497 104.834 24.3709 102.982 23.7193C101.134 23.0689 99.1181 23.9903 98.4897 25.7759C97.8612 27.5615 98.8524 29.5414 100.704 30.193Z" fill="white"/>
<path d="M85.1025 18.0291L79.5156 16.0627L70.0175 43.0491L86.7748 48.9469L88.6747 43.549L77.5042 39.6175L85.1025 18.0291Z" fill="white"/>
</g>
<g clip-path="url(#clip3_8503_7243)">
<path d="M604.529 245.06C610.163 246.828 615.471 249.636 620.065 253.345C626.988 258.895 632.26 266.456 635.11 274.851C636.366 278.535 637.153 282.376 637.464 286.257C637.532 286.908 637.514 287.607 637.154 288.179C636.613 289.163 635.393 289.704 634.303 289.437C633.152 289.212 632.261 288.132 632.234 286.964C631.722 278.946 628.793 271.107 623.955 264.692C620.969 260.712 617.26 257.274 613.06 254.601C607.648 251.147 601.439 248.962 595.057 248.26C585.952 247.234 576.542 249.347 568.742 254.14C565.441 256.155 562.428 258.635 559.813 261.482C559.228 262.151 558.3 262.511 557.419 262.354C556.561 262.226 555.784 261.642 555.435 260.847C555.007 259.953 555.163 258.821 555.809 258.073C563.044 250.13 573.119 244.864 583.756 243.363C590.692 242.361 597.846 242.958 604.529 245.06Z" fill="#F49813"/>
<path d="M587.058 271.208C587.195 270.712 587.782 270.511 588.241 270.659C588.837 270.852 589.428 271.065 590.018 271.282C590.424 271.441 590.808 271.884 590.644 272.345C588.756 277.776 586.813 283.189 584.934 288.626C587.993 286.957 591.066 285.307 594.13 283.648C594.716 283.372 595.288 282.845 595.984 283.027C596.908 283.31 597.813 283.653 598.724 283.976C599.087 284.068 599.366 284.528 599.11 284.859C598.865 285.098 598.53 285.203 598.233 285.357C595.009 286.9 591.777 288.431 588.561 289.988C589.934 293.411 591.265 296.85 592.624 300.279C592.786 300.756 593.042 301.203 593.144 301.701C593.211 302.087 592.774 302.373 592.423 302.267C591.65 302.043 590.905 301.733 590.139 301.483C589.747 301.335 589.299 301.243 589.012 300.913C588.71 300.563 588.617 300.094 588.461 299.673C587.234 296.127 586.026 292.575 584.789 289.031C583.807 291.751 582.863 294.483 581.902 297.209C581.782 297.52 581.713 297.922 581.358 298.055C580.774 298.323 580.176 297.946 579.621 297.782C579.144 297.595 578.541 297.502 578.274 297.007C578.115 296.76 578.16 296.449 578.259 296.194C581.197 287.866 584.12 279.534 587.058 271.208Z" fill="white"/>
<path d="M574.331 275.339C575.56 275.373 576.828 275.743 577.745 276.592C578.062 276.903 578.369 277.438 578.033 277.846C577.653 278.372 577.296 278.914 576.886 279.419C576.588 279.779 576.053 279.764 575.676 279.54C574.82 279.064 574.032 278.448 573.087 278.15C572.441 277.905 571.717 278.043 571.112 278.339C570.145 278.788 569.427 279.64 568.917 280.557C568.536 281.215 568.321 281.948 568.064 282.658C567.011 285.65 565.958 288.644 564.903 291.636C564.773 292.143 564.146 292.297 563.695 292.158C563.082 291.952 562.47 291.745 561.868 291.509C561.435 291.331 561.052 290.835 561.284 290.359C563.231 284.818 565.177 279.278 567.134 273.74C567.291 273.176 568.007 273.091 568.468 273.312C569.055 273.563 569.956 273.626 570.134 274.368C570.184 275.173 570.058 275.98 570.088 276.785C571.331 275.931 572.799 275.308 574.331 275.339Z" fill="white"/>
<path d="M511.941 253.855C512.179 253.72 512.451 253.58 512.727 253.699C513.557 253.983 514.394 254.257 515.208 254.586C515.624 254.746 515.784 255.217 515.708 255.629C515.357 259.224 514.991 262.818 514.637 266.412C514.515 267.518 514.448 268.631 514.237 269.725C514.069 270.715 513.767 271.674 513.589 272.663C514.268 271.401 514.929 270.124 515.748 268.946C518.198 265.37 520.647 261.794 523.098 258.219C523.339 257.797 523.875 257.627 524.326 257.785C525.255 258.086 526.173 258.427 527.095 258.752C527.597 258.902 528.025 259.377 527.966 259.925C527.744 263.083 527.511 266.243 527.285 269.402C527.107 271.436 527.088 273.492 526.685 275.502C526.574 276.055 526.461 276.61 526.385 277.172C527.741 274.268 529.546 271.613 531.22 268.892C532.571 266.733 533.911 264.568 535.268 262.411C535.512 261.968 536.094 261.907 536.528 262.074C537.275 262.333 538.029 262.574 538.76 262.874C539.198 263.042 539.28 263.62 538.985 263.959C535.549 268.947 532.117 273.94 528.68 278.928C528.444 279.342 527.937 279.552 527.483 279.4C526.314 279.031 525.167 278.595 524.009 278.195C523.586 278.074 523.227 277.699 523.307 277.237C523.608 273.081 523.931 268.926 524.242 264.77C524.336 263.319 524.668 261.898 524.99 260.485C524.374 261.627 523.847 262.823 523.107 263.897C520.683 267.436 518.252 270.974 515.826 274.512C515.484 275.103 514.716 274.975 514.191 274.744C513.124 274.346 512.034 274.013 510.977 273.591C510.594 273.457 510.404 273.056 510.462 272.671C510.887 266.647 511.319 260.623 511.742 254.601C511.774 254.343 511.867 254.1 511.941 253.855Z" fill="white"/>
<path d="M647.551 301.164C648.34 301.426 649.129 301.7 649.907 301.993C650.382 302.168 650.716 302.652 650.706 303.16C650.815 307.174 650.913 311.191 651.02 315.206C651.05 316.023 650.984 316.842 650.843 317.647C652.141 315.745 653.605 313.964 654.987 312.123C656.503 310.139 658.02 308.155 659.54 306.172C659.785 305.82 660.251 305.685 660.658 305.791C661.315 305.969 661.944 306.237 662.592 306.446C662.966 306.582 663.428 306.696 663.608 307.097C663.738 307.319 663.607 307.565 663.458 307.742C659.122 313.149 654.791 318.562 650.458 323.973C649.721 324.868 649.053 325.843 648.123 326.554C646.759 327.657 644.996 328.176 643.258 328.181C642.659 328.158 641.971 328.332 641.464 327.92C641.088 327.67 641.081 327.186 640.972 326.794C640.914 326.453 640.715 326.086 640.901 325.752C641.054 325.409 641.438 325.222 641.804 325.245C642.535 325.25 643.285 325.235 643.974 324.961C645.639 324.328 646.997 323.004 647.873 321.478C647.924 320.681 647.779 319.881 647.751 319.082C647.375 313.563 646.998 308.041 646.616 302.521C646.601 302.164 646.523 301.8 646.607 301.448C646.744 301.076 647.23 301.063 647.551 301.164Z" fill="white"/>
<path d="M550.497 269.61C549.297 269.422 548.024 269.761 547.101 270.558C545.577 271.84 544.78 273.753 544.177 275.603C543.66 277.287 543.304 279.153 543.892 280.869C544.327 282.157 545.448 283.122 546.719 283.547C547.92 284.013 549.338 284.05 550.487 283.417C551.944 282.637 552.844 281.16 553.518 279.706C554.102 278.251 554.662 276.756 554.786 275.178C554.91 273.851 554.695 272.405 553.811 271.356C552.997 270.354 551.736 269.844 550.497 269.61ZM551.898 267.146C553.979 267.738 555.965 268.913 557.222 270.71C558.35 272.309 558.792 274.316 558.647 276.251C558.472 278.56 557.677 280.81 556.417 282.749C555.244 284.533 553.462 285.976 551.362 286.485C549.109 287.054 546.703 286.56 544.649 285.548C542.902 284.68 541.403 283.253 540.605 281.46C539.66 279.369 539.677 276.951 540.273 274.766C540.917 272.336 542.159 269.962 544.185 268.407C545.693 267.231 547.633 266.66 549.539 266.758C550.337 266.786 551.125 266.946 551.898 267.146Z" fill="white"/>
<path d="M611.102 290.833C609.96 290.511 608.656 290.774 607.799 291.617C606.162 293.159 605.37 295.344 604.69 297.433C604.291 298.814 603.947 300.263 604.147 301.707C604.284 302.681 604.831 303.603 605.678 304.125C606.962 304.956 608.713 305.252 610.1 304.495C611.445 303.74 612.284 302.366 612.927 301.011C613.592 299.444 614.174 297.81 614.329 296.1C614.424 294.955 614.33 293.744 613.755 292.722C613.204 291.74 612.188 291.078 611.102 290.833ZM619.486 282.36C619.61 281.926 620.14 281.808 620.53 281.908C621.146 282.088 621.747 282.317 622.351 282.537C622.815 282.696 623.211 283.221 622.963 283.71C620.018 292.078 617.075 300.445 614.127 308.811C614.007 309.254 613.463 309.44 613.055 309.325C612.564 309.181 612.08 309.011 611.612 308.809C611.281 308.668 611.029 308.336 611.027 307.971C611.037 307.364 611.142 306.766 611.198 306.164C610.211 306.835 609.066 307.334 607.855 307.355C606.129 307.379 604.426 306.789 602.99 305.854C601.546 304.92 600.553 303.353 600.294 301.659C599.865 299.062 600.625 296.451 601.554 294.049C602.327 291.99 603.494 289.94 605.426 288.77C606.937 287.734 608.891 287.521 610.653 287.906C612.306 288.229 613.917 289.093 614.883 290.503C615.346 291.152 615.634 291.905 615.86 292.666C617.057 289.228 618.269 285.793 619.486 282.36Z" fill="white"/>
<path d="M632.781 298.581C632.181 298.497 631.559 298.531 630.982 298.722C629.829 299.108 628.984 300.069 628.362 301.072C627.405 302.675 626.782 304.458 626.349 306.267C626.067 307.608 625.908 309.089 626.515 310.368C626.998 311.442 628.049 312.143 629.149 312.47C630.296 312.921 631.659 312.915 632.729 312.266C634.066 311.463 634.861 310.049 635.497 308.677C636.172 307.038 636.774 305.329 636.876 303.543C636.934 302.429 636.745 301.234 636.033 300.337C635.258 299.321 634.004 298.811 632.781 298.581ZM632.032 295.741C633.802 295.862 635.538 296.444 637.036 297.39C638.426 298.273 639.545 299.621 640.033 301.206C640.563 302.842 640.497 304.615 640.143 306.281C639.89 307.572 639.401 308.798 638.967 310.036C638.181 312.27 637.394 314.503 636.603 316.734C636.531 317.015 636.274 317.195 636.002 317.259C635.546 317.358 635.117 317.092 634.689 316.971C634.221 316.802 633.59 316.626 633.506 316.048C633.459 315.387 633.632 314.729 633.685 314.07C632.786 314.612 631.857 315.172 630.791 315.293C629.162 315.49 627.554 314.879 626.172 314.066C624.481 313.068 623.186 311.406 622.703 309.498C622.113 307.266 622.452 304.886 623.225 302.743C623.947 300.643 625.12 298.622 626.909 297.26C628.351 296.139 630.216 295.616 632.032 295.741Z" fill="white"/>
<path d="M659.693 320.897C658.652 320.911 657.697 321.77 657.595 322.813C657.438 324.024 658.479 325.255 659.72 325.223C660.838 325.271 661.879 324.345 661.923 323.22C662.05 321.983 660.933 320.832 659.693 320.897ZM659.991 320.461C660.568 320.567 661.165 320.77 661.583 321.202C662.31 321.899 662.605 323.045 662.171 323.977C661.838 325.153 660.508 325.84 659.337 325.637C658 325.463 656.977 324.091 657.16 322.761C657.273 321.397 658.635 320.298 659.991 320.461Z" fill="white"/>
<path d="M659.754 321.953C659.66 322.214 659.567 322.474 659.478 322.739C659.712 322.805 659.943 322.902 660.191 322.919C660.435 322.906 660.508 322.628 660.514 322.427C660.37 322.134 660.023 322.075 659.754 321.953ZM659.212 321.284C659.86 321.555 660.667 321.629 661.133 322.208C661.487 322.737 660.978 323.439 660.377 323.415C660.388 323.883 660.47 324.344 660.531 324.807C660.278 324.724 660.031 324.642 659.783 324.559C659.733 324.132 659.688 323.702 659.648 323.274C659.54 323.233 659.435 323.195 659.331 323.156C659.199 323.523 659.07 323.89 658.941 324.258C658.708 324.173 658.48 324.089 658.25 324.006C658.572 323.099 658.888 322.189 659.212 321.284Z" fill="white"/>
</g>
<defs>
<linearGradient id="paint0_linear_8503_7243" x1="182.248" y1="396.865" x2="248.707" y2="404.574" gradientUnits="userSpaceOnUse">
<stop stop-color="#E6E6E6"/>
<stop offset="1" stop-color="#A5B0B5"/>
</linearGradient>
<linearGradient id="paint1_linear_8503_7243" x1="497.018" y1="399.665" x2="423.716" y2="399.665" gradientUnits="userSpaceOnUse">
<stop stop-color="#E6E6E6"/>
<stop offset="1" stop-color="#A5B0B5"/>
</linearGradient>
<linearGradient id="paint2_linear_8503_7243" x1="336.971" y1="412.798" x2="336.971" y2="311.099" gradientUnits="userSpaceOnUse">
<stop stop-color="#E6E6E6"/>
<stop offset="1" stop-color="#A5B0B5"/>
</linearGradient>
<linearGradient id="paint3_linear_8503_7243" x1="336.98" y1="494.91" x2="336.98" y2="374.892" gradientUnits="userSpaceOnUse">
<stop stop-color="#E6E6E6"/>
<stop offset="1" stop-color="#A5B0B5"/>
</linearGradient>
<linearGradient id="paint4_linear_8503_7243" x1="507.559" y1="207.556" x2="475.196" y2="207.556" gradientUnits="userSpaceOnUse">
<stop stop-color="#E6E6E6"/>
<stop offset="1" stop-color="#A5B0B5"/>
</linearGradient>
<linearGradient id="paint5_linear_8503_7243" x1="200.658" y1="207.556" x2="168.298" y2="207.556" gradientUnits="userSpaceOnUse">
<stop stop-color="#E6E6E6"/>
<stop offset="1" stop-color="#A5B0B5"/>
</linearGradient>
<linearGradient id="paint6_linear_8503_7243" x1="483.99" y1="207.559" x2="192.01" y2="207.559" gradientUnits="userSpaceOnUse">
<stop stop-color="#E6E6E6"/>
<stop offset="1" stop-color="#A5B0B5"/>
</linearGradient>
<linearGradient id="paint7_linear_8503_7243" x1="359.377" y1="399.754" x2="315.645" y2="440.139" gradientUnits="userSpaceOnUse">
<stop stop-color="#E6E6E6"/>
<stop offset="0.2" stop-color="#A5B0B5"/>
<stop offset="0.37" stop-color="#CCD1D3"/>
<stop offset="0.57" stop-color="#B5BEC2"/>
<stop offset="0.74" stop-color="white"/>
<stop offset="1" stop-color="#A5B0B5"/>
</linearGradient>
<radialGradient id="paint8_radial_8503_7243" cx="0" cy="0" r="1" gradientUnits="userSpaceOnUse" gradientTransform="translate(337.922 597.696) rotate(180) scale(76.2806 12.4542)">
<stop stop-color="white" stop-opacity="0.3"/>
<stop offset="0.92" stop-color="white" stop-opacity="0"/>
</radialGradient>
<clipPath id="clip0_8503_7243">
<rect width="106.364" height="60" fill="white" transform="translate(29.584 213.178) rotate(-19.39)"/>
</clipPath>
<clipPath id="clip1_8503_7243">
<rect width="185.045" height="50.1818" fill="white" transform="translate(450.041 74.916) rotate(-19.3909)"/>
</clipPath>
<clipPath id="clip2_8503_7243">
<rect width="173.295" height="45.75" fill="white" transform="translate(78.9512 6.53857) rotate(19.39)"/>
</clipPath>
<clipPath id="clip3_8503_7243">
<rect width="165" height="66" fill="white" transform="translate(524.912 217) rotate(19.39)"/>
</clipPath>
</defs>
</svg>
