<svg width="14" height="14" viewBox="0 0 14 14" fill="none" xmlns="http://www.w3.org/2000/svg">
<path d="M5.24992 9.43175L3.22576 7.40758C3.11669 7.29851 2.96875 7.23724 2.81451 7.23724C2.66026 7.23724 2.51233 7.29851 2.40326 7.40758C2.29419 7.51665 2.23291 7.66459 2.23291 7.81883C2.23291 7.89521 2.24795 7.97084 2.27718 8.0414C2.30641 8.11196 2.34925 8.17608 2.40326 8.23008L4.84159 10.6684C5.06909 10.8959 5.43659 10.8959 5.66409 10.6684L11.8358 4.49675C11.9448 4.38768 12.0061 4.23975 12.0061 4.0855C12.0061 3.93125 11.9448 3.78332 11.8358 3.67425C11.7267 3.56518 11.5788 3.50391 11.4245 3.50391C11.2703 3.50391 11.1223 3.56518 11.0133 3.67425L5.24992 9.43175Z" fill="#F8F9FF"/>
</svg>
