<svg width="16" height="16" viewBox="0 0 16 16" fill="none" xmlns="http://www.w3.org/2000/svg">
<path d="M12 8.66536H8.66666V11.9987C8.66666 12.1755 8.59642 12.3451 8.4714 12.4701C8.34637 12.5951 8.17681 12.6654 7.99999 12.6654C7.82318 12.6654 7.65361 12.5951 7.52859 12.4701C7.40357 12.3451 7.33333 12.1755 7.33333 11.9987V8.66536H3.99999C3.82318 8.66536 3.65361 8.59513 3.52859 8.4701C3.40357 8.34508 3.33333 8.17551 3.33333 7.9987C3.33333 7.82189 3.40357 7.65232 3.52859 7.52729C3.65361 7.40227 3.82318 7.33203 3.99999 7.33203H7.33333V3.9987C7.33333 3.82189 7.40357 3.65232 7.52859 3.52729C7.65361 3.40227 7.82318 3.33203 7.99999 3.33203C8.17681 3.33203 8.34637 3.40227 8.4714 3.52729C8.59642 3.65232 8.66666 3.82189 8.66666 3.9987V7.33203H12C12.1768 7.33203 12.3464 7.40227 12.4714 7.52729C12.5964 7.65232 12.6667 7.82189 12.6667 7.9987C12.6667 8.17551 12.5964 8.34508 12.4714 8.4701C12.3464 8.59513 12.1768 8.66536 12 8.66536Z" fill="#5A5C5D"/>
</svg>
