<svg width="16" height="16" viewBox="0 0 16 16" fill="none" xmlns="http://www.w3.org/2000/svg">
<path d="M12.2001 3.80657C12.1385 3.74477 12.0652 3.69574 11.9846 3.66228C11.9039 3.62883 11.8175 3.61161 11.7301 3.61161C11.6428 3.61161 11.5564 3.62883 11.4757 3.66228C11.3951 3.69574 11.3218 3.74477 11.2601 3.80657L8.00015 7.05991L4.74015 3.7999C4.67843 3.73818 4.60515 3.68922 4.52451 3.65582C4.44387 3.62242 4.35744 3.60522 4.27015 3.60522C4.18286 3.60522 4.09643 3.62242 4.01579 3.65582C3.93514 3.68922 3.86187 3.73818 3.80015 3.7999C3.73843 3.86163 3.68947 3.9349 3.65606 4.01554C3.62266 4.09619 3.60547 4.18262 3.60547 4.26991C3.60547 4.35719 3.62266 4.44362 3.65606 4.52427C3.68947 4.60491 3.73843 4.67818 3.80015 4.73991L7.06015 7.99991L3.80015 11.2599C3.73843 11.3216 3.68947 11.3949 3.65606 11.4755C3.62266 11.5562 3.60547 11.6426 3.60547 11.7299C3.60547 11.8172 3.62266 11.9036 3.65606 11.9843C3.68947 12.0649 3.73843 12.1382 3.80015 12.1999C3.86187 12.2616 3.93514 12.3106 4.01579 12.344C4.09643 12.3774 4.18286 12.3946 4.27015 12.3946C4.35744 12.3946 4.44387 12.3774 4.52451 12.344C4.60515 12.3106 4.67843 12.2616 4.74015 12.1999L8.00015 8.9399L11.2601 12.1999C11.3219 12.2616 11.3951 12.3106 11.4758 12.344C11.5564 12.3774 11.6429 12.3946 11.7301 12.3946C11.8174 12.3946 11.9039 12.3774 11.9845 12.344C12.0652 12.3106 12.1384 12.2616 12.2001 12.1999C12.2619 12.1382 12.3108 12.0649 12.3442 11.9843C12.3776 11.9036 12.3948 11.8172 12.3948 11.7299C12.3948 11.6426 12.3776 11.5562 12.3442 11.4755C12.3108 11.3949 12.2619 11.3216 12.2001 11.2599L8.94015 7.99991L12.2001 4.73991C12.4535 4.48657 12.4535 4.0599 12.2001 3.80657Z" fill="#F8F9FF"/>
</svg>
