<svg width="16" height="16" viewBox="0 0 16 16" fill="none" xmlns="http://www.w3.org/2000/svg">
<path d="M7.99967 14.6666C9.84061 14.6666 11.5073 13.9204 12.7137 12.714C13.9201 11.5075 14.6663 9.84085 14.6663 7.99992C14.6663 6.15899 13.9201 4.49232 12.7137 3.28587C11.5073 2.07945 9.84061 1.33325 7.99967 1.33325C6.15874 1.33325 4.49207 2.07945 3.28563 3.28587C2.0792 4.49232 1.33301 6.15899 1.33301 7.99992C1.33301 9.84085 2.0792 11.5075 3.28563 12.714C4.49207 13.9204 6.15874 14.6666 7.99967 14.6666Z" fill="#F8F9FF" fill-opacity="0.2"/>
<path fill-rule="evenodd" clip-rule="evenodd" d="M11.8041 5.52851C12.0644 5.78886 12.0644 6.21097 11.8041 6.47132L7.80409 10.4713C7.54374 10.7317 7.12163 10.7317 6.86128 10.4713L4.86128 8.47132C4.60093 8.21097 4.60093 7.78886 4.86128 7.52851C5.12163 7.26816 5.54374 7.26816 5.80409 7.52851L7.33268 9.05711L10.8613 5.52851C11.1216 5.26816 11.5437 5.26816 11.8041 5.52851Z" fill="white" fill-opacity="0.8"/>
</svg>
