<svg width="20" height="20" viewBox="0 0 20 20" fill="none" xmlns="http://www.w3.org/2000/svg">
<path d="M9.99935 18.3334C12.3005 18.3334 14.3839 17.4007 15.8919 15.8926C17.3999 14.3846 18.3327 12.3012 18.3327 10.0001C18.3327 7.69892 17.3999 5.61558 15.8919 4.10752C14.3839 2.59949 12.3005 1.66675 9.99935 1.66675C7.69818 1.66675 5.61485 2.59949 4.10679 4.10752C2.59876 5.61558 1.66602 7.69892 1.66602 10.0001C1.66602 12.3012 2.59876 14.3846 4.10679 15.8926C5.61485 17.4007 7.69818 18.3334 9.99935 18.3334Z" fill="#131D26"/>
<path fill-rule="evenodd" clip-rule="evenodd" d="M14.7546 6.91083C15.0801 7.23626 15.0801 7.7639 14.7546 8.08934L9.75462 13.0893C9.42918 13.4148 8.90155 13.4148 8.57611 13.0893L6.07611 10.5893C5.75067 10.2639 5.75067 9.73626 6.07611 9.41083C6.40155 9.08539 6.92918 9.08539 7.25462 9.41083L9.16536 11.3216L13.5761 6.91083C13.9015 6.58539 14.4292 6.58539 14.7546 6.91083Z" fill="#F8F9FF"/>
</svg>
