<svg width="66" height="18" viewBox="0 0 66 18" fill="none" xmlns="http://www.w3.org/2000/svg">
<path fill-rule="evenodd" clip-rule="evenodd" d="M65.3827 3.21377C65.1517 2.94827 64.8408 2.81777 64.4278 2.81777C64.0148 2.81777 63.6906 2.95727 63.4641 3.24977C63.242 3.53327 63.1266 3.95627 63.1266 4.50077V8.49677C62.6114 7.93427 62.0784 7.53377 61.5322 7.26377C61.1947 7.09727 60.795 6.97577 60.3464 6.91727C60.0844 6.88577 59.8223 6.86777 59.5292 6.86777C58.1702 6.86777 57.0688 7.34027 56.225 8.29427C55.3901 9.23927 54.9726 10.5578 54.9726 12.2453C54.9726 13.0418 55.0792 13.7888 55.2924 14.4728C55.5055 15.1523 55.8075 15.7508 56.2161 16.2638C56.6247 16.7678 57.1177 17.1593 57.6728 17.4428C58.228 17.7173 58.8364 17.8568 59.4981 17.8568C59.8001 17.8568 60.0888 17.8298 60.3508 17.7803C60.5329 17.7533 60.6928 17.7038 60.866 17.6543C61.2835 17.5148 61.6743 17.3123 62.0296 17.0558C62.3982 16.7903 62.7579 16.4528 63.1266 16.0343V16.2998C63.1266 16.7993 63.2509 17.1773 63.4952 17.4518C63.7483 17.7173 64.0592 17.8568 64.4278 17.8568C64.8142 17.8568 65.1251 17.7263 65.3605 17.4743C65.5958 17.2088 65.7291 16.8263 65.7291 16.3043V4.35677C65.7158 3.86177 65.6047 3.47027 65.3827 3.21377ZM62.6158 14.2433C62.3804 14.7473 62.0518 15.1298 61.6654 15.3773C61.2657 15.6248 60.8305 15.7418 60.3464 15.7418H60.3375C59.8534 15.7418 59.4226 15.6113 59.0185 15.3593C58.6188 15.0938 58.299 14.7113 58.0681 14.1983C57.8371 13.6853 57.7261 13.0553 57.7261 12.3263C57.7261 11.6288 57.8327 11.0168 58.0548 10.5038C58.2679 9.98177 58.5788 9.57677 58.9696 9.29327C59.3693 9.00527 59.8135 8.87027 60.3197 8.87027H60.3464C60.8216 8.87027 61.2524 9.00978 61.6565 9.28428C62.0562 9.55877 62.376 9.95477 62.6114 10.4678C62.8468 10.9808 62.9622 11.6108 62.9622 12.3263C62.9711 13.0913 62.8556 13.7303 62.6158 14.2433ZM53.9822 14.3603C53.809 14.2118 53.5825 14.1353 53.2938 14.1353C53.0318 14.1353 52.8453 14.2028 52.6987 14.3108C52.3568 14.6258 52.077 14.8823 51.8638 15.0668C51.6506 15.2423 51.4152 15.4133 51.1532 15.5798C50.9089 15.7373 50.638 15.8633 50.3671 15.9263C50.0873 16.0028 49.7942 16.0433 49.4656 16.0433C49.3901 16.0433 49.3279 16.0433 49.2613 16.0343C48.8527 16.0073 48.4663 15.8948 48.1243 15.6878C47.7157 15.4493 47.396 15.0983 47.1428 14.6438C46.9075 14.1713 46.7742 13.6223 46.7653 13.0103H52.1391C52.8586 13.0103 53.4137 12.9023 53.809 12.7133C54.2087 12.5063 54.4041 12.0653 54.4041 11.3858C54.4041 10.6478 54.2087 9.92777 53.8223 9.22127C53.436 8.51477 52.8719 7.93877 52.0947 7.49777C51.3264 7.05227 50.4115 6.83627 49.3368 6.83627H49.2568C48.4619 6.84527 47.7335 6.97577 47.0896 7.22777C46.4101 7.49327 45.846 7.86677 45.3708 8.34827C44.9223 8.83877 44.5625 9.42377 44.3227 10.1123C44.0829 10.8008 43.9541 11.5478 43.9541 12.3398C43.9541 14.0408 44.4471 15.3728 45.4197 16.3673C46.3434 17.3033 47.618 17.8028 49.248 17.8523C49.3368 17.8613 49.4345 17.8613 49.5322 17.8613C50.2916 17.8613 50.98 17.7623 51.5751 17.5643C52.1702 17.3663 52.6632 17.1188 53.054 16.8173C53.4448 16.5113 53.7424 16.1963 53.9289 15.8723C54.1243 15.5483 54.222 15.2603 54.222 15.0173C54.2487 14.7248 54.1599 14.5043 53.9822 14.3603ZM47.5825 9.40578C48.0177 8.94228 48.5818 8.70827 49.2657 8.70827H49.2746C49.9852 8.70827 50.567 8.93328 51.0022 9.38777C51.4374 9.84227 51.6995 10.5398 51.7528 11.4668H46.7787C46.8719 10.5578 47.134 9.86928 47.5825 9.40578ZM42.3109 14.1308C42.04 14.1308 41.8534 14.1983 41.7069 14.3063C41.3693 14.6213 41.0851 14.8778 40.8719 15.0623C40.6588 15.2378 40.4323 15.4088 40.1702 15.5753C39.9171 15.7328 39.6551 15.8588 39.3753 15.9218C39.1043 15.9983 38.8023 16.0388 38.4737 16.0388C38.3982 16.0388 38.336 16.0388 38.2694 16.0298C37.8608 16.0028 37.4744 15.8903 37.1325 15.6833C36.7328 15.4448 36.4041 15.0938 36.1687 14.6393C35.9156 14.1668 35.7912 13.6178 35.7824 13.0058H41.1473C41.8579 13.0058 42.413 12.8978 42.8172 12.7088C43.208 12.5018 43.4078 12.0608 43.4078 11.3813C43.4078 10.6433 43.2213 9.92327 42.8349 9.21677C42.4485 8.51027 41.8801 7.93427 41.1073 7.49327C40.339 7.04777 39.4152 6.83177 38.3494 6.83177H38.2605C37.4656 6.84077 36.7461 6.97127 36.0932 7.22327C35.4137 7.48877 34.8497 7.86227 34.3834 8.34377C33.926 8.83427 33.5662 9.41928 33.3264 10.1078C33.0821 10.7963 32.9578 11.5433 32.9578 12.3353C32.9578 14.0363 33.4552 15.3683 34.4323 16.3628C35.356 17.2988 36.6262 17.7983 38.2516 17.8478C38.3493 17.8568 38.4382 17.8568 38.5359 17.8568C39.3042 17.8568 39.9837 17.7578 40.5788 17.5598C41.1739 17.3618 41.6669 17.1143 42.0533 16.8128C42.453 16.5068 42.7417 16.1918 42.9371 15.8678C43.1325 15.5438 43.2302 15.2558 43.2302 15.0128C43.2302 14.7383 43.1414 14.5223 42.9682 14.3738C42.8172 14.2028 42.5773 14.1308 42.3109 14.1308ZM36.5818 9.40578C37.017 8.94228 37.581 8.70827 38.265 8.70827H38.2739C38.9844 8.70827 39.5662 8.93328 40.0015 9.38777C40.4411 9.84227 40.6987 10.5398 40.7609 11.4668H35.7824C35.8801 10.5578 36.151 9.86928 36.5818 9.40578ZM5.9911 16.0433V9.58577C6.17763 9.60378 6.35971 9.61277 6.53736 9.61277C7.43003 9.61277 8.26497 9.37428 8.97556 8.96027V16.0478C8.97556 16.6508 8.83788 17.1008 8.55809 17.3978C8.27829 17.6948 7.91856 17.8433 7.47 17.8433C7.03477 17.8433 6.68392 17.6948 6.40857 17.3888C6.1421 17.0783 5.9911 16.6418 5.9911 16.0433ZM31.8253 3.21377C31.5944 2.94827 31.279 2.81777 30.8749 2.81777C30.4574 2.81777 30.1377 2.95727 29.9112 3.24977C29.6802 3.53327 29.5736 3.95627 29.5736 4.50077V8.49677C29.0585 7.93427 28.5255 7.53377 27.9793 7.26377C27.6373 7.09727 27.242 6.97577 26.8023 6.91727C26.5492 6.88577 26.2783 6.86777 25.9852 6.86777C24.6262 6.86777 23.5159 7.34027 22.681 8.29427C21.846 9.23927 21.4286 10.5578 21.4286 12.2453C21.4286 13.0418 21.5351 13.7888 21.7394 14.4728C21.9526 15.1523 22.2635 15.7508 22.6721 16.2638C23.0807 16.7678 23.5736 17.1593 24.1288 17.4428C24.6928 17.7173 25.2924 17.8568 25.9541 17.8568C26.2472 17.8568 26.5359 17.8298 26.8068 17.7803C26.9889 17.7533 27.1488 17.7038 27.322 17.6543C27.7394 17.5148 28.1303 17.3123 28.4855 17.0558C28.8542 16.7903 29.205 16.4528 29.5825 16.0343V16.2998C29.5825 16.7993 29.7069 17.1773 29.9511 17.4518C30.1865 17.7173 30.5152 17.8568 30.8838 17.8568C31.2524 17.8568 31.5722 17.7263 31.8075 17.4743C32.0429 17.2088 32.1584 16.8263 32.1584 16.3043V4.35677C32.1495 3.86177 32.0429 3.47027 31.8253 3.21377ZM29.0673 14.2433C28.832 14.7473 28.5033 15.1298 28.1125 15.3773C27.7217 15.6248 27.2776 15.7418 26.8023 15.7418H26.7935C26.3094 15.7418 25.8786 15.6113 25.4744 15.3593C25.0659 15.0938 24.755 14.7113 24.524 14.1983C24.2931 13.6853 24.1821 13.0553 24.1821 12.3263C24.1821 11.6288 24.2887 11.0168 24.5018 10.5038C24.7239 9.98177 25.0259 9.57677 25.4256 9.29327C25.8164 9.00527 26.2694 8.87027 26.7668 8.87027H26.7979C27.2731 8.87027 27.7039 9.00978 28.0992 9.28428C28.5078 9.55877 28.8275 9.95477 29.0629 10.4678C29.2938 10.9808 29.4137 11.6108 29.4137 12.3263C29.4182 13.0913 29.2938 13.7303 29.0673 14.2433ZM13.3634 8.33477V8.66778C13.8564 8.03778 14.376 7.58327 14.94 7.28177C15.5218 6.99377 16.1747 6.84077 16.9208 6.84077C17.6402 6.84077 18.2887 6.99827 18.8571 7.30427C19.43 7.61027 19.8475 8.05127 20.1229 8.62278C20.3094 8.95578 20.4249 9.32027 20.4737 9.69827C20.5226 10.0718 20.5536 10.5668 20.5536 11.1653V16.1873C20.5536 16.7363 20.4249 17.1413 20.1673 17.4158C19.923 17.6993 19.5855 17.8388 19.1858 17.8388C18.7772 17.8388 18.4485 17.6993 18.1865 17.4068C17.9245 17.1233 17.8001 16.7183 17.8001 16.1873V11.6873C17.8001 10.7918 17.6758 10.1123 17.4226 9.63977C17.1784 9.16727 16.6721 8.92877 15.9171 8.92877C15.4241 8.92877 14.9844 9.07727 14.5847 9.36077C14.185 9.64877 13.883 10.0403 13.6921 10.5533C13.5633 10.9583 13.4967 11.7053 13.4967 12.8168V16.1918C13.4967 16.7453 13.3679 17.1458 13.1058 17.4248C12.8438 17.6993 12.5152 17.8388 12.1066 17.8388C11.7069 17.8388 11.3871 17.6993 11.1251 17.4068C10.863 17.1233 10.7387 16.7183 10.7387 16.1873V8.37977C10.7387 7.86677 10.8542 7.47527 11.0807 7.22777C11.3027 6.97127 11.6136 6.83627 12.0133 6.83627C12.2487 6.83627 12.4619 6.88577 12.6573 7.00277C12.8527 7.11977 13.0081 7.28627 13.1325 7.50677C13.3146 7.74977 13.3634 8.01977 13.3634 8.33477ZM6.00886 0.572274C7.85638 -0.0847257 9.97037 -0.0487256 11.547 1.30127C11.8401 1.57577 12.1776 1.91327 12.3064 2.32277C12.4707 2.82677 11.7513 2.27327 11.6447 2.19677C11.1295 1.86377 10.6143 1.58477 10.0325 1.39127C6.92374 0.446274 3.97926 2.15177 2.1495 4.81577C1.39895 5.98577 0.897095 7.21877 0.488509 8.57778C0.448539 8.72627 0.408568 8.91978 0.324186 9.05027C0.244246 9.19878 0.293098 8.65427 0.293098 8.62727C0.359716 8.06477 0.475186 7.52478 0.612861 6.98027C1.46112 4.09127 3.32641 1.67927 6.00886 0.572274ZM9.59288 5.77427C9.59288 7.00277 8.61138 8.00177 7.39895 8.00177C6.18651 8.00177 5.20502 7.00727 5.20502 5.77427C5.20502 4.54127 6.18651 3.54677 7.39895 3.54677C8.61138 3.54677 9.59288 4.54127 9.59288 5.77427Z" fill="#2164F2"/>
</svg>
