<svg width="102" height="143" viewBox="0 0 102 143" fill="none" xmlns="http://www.w3.org/2000/svg">
<path d="M30.2311 74.5774C27.774 89.4613 16.5562 101.466 11.6614 106.073C6.34816 111.073 0.611628 110.229 0.075304 100.098C-0.338024 92.278 0.977041 83.3755 3.54926 75.4181C5.80397 68.4428 9.61545 61.8112 15.0202 57.5738C16.3739 56.5121 17.9514 55.8721 19.5832 55.6955C23.7508 55.2468 27.6281 57.9124 29.1012 62.2483C30.4106 66.1034 30.9118 70.4597 30.2318 74.5774H30.2311Z" fill="url(#paint0_linear_7142_85684)"/>
<path d="M71.5466 74.5774C72.3833 79.6474 74.2368 84.3833 76.5108 88.6068C76.7275 89.0103 76.9485 89.408 77.173 89.8021C81.4951 97.3903 87.0478 103.186 90.1163 106.073C95.4288 111.074 101.166 110.228 101.703 100.098C102.116 92.278 100.801 83.3755 98.2291 75.4181C98.1326 75.1182 98.0325 74.819 97.9295 74.5205C97.7586 74.0229 97.5791 73.5259 97.391 73.0334C95.0791 66.952 91.5422 61.3252 86.7582 57.5738C85.4052 56.5128 83.8277 55.8721 82.1959 55.6955C78.0276 55.2468 74.151 57.9124 72.6779 62.2483C71.3685 66.1034 70.8673 70.4604 71.5473 74.5774H71.5466Z" fill="url(#paint1_linear_7142_85684)"/>
<path opacity="0.1" d="M76.5111 88.6069C76.7278 89.0104 76.9488 89.4081 77.1733 89.8021C85.3633 86.7811 92.3098 81.6688 97.9291 74.5199C97.7582 74.0222 97.5787 73.5253 97.3906 73.0327C94.2706 77.1278 90.7094 80.5764 86.7628 83.3201C83.6221 85.5027 80.1946 87.2693 76.5111 88.6069Z" fill="#131E2E"/>
<path opacity="0.1" d="M25.2659 88.6069C25.0492 89.0104 24.8282 89.4081 24.6037 89.8021C16.4136 86.7811 9.46716 81.6688 3.8479 74.5199C4.01881 74.0222 4.1983 73.5253 4.38637 73.0327C7.50635 77.1278 11.0675 80.5764 15.0142 83.3201C18.1549 85.5027 21.5824 87.2693 25.2659 88.6069Z" fill="#131E2E"/>
<path d="M16.3273 76.5004C16.3273 81.8163 17.1182 87.268 18.5613 92.5197C35.6443 107.812 62.389 107.274 82.635 92.5036C84.0759 87.257 84.8654 81.8112 84.8654 76.5004C84.8654 53.0834 69.5222 49.24 50.5963 49.24C31.6705 49.24 16.3273 53.0834 16.3273 76.5004Z" fill="url(#paint2_linear_7142_85684)"/>
<path d="M18.562 92.5188C23.479 110.399 35.9668 125.961 50.5963 125.961C65.2259 125.961 77.7222 110.389 82.6357 92.502C81.8891 92.4699 81.1426 92.4035 80.4017 92.2999C74.7817 91.5169 69.4628 88.6557 65.6535 84.3672C63.1821 81.5856 61.3471 78.253 58.7721 75.5713C58.7506 75.5487 58.7299 75.5276 58.7084 75.5057C54.3949 71.0632 47.3441 71.0632 43.0306 75.5057C43.0091 75.5276 42.9884 75.5487 42.9669 75.5713C40.3919 78.253 38.5569 81.5856 36.0855 84.3672C32.2762 88.6565 26.9573 91.5169 21.3373 92.2999C20.4177 92.4283 19.4909 92.5006 18.5634 92.5181L18.562 92.5188Z" fill="url(#paint3_linear_7142_85684)"/>
<path d="M89.8931 37.6045C94.9746 37.6045 99.0936 33.1854 99.0936 27.7345C99.0936 22.2836 94.9746 17.8645 89.8931 17.8645V37.6038V37.6045Z" fill="url(#paint4_linear_7142_85684)"/>
<path d="M11.8431 37.6045C6.76164 37.6045 2.64266 33.1854 2.64266 27.7345C2.64266 22.2836 6.76164 17.8645 11.8431 17.8645V37.6038V37.6045Z" fill="url(#paint5_linear_7142_85684)"/>
<path d="M9.38449 29.6706C9.38449 50.3031 27.9664 55.4709 50.8889 55.4709C73.8107 55.4709 92.3933 50.3031 92.3933 29.6706V25.8003C92.3926 5.16779 73.8107 0 50.8889 0C27.9671 0 9.38449 5.16779 9.38449 25.8003V29.6706Z" fill="url(#paint6_linear_7142_85684)"/>
<path d="M17.8614 32.0245C17.8614 43.4685 32.6389 46.3348 50.8682 46.3348C69.0976 46.3348 83.8751 43.4685 83.8751 32.0245V29.8777C83.8751 18.4337 69.0976 15.5674 50.8682 15.5674C32.6389 15.5674 17.8614 18.4337 17.8614 29.8777V32.0245Z" fill="#131C27"/>
<path d="M59.8104 33.169C59.6073 33.9768 60.336 34.7087 61.1269 34.4971C62.9476 34.0096 64.814 33.7659 66.6811 33.7659C68.5482 33.7659 70.4147 34.0096 72.2353 34.4971C73.0255 34.7087 73.7542 33.9768 73.5518 33.169C72.7673 30.0437 69.9885 27.7341 66.6811 27.7341C63.3738 27.7341 60.5956 30.0444 59.8104 33.169Z" fill="#F6D155"/>
<path d="M41.9267 33.169C42.1298 33.9768 41.4011 34.7087 40.6102 34.4971C38.7896 34.0096 36.9231 33.7659 35.056 33.7659C33.1889 33.7659 31.3225 34.0096 29.5018 34.4971C28.7117 34.7087 27.983 33.9768 28.1853 33.169C28.9698 30.0437 31.7487 27.7341 35.056 27.7341C38.3634 27.7341 41.1415 30.0444 41.9267 33.169Z" fill="#F6D155"/>
<path opacity="0.76" d="M17.8612 29.8777V32.0237C17.8612 32.1514 17.8633 32.2784 17.8669 32.4039C18.1901 21.2752 32.8418 18.4731 50.8673 18.4731C68.8929 18.4731 83.5453 21.2759 83.8685 32.4039C83.8728 32.2784 83.8742 32.1514 83.8742 32.0237V29.8777C83.8742 18.4329 69.0967 15.5674 50.8666 15.5674C32.6366 15.5674 17.8605 18.4329 17.8605 29.8777H17.8612Z" fill="#131E2E"/>
<path d="M32.3764 1.55793C34.3572 3.50697 35.668 6.1383 36.2787 9.52487C36.471 10.5961 37.3971 11.3659 38.4633 11.3659H63.3145C64.3807 11.3659 65.3067 10.5954 65.5005 9.52487C66.1105 6.1383 67.4213 3.50624 69.4021 1.55865C63.8286 0.435635 57.5414 0 50.8889 0C44.2363 0 37.9491 0.435635 32.3764 1.55793Z" fill="#FBD050"/>
<path d="M32.3764 1.55786C34.3572 3.50691 35.668 6.13823 36.2787 9.5248C36.471 10.596 37.3971 11.3659 38.4633 11.3659H63.3145C64.3807 11.3659 65.3067 10.5953 65.5005 9.5248C66.1105 6.13823 67.4213 3.50618 69.4021 1.55859C66.7298 3.17854 65.1694 4.5555 64.5973 7.73264C64.4171 8.73745 63.5476 9.45986 62.5479 9.45986H39.232C38.2316 9.45986 37.3628 8.73672 37.1825 7.73264C36.6098 4.55477 34.99 2.4211 32.3778 1.55713L32.3764 1.55786Z" fill="#141E26"/>
<path d="M50.8683 97.3276C45.9489 97.3276 41.961 93.2582 41.961 88.2384C41.961 83.2186 45.9489 79.1492 50.8683 79.1492C55.7876 79.1492 59.7756 83.2186 59.7756 88.2384C59.7756 93.2582 55.7876 97.3276 50.8683 97.3276Z" fill="url(#paint7_linear_7142_85684)"/>
<path d="M50.8677 95.5106C46.9334 95.5106 43.7439 92.256 43.7439 88.2413C43.7439 84.2265 46.9334 80.9719 50.8677 80.9719C54.8021 80.9719 57.9916 84.2265 57.9916 88.2413C57.9916 92.256 54.8021 95.5106 50.8677 95.5106Z" fill="#FBD050"/>
<path opacity="0.1" d="M43.7439 88.2413C43.7439 88.474 43.7546 88.7046 43.7761 88.9316C44.1165 85.24 47.1614 82.3518 50.8677 82.3518C54.5741 82.3518 57.619 85.24 57.9594 88.9316C57.9816 88.7046 57.9916 88.474 57.9916 88.2413C57.9916 84.2257 54.8022 80.9719 50.8677 80.9719C46.9333 80.9719 43.7439 84.2257 43.7439 88.2413Z" fill="#131E2E"/>
<path opacity="0.63" d="M50.8667 143C38.3254 143 28.1587 141.103 28.1587 138.764C28.1587 136.424 38.3254 134.527 50.8667 134.527C63.408 134.527 73.5747 136.424 73.5747 138.764C73.5747 141.103 63.408 143 50.8667 143Z" fill="url(#paint8_radial_7142_85684)"/>
<defs>
<linearGradient id="paint0_linear_7142_85684" x1="6.60929" y1="81.5542" x2="25.5031" y2="83.7457" gradientUnits="userSpaceOnUse">
<stop stop-color="#E6E6E6"/>
<stop offset="1" stop-color="#A5B0B5"/>
</linearGradient>
<linearGradient id="paint1_linear_7142_85684" x1="96.0967" y1="82.3503" x2="75.2573" y2="82.3503" gradientUnits="userSpaceOnUse">
<stop stop-color="#E6E6E6"/>
<stop offset="1" stop-color="#A5B0B5"/>
</linearGradient>
<linearGradient id="paint2_linear_7142_85684" x1="50.5963" y1="86.0836" x2="50.5963" y2="57.1712" gradientUnits="userSpaceOnUse">
<stop stop-color="#E6E6E6"/>
<stop offset="1" stop-color="#A5B0B5"/>
</linearGradient>
<linearGradient id="paint3_linear_7142_85684" x1="50.5985" y1="109.428" x2="50.5985" y2="75.3072" gradientUnits="userSpaceOnUse">
<stop stop-color="#E6E6E6"/>
<stop offset="1" stop-color="#A5B0B5"/>
</linearGradient>
<linearGradient id="paint4_linear_7142_85684" x1="99.0936" y1="27.7345" x2="89.8931" y2="27.7345" gradientUnits="userSpaceOnUse">
<stop stop-color="#E6E6E6"/>
<stop offset="1" stop-color="#A5B0B5"/>
</linearGradient>
<linearGradient id="paint5_linear_7142_85684" x1="11.8431" y1="27.7345" x2="2.64338" y2="27.7345" gradientUnits="userSpaceOnUse">
<stop stop-color="#E6E6E6"/>
<stop offset="1" stop-color="#A5B0B5"/>
</linearGradient>
<linearGradient id="paint6_linear_7142_85684" x1="92.3926" y1="27.7354" x2="9.38449" y2="27.7354" gradientUnits="userSpaceOnUse">
<stop stop-color="#E6E6E6"/>
<stop offset="1" stop-color="#A5B0B5"/>
</linearGradient>
<linearGradient id="paint7_linear_7142_85684" x1="56.9659" y1="82.3752" x2="44.5331" y2="93.8565" gradientUnits="userSpaceOnUse">
<stop stop-color="#E6E6E6"/>
<stop offset="0.2" stop-color="#A5B0B5"/>
<stop offset="0.37" stop-color="#CCD1D3"/>
<stop offset="0.57" stop-color="#B5BEC2"/>
<stop offset="0.74" stop-color="white"/>
<stop offset="1" stop-color="#A5B0B5"/>
</linearGradient>
<radialGradient id="paint8_radial_7142_85684" cx="0" cy="0" r="1" gradientUnits="userSpaceOnUse" gradientTransform="translate(50.8667 138.649) rotate(180) scale(21.6861 3.54066)">
<stop stop-color="white" stop-opacity="0.3"/>
<stop offset="0.92" stop-color="white" stop-opacity="0"/>
</radialGradient>
</defs>
</svg>
