<svg width="9" height="14" viewBox="0 0 9 14" fill="none" xmlns="http://www.w3.org/2000/svg">
<path fill-rule="evenodd" clip-rule="evenodd" d="M7.70709 0.959934C7.89436 1.14743 7.99954 1.4016 7.99954 1.6666C7.99954 1.9316 7.89436 2.18577 7.70709 2.37327L3.08042 6.99993L7.70709 11.6266C7.80534 11.7182 7.88414 11.8286 7.9388 11.9512C7.99345 12.0739 8.02284 12.2063 8.02521 12.3406C8.02758 12.4748 8.00288 12.6082 7.95259 12.7327C7.90229 12.8572 7.82743 12.9704 7.73247 13.0653C7.63751 13.1603 7.5244 13.2351 7.39989 13.2854C7.27537 13.3357 7.142 13.3604 7.00773 13.3581C6.87346 13.3557 6.74104 13.3263 6.61837 13.2716C6.49571 13.217 6.38531 13.1382 6.29376 13.0399L0.960423 7.7066C0.773155 7.5191 0.667969 7.26494 0.667969 6.99993C0.667969 6.73493 0.773155 6.48077 0.960423 6.29327L6.29376 0.959934C6.48126 0.772666 6.73542 0.66748 7.00042 0.66748C7.26542 0.66748 7.51959 0.772666 7.70709 0.959934Z" fill="#5A5C5D"/>
</svg>
