<svg width="64" height="17" viewBox="0 0 64 17" fill="none" xmlns="http://www.w3.org/2000/svg">
<path fill-rule="evenodd" clip-rule="evenodd" d="M61.4915 1.14258H48.4454C47.8216 1.14258 47.291 1.62229 47.291 2.21385V14.9535C47.291 15.5451 47.6387 16.0248 48.2626 16.0248H61.3087C61.9339 16.0248 62.5999 15.5451 62.5999 14.9535V2.21385C62.5999 1.62353 62.1154 1.14258 61.4915 1.14258ZM53.1231 6.8121H55.1839V7.83366H55.2069C55.5214 7.28311 56.4495 6.72386 57.5962 6.72386C59.7989 6.72386 60.4126 7.861 60.4126 9.96625V13.8996H58.2252V10.354C58.2252 9.41198 57.8379 8.58429 56.9327 8.58429C55.8333 8.58429 55.3092 9.30759 55.3092 10.4957V13.8996H53.1218V6.8121H53.1231ZM49.4784 13.8996H51.6657V6.81334H49.4784V13.8996ZM51.938 4.33277C51.938 5.06725 51.3269 5.66129 50.5714 5.66129C49.8159 5.66129 49.2048 5.06725 49.2048 4.33277C49.2048 3.59829 49.8159 3.00425 50.5714 3.00425C51.3269 3.00425 51.938 3.59829 51.938 4.33277Z" fill="#0A66C2"/>
<path d="M45.1036 13.8982H43.062V13.0544H43.0403C42.5864 13.5664 41.7977 13.9865 40.4605 13.9865C38.6375 13.9865 37.0688 12.653 37.0688 10.3626C37.0688 8.18025 38.6157 6.72248 40.5295 6.72248C41.7146 6.72248 42.4497 7.1326 42.8945 7.65456H42.9163V3.26758H45.1036V13.8982ZM41.0792 8.31696C39.8289 8.31696 39.1258 9.18317 39.1258 10.3365C39.1258 11.4898 39.8289 12.392 41.0792 12.392C42.3308 12.392 43.0633 11.5121 43.0633 10.3365C43.0633 9.12724 42.3308 8.31696 41.0792 8.31696Z" fill="#0A66C2"/>
<path d="M36.1087 12.7563C35.5922 13.4063 34.5298 13.9867 32.8142 13.9867C30.5246 13.9867 29.0659 12.5127 29.0659 10.1974C29.0659 8.14066 30.3865 6.72266 32.8781 6.72266C35.0297 6.72266 36.3567 8.09592 36.3567 10.5119C36.3567 10.753 36.317 10.9928 36.317 10.9928H31.1305L31.1433 11.2115C31.2865 11.823 31.7621 12.5699 32.85 12.5699C33.8011 12.5699 34.4518 12.0728 34.7472 11.6838L36.1087 12.7563ZM34.2511 9.64565C34.2652 8.89751 33.7014 8.13941 32.8116 8.13941C31.7531 8.13941 31.1881 8.94349 31.1293 9.64565H34.2511Z" fill="#0A66C2"/>
<path d="M29.0661 6.81072H26.5144L23.9627 9.64548V3.26758H21.7766V13.8982H23.9627V10.3551L26.6601 13.8982H29.2412L26.15 10.0233L29.0661 6.81072Z" fill="#0A66C2"/>
<path d="M13.0284 6.81089H15.0892V7.83245H15.1122C15.4267 7.2819 16.3548 6.72266 17.5015 6.72266C19.7042 6.72266 20.3178 8.081 20.3178 9.96505V13.8984H18.1305V10.3528C18.1305 9.31011 17.7431 8.58308 16.838 8.58308C15.7386 8.58308 15.2145 9.42941 15.2145 10.4945V13.8984H13.0271V6.81089H13.0284Z" fill="#0A66C2"/>
<path d="M9.38365 13.8986H11.571V6.81229H9.38365V13.8986ZM10.478 5.60681C11.2028 5.60681 11.7896 5.03513 11.7896 4.33172C11.7896 3.62831 11.2028 3.05664 10.478 3.05664C9.75438 3.05664 9.16504 3.62831 9.16504 4.33172C9.16504 5.03513 9.7531 5.60681 10.478 5.60681Z" fill="#0A66C2"/>
<path d="M3.55161 3.26758H1.36426V13.8982H7.92504V11.7719H3.55161V3.26758Z" fill="#0A66C2"/>
</svg>
