<svg width="58" height="80" viewBox="0 0 58 80" fill="none" xmlns="http://www.w3.org/2000/svg">
<path d="M17.4433 41.7219C16.0686 50.0488 9.79277 56.7651 7.05431 59.3423C4.08181 62.1396 0.872469 61.6673 0.572418 55.9997C0.341179 51.6246 1.0769 46.6441 2.51594 42.1922C3.77736 38.2898 5.90972 34.5798 8.93343 32.2091C9.69076 31.6151 10.5733 31.2571 11.4863 31.1583C13.8178 30.9072 15.987 32.3985 16.8112 34.8243C17.5437 36.981 17.8241 39.4182 17.4437 41.7219H17.4433Z" fill="url(#paint0_linear_5278_49700)"/>
<path d="M40.5575 41.7219C41.0256 44.5584 42.0626 47.2078 43.3348 49.5707C43.456 49.7965 43.5796 50.019 43.7053 50.2394C46.1233 54.4847 49.2298 57.7269 50.9465 59.3423C53.9186 62.14 57.1283 61.6669 57.4288 55.9997C57.66 51.6246 56.9239 46.6441 55.4853 42.1922C55.4312 42.0244 55.3752 41.857 55.3176 41.6901C55.222 41.4116 55.1216 41.1336 55.0164 40.8581C53.723 37.4558 51.7442 34.3079 49.0678 32.2091C48.3108 31.6155 47.4283 31.2571 46.5153 31.1583C44.1834 30.9072 42.0146 32.3985 41.1904 34.8243C40.4579 36.981 40.1775 39.4186 40.5579 41.7219H40.5575Z" fill="url(#paint1_linear_5278_49700)"/>
<path opacity="0.1" d="M43.335 49.5724C43.4562 49.7982 43.5798 50.0207 43.7054 50.2411C48.2874 48.551 52.1737 45.6909 55.3174 41.6914C55.2218 41.4129 55.1213 41.1349 55.0161 40.8594C53.2706 43.1504 51.2783 45.0798 49.0703 46.6147C47.3132 47.8358 45.3957 48.8241 43.335 49.5724Z" fill="#131E2E"/>
<path opacity="0.1" d="M14.6655 49.5724C14.5443 49.7982 14.4207 50.0207 14.2951 50.2411C9.71309 48.551 5.82684 45.6909 2.68311 41.6914C2.77872 41.4129 2.87914 41.1349 2.98435 40.8594C4.72985 43.1504 6.72218 45.0798 8.93016 46.6147C10.6873 47.8358 12.6048 48.8241 14.6655 49.5724Z" fill="#131E2E"/>
<path d="M9.66473 42.7979C9.66473 45.7719 10.1072 48.8219 10.9145 51.76C20.4717 60.3155 35.4343 60.0142 46.761 51.751C47.5671 48.8158 48.0088 45.7691 48.0088 42.7979C48.0088 29.6971 39.4249 27.5469 28.8368 27.5469C18.2486 27.5469 9.66473 29.6971 9.66473 42.7979Z" fill="url(#paint2_linear_5278_49700)"/>
<path d="M10.9148 51.761C13.6657 61.7641 20.652 70.4702 28.8366 70.4702C37.0212 70.4702 44.0124 61.7588 46.7612 51.7516C46.3436 51.7337 45.9259 51.6965 45.5114 51.6386C42.3673 51.2005 39.3916 49.5998 37.2604 47.2006C35.8778 45.6444 34.8512 43.78 33.4106 42.2797C33.3986 42.267 33.387 42.2552 33.375 42.2429C30.9618 39.7576 27.0171 39.7576 24.6039 42.2429C24.5919 42.2552 24.5803 42.267 24.5683 42.2797C23.1276 43.78 22.1011 45.6444 20.7184 47.2006C18.5873 49.6002 15.6116 51.2005 12.4674 51.6386C11.953 51.7104 11.4345 51.7508 10.9156 51.7606L10.9148 51.761Z" fill="url(#paint3_linear_5278_49700)"/>
<path d="M50.8215 21.0378C53.6644 21.0378 55.9688 18.5655 55.9688 15.516C55.9688 12.4664 53.6644 9.99414 50.8215 9.99414V21.0374V21.0378Z" fill="url(#paint4_linear_5278_49700)"/>
<path d="M7.15576 21.0378C4.31288 21.0378 2.00849 18.5655 2.00849 15.516C2.00849 12.4664 4.31288 9.99414 7.15576 9.99414V21.0374V21.0378Z" fill="url(#paint5_linear_5278_49700)"/>
<path d="M5.78038 16.5994C5.78038 28.1424 16.1761 31.0336 29.0003 31.0336C41.8241 31.0336 52.2202 28.1424 52.2202 16.5994V14.4341C52.2198 2.89115 41.8241 0 29.0003 0C16.1765 0 5.78038 2.89115 5.78038 14.4341V16.5994Z" fill="url(#paint6_linear_5278_49700)"/>
<path d="M10.5228 17.916C10.5228 24.3184 18.7902 25.922 28.9887 25.922C39.1872 25.922 47.4546 24.3184 47.4546 17.916V16.715C47.4546 10.3125 39.1872 8.70898 28.9887 8.70898C18.7902 8.70898 10.5228 10.3125 10.5228 16.715V17.916Z" fill="#131C27"/>
<path d="M33.9914 18.5562C33.8778 19.0081 34.2855 19.4176 34.7279 19.2992C35.7465 19.0265 36.7907 18.8901 37.8353 18.8901C38.8798 18.8901 39.924 19.0265 40.9426 19.2992C41.3847 19.4176 41.7923 19.0081 41.6791 18.5562C41.2402 16.8077 39.6856 15.5156 37.8353 15.5156C35.9849 15.5156 34.4307 16.8081 33.9914 18.5562Z" fill="#F6D155"/>
<path d="M23.9866 18.5562C24.1002 19.0081 23.6926 19.4176 23.2501 19.2992C22.2315 19.0265 21.1873 18.8901 20.1428 18.8901C19.0982 18.8901 18.054 19.0265 17.0354 19.2992C16.5934 19.4176 16.1857 19.0081 16.2989 18.5562C16.7378 16.8077 18.2924 15.5156 20.1428 15.5156C21.9931 15.5156 23.5473 16.8081 23.9866 18.5562Z" fill="#F6D155"/>
<path opacity="0.76" d="M10.5227 16.715V17.9156C10.5227 17.987 10.5239 18.0581 10.5259 18.1283C10.7067 11.9022 18.9037 10.3346 28.9882 10.3346C39.0727 10.3346 47.2701 11.9026 47.4509 18.1283C47.4533 18.0581 47.4541 17.987 47.4541 17.9156V16.715C47.4541 10.3121 39.1867 8.70898 28.9878 8.70898C18.7889 8.70898 10.5223 10.3121 10.5223 16.715H10.5227Z" fill="#131E2E"/>
<path d="M18.6431 0.871592C19.7513 1.962 20.4846 3.43411 20.8263 5.32875C20.9339 5.92805 21.452 6.35874 22.0485 6.35874H35.9516C36.5481 6.35874 37.0662 5.92764 37.1747 5.32875C37.5159 3.43411 38.2492 1.96159 39.3574 0.872C36.2393 0.243719 32.7219 0 29.0001 0C25.2782 0 21.7609 0.243719 18.6431 0.871592Z" fill="#FBD050"/>
<path d="M18.6431 0.871502C19.7513 1.96191 20.4846 3.43402 20.8263 5.32866C20.9339 5.92796 21.452 6.35865 22.0485 6.35865H35.9516C36.5481 6.35865 37.0662 5.92755 37.1747 5.32866C37.5159 3.43402 38.2492 1.9615 39.3574 0.87191C37.8624 1.7782 36.9894 2.54855 36.6694 4.32603C36.5686 4.88817 36.0821 5.29233 35.5228 5.29233H22.4786C21.9189 5.29233 21.4328 4.88776 21.332 4.32603C21.0115 2.54814 20.1054 1.35445 18.6439 0.871094L18.6431 0.871502Z" fill="#141E26"/>
<path d="M28.9889 54.4494C26.2368 54.4494 24.0057 52.1727 24.0057 49.3643C24.0057 46.5559 26.2368 44.2793 28.9889 44.2793C31.7411 44.2793 33.9722 46.5559 33.9722 49.3643C33.9722 52.1727 31.7411 54.4494 28.9889 54.4494Z" fill="url(#paint7_linear_5278_49700)"/>
<path d="M28.9886 53.4326C26.7875 53.4326 25.0032 51.6118 25.0032 49.3657C25.0032 47.1196 26.7875 45.2988 28.9886 45.2988C31.1898 45.2988 32.9741 47.1196 32.9741 49.3657C32.9741 51.6118 31.1898 53.4326 28.9886 53.4326Z" fill="#FBD050"/>
<path opacity="0.1" d="M25.0032 49.3657C25.0032 49.4959 25.0092 49.6249 25.0212 49.7519C25.2116 47.6866 26.9151 46.0708 28.9886 46.0708C31.0622 46.0708 32.7657 47.6866 32.9561 49.7519C32.9685 49.6249 32.9741 49.4959 32.9741 49.3657C32.9741 47.1192 31.1898 45.2988 28.9886 45.2988C26.7875 45.2988 25.0032 47.1192 25.0032 49.3657Z" fill="#131E2E"/>
<path opacity="0.63" d="M28.9878 80.0022C21.9714 80.0022 16.2836 78.941 16.2836 77.632C16.2836 76.3229 21.9714 75.2617 28.9878 75.2617C36.0041 75.2617 41.6919 76.3229 41.6919 77.632C41.6919 78.941 36.0041 80.0022 28.9878 80.0022Z" fill="url(#paint8_radial_5278_49700)"/>
<defs>
<linearGradient id="paint0_linear_5278_49700" x1="4.2279" y1="45.6251" x2="14.7981" y2="46.8511" gradientUnits="userSpaceOnUse">
<stop stop-color="#E6E6E6"/>
<stop offset="1" stop-color="#A5B0B5"/>
</linearGradient>
<linearGradient id="paint1_linear_5278_49700" x1="54.2923" y1="46.0705" x2="42.6335" y2="46.0705" gradientUnits="userSpaceOnUse">
<stop stop-color="#E6E6E6"/>
<stop offset="1" stop-color="#A5B0B5"/>
</linearGradient>
<linearGradient id="paint2_linear_5278_49700" x1="28.8368" y1="48.1593" x2="28.8368" y2="31.984" gradientUnits="userSpaceOnUse">
<stop stop-color="#E6E6E6"/>
<stop offset="1" stop-color="#A5B0B5"/>
</linearGradient>
<linearGradient id="paint3_linear_5278_49700" x1="28.8378" y1="61.2208" x2="28.8378" y2="42.1319" gradientUnits="userSpaceOnUse">
<stop stop-color="#E6E6E6"/>
<stop offset="1" stop-color="#A5B0B5"/>
</linearGradient>
<linearGradient id="paint4_linear_5278_49700" x1="55.9688" y1="15.516" x2="50.8215" y2="15.516" gradientUnits="userSpaceOnUse">
<stop stop-color="#E6E6E6"/>
<stop offset="1" stop-color="#A5B0B5"/>
</linearGradient>
<linearGradient id="paint5_linear_5278_49700" x1="7.15576" y1="15.516" x2="2.00889" y2="15.516" gradientUnits="userSpaceOnUse">
<stop stop-color="#E6E6E6"/>
<stop offset="1" stop-color="#A5B0B5"/>
</linearGradient>
<linearGradient id="paint6_linear_5278_49700" x1="52.2198" y1="15.5168" x2="5.78038" y2="15.5168" gradientUnits="userSpaceOnUse">
<stop stop-color="#E6E6E6"/>
<stop offset="1" stop-color="#A5B0B5"/>
</linearGradient>
<linearGradient id="paint7_linear_5278_49700" x1="32.4003" y1="46.0841" x2="25.4447" y2="52.5074" gradientUnits="userSpaceOnUse">
<stop stop-color="#E6E6E6"/>
<stop offset="0.2" stop-color="#A5B0B5"/>
<stop offset="0.37" stop-color="#CCD1D3"/>
<stop offset="0.57" stop-color="#B5BEC2"/>
<stop offset="0.74" stop-color="white"/>
<stop offset="1" stop-color="#A5B0B5"/>
</linearGradient>
<radialGradient id="paint8_radial_5278_49700" cx="0" cy="0" r="1" gradientUnits="userSpaceOnUse" gradientTransform="translate(28.9878 77.568) rotate(180) scale(12.1324 1.98084)">
<stop stop-opacity="0.3"/>
<stop offset="0.92" stop-opacity="0"/>
</radialGradient>
</defs>
</svg>
