<svg width="15" height="15" viewBox="0 0 15 15" fill="none" xmlns="http://www.w3.org/2000/svg">
<path d="M11.7503 6.33329H12.3337C12.6558 6.33329 12.917 6.59445 12.917 6.91663V12.75C12.917 13.0721 12.6558 13.3333 12.3337 13.3333H3.00033C2.67816 13.3333 2.41699 13.0721 2.41699 12.75V6.91663C2.41699 6.59445 2.67816 6.33329 3.00033 6.33329H3.58366V5.74996C3.58366 3.4948 5.41183 1.66663 7.66699 1.66663C9.92216 1.66663 11.7503 3.4948 11.7503 5.74996V6.33329ZM10.5837 6.33329V5.74996C10.5837 4.13913 9.27781 2.83329 7.66699 2.83329C6.05616 2.83329 4.75033 4.13913 4.75033 5.74996V6.33329H10.5837ZM7.08366 8.66663V11H8.25033V8.66663H7.08366Z" fill="#EB5757"/>
</svg>
