<svg width="194" height="29" viewBox="0 0 194 29" fill="none" xmlns="http://www.w3.org/2000/svg">
<path d="M25.8692 6.43781C24.4993 4.98677 22.6947 4.26062 20.4503 4.26062C19.2882 4.26062 18.2085 4.44818 17.2137 4.82329C16.6573 5.03239 16.4001 5.67364 16.6523 6.21224C16.8842 6.70901 17.4722 6.94218 17.9753 6.72168C18.7445 6.38331 19.5784 6.21477 20.4769 6.21477C21.928 6.21477 23.1319 6.74195 24.0887 7.7976C24.0975 7.80774 24.1077 7.81788 24.1166 7.82802C24.2027 7.9218 24.3459 7.93574 24.4473 7.85843L25.8388 6.80025C25.9541 6.71281 25.9706 6.54426 25.8717 6.43908C25.8705 6.43908 25.8692 6.43781 25.8692 6.43781Z" fill="white"/>
<path d="M27.534 9.36267C27.4073 8.94066 27.2489 8.53767 27.0601 8.15621C26.7901 7.61255 26.0919 7.4478 25.609 7.81532L25.3327 8.02569C24.9703 8.30069 24.8372 8.79239 25.0273 9.20553C25.1452 9.46279 25.2453 9.73145 25.3264 10.0128C25.4988 10.6071 26.1299 10.9392 26.7154 10.7389L26.8472 10.6933C27.3959 10.5058 27.7 9.91901 27.534 9.36267Z" fill="white"/>
<path d="M37.6942 19.9457C36.7704 20.9849 35.806 21.7187 34.7997 22.147C33.8924 22.5259 33.0268 22.6413 32.2018 22.493C30.5024 22.18 29.6533 21.2156 29.6533 19.5985C29.6533 19.2196 29.6939 18.7735 29.7775 18.2628C29.8269 17.9498 29.9169 17.4796 30.05 16.8523L31.6087 9.4552H33.7859L31.9306 18.4605C31.8812 18.7735 31.8559 19.0295 31.8559 19.2272C31.8559 20.2499 32.4413 20.7606 33.6123 20.7606C35.0139 20.7606 36.2014 20.0928 37.1746 18.757C37.57 18.2121 37.883 17.5785 38.115 16.8523C38.1973 16.5887 38.2797 16.2757 38.3621 15.912L39.7231 9.4552H41.9003L39.2289 22.27H37.2L37.6942 19.9457Z" fill="white"/>
<path d="M42.5923 22.2712L45.2637 9.45643H47.4663L44.7695 22.2712H42.5923ZM45.7846 7.03086L46.3042 4.55713H48.4813L47.9618 7.03086H45.7846Z" fill="white"/>
<path d="M57.8071 13.5383C57.7906 11.7907 56.9416 10.9163 55.2586 10.9163C53.9229 10.9163 52.8508 11.6095 52.0423 12.9947C51.2996 14.2645 50.9296 15.8232 50.9296 17.6709C50.9296 19.7987 51.7622 20.8619 53.4287 20.8619C55.0774 20.8619 56.2648 19.7734 56.991 17.5962L59.1682 17.8192C58.0796 20.9697 56.1584 22.5449 53.4033 22.5449C51.984 22.5449 50.8548 22.1001 50.0133 21.2092C49.1554 20.2853 48.7271 19.032 48.7271 17.4492C48.7271 15.1072 49.329 13.1531 50.5329 11.5854C51.7863 9.96966 53.4274 9.16113 55.4563 9.16113C56.7756 9.16113 57.8477 9.52358 58.6727 10.2497C59.5306 11.0253 59.9501 12.081 59.9349 13.4167L57.8071 13.5383Z" fill="white"/>
<path d="M60.5293 22.2712L64.2399 4.55713H66.4171L64.1157 15.5419L70.499 9.45643H73.3935L67.9011 14.2315L71.2163 22.2724H68.816L66.2675 15.6915L63.6202 17.9928L62.7052 22.2724H60.5293V22.2712Z" fill="white"/>
<path d="M71.562 22.2712L81.6065 4.55713H84.4021L87.3219 22.2712H85.0205L84.155 17.1742H77.005L74.1599 22.2712H71.562ZM78.0201 15.3442H83.8838L83.1906 10.891C83.1412 10.5615 83.0917 10.2726 83.0423 10.0254C82.9929 9.67947 82.9511 9.34111 82.9181 9.01162C82.8193 8.17014 82.7445 7.32867 82.6951 6.48846C82.2503 7.57706 81.6559 8.78098 80.9133 10.1002L78.0201 15.3442Z" fill="#F8D153"/>
<path d="M93.7052 11.237C95.0409 9.85189 96.3766 9.15869 97.7136 9.15869C98.901 9.15869 99.8819 9.5959 100.657 10.4703C101.482 11.4271 101.894 12.7134 101.894 14.3292C101.894 16.6052 101.243 18.5594 99.9402 20.1929C98.6704 21.7605 97.2105 22.5437 95.5617 22.5437C93.9941 22.5437 92.8067 21.7681 91.9994 20.2182L90.5395 27.1946H88.3623L92.0729 9.4565H94.0765L93.7052 11.237ZM92.6901 17.6938C92.6901 17.9245 92.7065 18.1475 92.7395 18.3617C93.036 19.9787 93.9523 20.786 95.4857 20.786C96.7061 20.786 97.7377 20.0522 98.5779 18.5835C99.3205 17.2807 99.6905 15.8702 99.6905 14.3533C99.6905 12.0608 98.8085 10.9139 97.0432 10.9139C96.35 10.9139 95.7075 11.1369 95.1131 11.5817C94.6011 11.9619 94.1487 12.4967 93.7521 13.1899C93.0424 14.4433 92.6888 15.7219 92.6888 17.0247V17.6938H92.6901Z" fill="white"/>
<path d="M107.461 11.237C108.796 9.85189 110.132 9.15869 111.469 9.15869C112.656 9.15869 113.637 9.5959 114.413 10.4703C115.238 11.4271 115.65 12.7134 115.65 14.3292C115.65 16.6052 114.998 18.5594 113.696 20.1929C112.426 21.7605 110.966 22.5437 109.317 22.5437C107.749 22.5437 106.562 21.7681 105.755 20.2182L104.295 27.1946H102.118L105.828 9.4565H107.832L107.461 11.237ZM106.445 17.6938C106.445 17.9245 106.462 18.1475 106.495 18.3617C106.791 19.9787 107.708 20.786 109.241 20.786C110.461 20.786 111.493 20.0522 112.333 18.5835C113.076 17.2807 113.446 15.8702 113.446 14.3533C113.446 12.0608 112.564 10.9139 110.799 10.9139C110.105 10.9139 109.463 11.1369 108.868 11.5817C108.357 11.9619 107.904 12.4967 107.507 13.1899C106.798 14.4433 106.444 15.7219 106.444 17.0247V17.6938H106.445Z" fill="white"/>
<path d="M116.762 22.2712L120.473 4.55713H122.65L118.939 22.2712H116.762Z" fill="white"/>
<path d="M128.366 23.7311C128.053 24.2912 127.78 24.7373 127.549 25.0668C127.236 25.5116 126.931 25.8829 126.634 26.1795C125.925 26.8562 125.085 27.1933 124.111 27.1933C123.533 27.1933 123.048 27.1185 122.651 26.9703L122.776 24.9173C123.303 25.0491 123.716 25.115 124.012 25.115C124.556 25.115 125.019 24.9413 125.398 24.5954C125.661 24.3647 125.974 23.9351 126.338 23.3091L127.031 22.0722L124.903 9.20805H127.055L128.02 15.6648C128.234 16.9511 128.398 18.2374 128.514 19.5237L134.253 9.20679H136.529L128.366 23.7311Z" fill="white"/>
<path d="M26.0768 20.0965C25.7004 20.0813 25.3848 20.3753 25.3709 20.7504L25.3113 22.3066C24.6828 21.8415 24.1581 21.36 23.7412 20.8619C26.5279 18.7836 27.9219 15.898 27.9219 12.2026C27.9219 11.9466 27.9143 11.6944 27.8979 11.4486C27.8852 11.2496 27.685 11.1178 27.4961 11.1824L25.803 11.7628C25.6789 11.8047 25.5977 11.9213 25.5977 12.053C25.5977 12.0543 25.5977 12.0543 25.5977 12.0556C25.5977 15.2213 24.5003 17.6468 22.3066 19.3285L21.7883 18.7849C21.5729 18.5707 21.3587 18.3806 21.1445 18.2158C20.6009 17.7546 19.9976 17.3908 19.3386 17.1272L18.4731 18.6125C18.9686 18.8596 19.4223 19.1321 19.8342 19.4286C20.1307 19.6593 20.4348 19.9241 20.7491 20.2207C20.0724 20.4843 19.2727 20.6161 18.3489 20.6161C17.0778 20.6161 15.9651 20.1142 15.0083 19.1067C13.9362 18.0017 13.4002 16.543 13.4002 14.7283C13.4002 12.5397 13.9717 10.6742 15.1135 9.1307C15.2453 8.95201 15.2707 8.7163 15.1769 8.5148L14.6776 7.44649C14.4964 7.05996 13.9793 6.9852 13.6967 7.30455C11.9479 9.28404 11.0747 11.7008 11.0747 14.5534C11.0747 17.0107 11.7742 18.9661 13.1771 20.4171C14.5787 21.8517 16.4835 22.569 18.8926 22.569C19.9482 22.569 21.0609 22.2965 22.2331 21.7528C22.2331 21.7706 22.2483 21.7858 22.2825 21.8022L22.6539 22.2217C22.8528 22.4372 23.0505 22.6348 23.2482 22.8161C23.5156 23.0759 23.8007 23.3268 24.1049 23.5701L22.4954 23.8084C22.1241 23.8629 21.8669 24.2088 21.9226 24.5814C21.9721 24.9198 22.2635 25.1618 22.5943 25.1618C22.6272 25.1618 22.6615 25.1593 22.6944 25.1542L26.0286 24.66C26.3518 24.6118 26.5964 24.3406 26.609 24.0137L26.732 20.8024C26.7446 20.426 26.4519 20.1104 26.0768 20.0965Z" fill="#F8D153"/>
<path d="M173.25 28.7825H8.25V0H173.25V28.7825ZM8.98249 28.05H172.518V0.732485H8.98249V28.05Z" fill="#F8D153"/>
<path d="M173.25 0.732544H139.447V28.7838H173.25V0.732544Z" fill="#F8D153"/>
<path d="M149.037 23.7995C147.727 23.7995 146.699 23.4864 145.953 22.8591C145.206 22.2318 144.833 21.384 144.833 20.3132C144.833 18.5238 145.607 17.1919 147.157 16.3149C148.707 15.4392 150.587 14.9361 152.801 14.8068L154.987 14.6408C155.153 14.6231 155.286 14.5711 155.389 14.4888C155.49 14.4051 155.55 14.2999 155.569 14.1707L155.679 13.4242C155.716 13.129 155.735 12.9262 155.735 12.8159C155.735 12.0049 155.473 11.3725 154.947 10.9201C154.421 10.4689 153.697 10.2421 152.775 10.2421C151.095 10.2421 149.648 10.9987 148.43 12.5105C148.375 12.584 148.32 12.6258 148.264 12.6347C148.209 12.6449 148.135 12.6309 148.043 12.5929L146.632 12.0949C146.522 12.0581 146.466 11.9846 146.466 11.8731C146.466 11.7806 146.503 11.6703 146.576 11.5411C147.258 10.6007 148.14 9.87205 149.219 9.355C150.298 8.83921 151.538 8.58069 152.941 8.58069C154.582 8.58069 155.833 8.93172 156.689 9.63253C157.547 10.3333 157.975 11.3015 157.975 12.5371C157.975 12.7222 157.956 12.9984 157.92 13.3672L156.564 23.1899C156.545 23.3382 156.513 23.4294 156.467 23.4662C156.421 23.5029 156.324 23.5219 156.177 23.5219H154.793C154.554 23.5219 154.433 23.3749 154.433 23.0797L154.572 21.7515C154.572 21.6413 154.544 21.5855 154.488 21.5855C154.432 21.5855 154.331 21.659 154.184 21.8073C152.69 23.1354 150.974 23.7995 149.037 23.7995ZM155.236 16.4125L155.264 16.2465C155.264 16.0995 155.162 16.0348 154.959 16.0526L153.051 16.2186C151.501 16.3288 150.136 16.6609 148.956 17.2147C147.775 17.7685 147.186 18.6911 147.186 19.9811C147.186 20.6275 147.425 21.1394 147.906 21.5171C148.385 21.8947 149.049 22.0848 149.898 22.0848C150.506 22.0848 151.102 21.9784 151.682 21.7667C152.263 21.5551 152.794 21.2738 153.273 20.9227C153.752 20.573 154.139 20.2029 154.435 19.8164C154.73 19.4286 154.896 19.07 154.933 18.738L155.236 16.4125Z" fill="#131D27"/>
<path d="M162.927 23.1353C162.908 23.3204 162.871 23.4306 162.817 23.4674C162.761 23.5041 162.632 23.5231 162.429 23.5231H161.017C160.703 23.5231 160.565 23.3672 160.601 23.053L162.566 9.16356C162.584 9.03429 162.611 8.95192 162.649 8.91517C162.686 8.87842 162.76 8.85941 162.871 8.85941H164.614C164.835 8.85941 164.927 8.99754 164.89 9.27508L162.927 23.1353ZM165.473 5.75964C165.436 5.94466 165.385 6.06886 165.321 6.13349C165.256 6.19812 165.132 6.2298 164.947 6.2298H163.259C162.983 6.2298 162.881 6.05492 162.955 5.70388L163.287 3.40757C163.324 3.1313 163.462 2.99316 163.701 2.99316H165.5C165.61 2.99316 165.693 3.03879 165.748 3.1313C165.804 3.22381 165.813 3.3442 165.776 3.4912L165.473 5.75964Z" fill="#131D27"/>
<path d="M19.0916 15.7688C18.8952 15.7688 18.7 15.7016 18.5543 15.585L16.6369 14.0478C16.4772 13.9198 16.3822 13.7436 16.3682 13.5523C16.3556 13.366 16.4215 13.1848 16.5558 13.0416C16.6762 12.9136 16.8447 12.8261 17.0285 12.797C17.0741 12.7894 17.121 12.7856 17.1679 12.7856C17.3643 12.7856 17.5544 12.8515 17.7027 12.9693L18.9966 14.0072L22.0659 10.6718C22.1876 10.54 22.3574 10.45 22.545 10.4208C22.5906 10.4132 22.6375 10.4094 22.6844 10.4094C22.8783 10.4094 23.0658 10.4728 23.2128 10.5881C23.3738 10.7148 23.4713 10.8897 23.4878 11.0811C23.503 11.2674 23.4384 11.4486 23.3066 11.5931L19.7075 15.5052C19.5859 15.637 19.416 15.7269 19.2285 15.7561C19.2031 15.7599 19.1778 15.7624 19.1525 15.765C19.1322 15.7675 19.1119 15.7688 19.0916 15.7688Z" fill="white"/>
</svg>
