<svg width="24" height="30" viewBox="0 0 24 30" fill="none" xmlns="http://www.w3.org/2000/svg">
<g clip-path="url(#clip0_2125_34645)">
<path d="M20.3601 3.04745C19.0538 1.55851 16.6924 0.920166 13.6715 0.920166H4.90404C4.60515 0.920177 4.31606 1.02681 4.08876 1.22089C3.86146 1.41498 3.71085 1.68378 3.664 1.97898L0.0133797 25.1321C-0.0591828 25.5887 0.294348 26.0021 0.757098 26.0021H6.16985L7.52922 17.3799L7.48704 17.6499C7.58388 17.0404 8.10513 16.5909 8.72238 16.5909H11.2945C16.3474 16.5909 20.304 14.5385 21.4597 8.60138C21.494 8.42579 21.5238 8.25488 21.5494 8.08792C21.4036 8.01067 21.4036 8.01067 21.5494 8.08792C21.8936 5.89351 21.5471 4.39979 20.3601 3.04745Z" fill="#27346A"/>
<path d="M9.60035 7.29742C9.74832 7.22696 9.91017 7.19044 10.0741 7.19054H16.9476C17.7616 7.19054 18.5208 7.24351 19.2145 7.35517C19.4086 7.38612 19.6018 7.42307 19.7936 7.46598C20.0655 7.52598 20.3343 7.59941 20.5989 7.68601C20.94 7.79992 21.2576 7.93257 21.5495 8.08792C21.8936 5.89267 21.5471 4.39979 20.3601 3.04745C19.0531 1.55851 16.6924 0.920166 13.6715 0.920166H4.90329C4.28594 0.920166 3.76075 1.3696 3.664 1.97898L0.0133802 25.1313C-0.0591823 25.5886 0.294349 26.0015 0.756349 26.0015H6.16985L8.99013 8.11679C9.01786 7.941 9.08789 7.77458 9.19419 7.63185C9.30048 7.48911 9.43987 7.37434 9.60035 7.29742Z" fill="#27346A"/>
<path d="M21.4591 8.60136C20.3033 14.5376 16.3469 16.5908 11.2939 16.5908H8.72099C8.10374 16.5908 7.5824 17.0404 7.48649 17.6498L5.79533 28.3706C5.73215 28.7702 6.04115 29.1322 6.4454 29.1322H11.0082C11.2696 29.1322 11.5224 29.0388 11.7211 28.8691C11.9198 28.6993 12.0514 28.4641 12.0922 28.206L12.1367 27.9735L12.9966 22.5232L13.0521 22.222C13.0929 21.9639 13.2245 21.7288 13.4232 21.559C13.6219 21.3892 13.8746 21.2959 14.136 21.2958H14.8189C19.2389 21.2958 22.6999 19.5001 23.7112 14.3067C24.1334 12.1364 23.915 10.3244 22.7982 9.05164C22.4595 8.66614 22.0388 8.34777 21.5488 8.08789C21.5223 8.2557 21.4935 8.42577 21.4591 8.60136Z" fill="#2790C3"/>
<path d="M20.3384 7.60565C20.1582 7.55303 19.9763 7.50644 19.793 7.46596C19.601 7.42376 19.4079 7.38706 19.2139 7.3559C18.5194 7.24349 17.7608 7.19043 16.9461 7.19043H10.0734C9.90934 7.19006 9.74737 7.22689 9.59964 7.29815C9.43898 7.37484 9.29944 7.48954 9.19309 7.63232C9.08675 7.77509 9.01681 7.94163 8.98933 8.11753L7.52852 17.3798L7.48633 17.6498C7.58242 17.0404 8.10367 16.5908 8.72102 16.5908H11.2939C16.3468 16.5908 20.3033 14.5385 21.459 8.60137C21.4934 8.42578 21.5223 8.25562 21.5488 8.0879C21.2561 7.9334 20.9394 7.7999 20.5982 7.68674C20.5121 7.65821 20.4255 7.63117 20.3385 7.60565" fill="#1F264F"/>
</g>
<defs>
<clipPath id="clip0_2125_34645">
<rect width="24" height="28.3125" fill="white" transform="translate(0 0.84375)"/>
</clipPath>
</defs>
</svg>
