<svg width="36" height="23" viewBox="0 0 36 23" fill="none" xmlns="http://www.w3.org/2000/svg">
<g clip-path="url(#clip0_2105_34327)">
<path d="M13.1201 2.3999H22.8443V20.0405H13.1201V2.3999Z" fill="#FF5F00"/>
<path d="M13.7375 11.2202C13.7375 7.636 15.4045 4.45689 17.9667 2.39981C16.0837 0.903815 13.7067 0 11.1136 0C4.97011 0 0 5.01783 0 11.2202C0 17.4224 4.97011 22.4403 11.1135 22.4403C13.7066 22.4403 16.0836 21.5365 17.9667 20.0404C15.4045 18.0145 13.7375 14.8043 13.7375 11.2202Z" fill="#EB001B"/>
<path d="M35.9637 11.2202C35.9637 17.4224 30.9936 22.4403 24.8503 22.4403C22.2572 22.4403 19.8802 21.5365 17.9971 20.0404C20.5902 17.9834 22.2264 14.8043 22.2264 11.2202C22.2264 7.636 20.5593 4.45689 17.9971 2.39981C19.88 0.903815 22.2572 0 24.8503 0C30.9936 0 35.9637 5.04907 35.9637 11.2202Z" fill="#F79E1B"/>
</g>
<defs>
<clipPath id="clip0_2105_34327">
<rect width="36" height="23" fill="white"/>
</clipPath>
</defs>
</svg>
