<svg width="20" height="20" viewBox="0 0 20 20" fill="none" xmlns="http://www.w3.org/2000/svg">
<g clip-path="url(#clip0_2191_1554)">
<path d="M16.9709 9.41083C17.1271 9.56711 17.2148 9.77903 17.2148 10C17.2148 10.221 17.1271 10.4329 16.9709 10.5892L12.2567 15.3033C12.1798 15.3829 12.0879 15.4464 11.9862 15.4901C11.8845 15.5338 11.7752 15.5567 11.6645 15.5577C11.5539 15.5587 11.4441 15.5376 11.3417 15.4957C11.2393 15.4538 11.1463 15.3919 11.068 15.3137C10.9898 15.2354 10.9279 15.1424 10.886 15.04C10.8441 14.9375 10.823 14.8278 10.824 14.7172C10.8249 14.6065 10.8479 14.4972 10.8916 14.3955C10.9353 14.2938 10.9988 14.2019 11.0784 14.125L14.37 10.8333H3.33419C3.11318 10.8333 2.90121 10.7455 2.74493 10.5893C2.58865 10.433 2.50086 10.221 2.50086 10C2.50086 9.77899 2.58865 9.56702 2.74493 9.41074C2.90121 9.25446 3.11318 9.16667 3.33419 9.16667H14.37L11.0784 5.875C10.9266 5.71783 10.8426 5.50733 10.8445 5.28883C10.8464 5.07033 10.934 4.86132 11.0885 4.70682C11.243 4.55231 11.452 4.46467 11.6705 4.46277C11.889 4.46087 12.0995 4.54487 12.2567 4.69666L16.9709 9.41083Z" fill="#F6D155"/>
</g>
<defs>
<clipPath id="clip0_2191_1554">
<rect width="20" height="20" fill="white" transform="matrix(0 -1 -1 0 20 20)"/>
</clipPath>
</defs>
</svg>
