<svg width="142" height="44" viewBox="0 0 142 44" fill="none" xmlns="http://www.w3.org/2000/svg">
<path d="M35.4297 38L32.1406 28.4609H32.0703C32.0859 28.6745 32.1042 28.9661 32.125 29.3359C32.1458 29.7057 32.1641 30.1016 32.1797 30.5234C32.1953 30.9453 32.2031 31.349 32.2031 31.7344V38H30.5V26.5781H33.1328L36.2969 35.6953H36.3438L39.6172 26.5781H42.2422V38H40.4531V31.6406C40.4531 31.2917 40.4583 30.9141 40.4688 30.5078C40.4844 30.1016 40.5 29.7161 40.5156 29.3516C40.5365 28.987 40.5521 28.6953 40.5625 28.4766H40.5L37.0859 38H35.4297ZM53.5188 33.6562C53.5188 34.375 53.425 35.013 53.2375 35.5703C53.05 36.1276 52.7766 36.599 52.4172 36.9844C52.0578 37.3646 51.6255 37.6562 51.1203 37.8594C50.6151 38.0573 50.0448 38.1562 49.4094 38.1562C48.8156 38.1562 48.2714 38.0573 47.7766 37.8594C47.2818 37.6562 46.8521 37.3646 46.4875 36.9844C46.1281 36.599 45.8495 36.1276 45.6516 35.5703C45.4536 35.013 45.3547 34.375 45.3547 33.6562C45.3547 32.7031 45.5188 31.8958 45.8469 31.2344C46.1802 30.5677 46.6542 30.0599 47.2688 29.7109C47.8833 29.362 48.6151 29.1875 49.4641 29.1875C50.2609 29.1875 50.9641 29.362 51.5734 29.7109C52.1828 30.0599 52.6594 30.5677 53.0031 31.2344C53.3469 31.901 53.5188 32.7083 53.5188 33.6562ZM47.2453 33.6562C47.2453 34.2865 47.3208 34.8255 47.4719 35.2734C47.6281 35.7214 47.8677 36.0651 48.1906 36.3047C48.5135 36.5391 48.9302 36.6562 49.4406 36.6562C49.951 36.6562 50.3677 36.5391 50.6906 36.3047C51.0135 36.0651 51.2505 35.7214 51.4016 35.2734C51.5526 34.8255 51.6281 34.2865 51.6281 33.6562C51.6281 33.026 51.5526 32.4922 51.4016 32.0547C51.2505 31.612 51.0135 31.276 50.6906 31.0469C50.3677 30.8125 49.9484 30.6953 49.4328 30.6953C48.6724 30.6953 48.1177 30.9505 47.7688 31.4609C47.4198 31.9714 47.2453 32.7031 47.2453 33.6562ZM62.2406 35.5312C62.2406 36.099 62.1026 36.5781 61.8266 36.9688C61.5505 37.3594 61.1469 37.6562 60.6156 37.8594C60.0896 38.0573 59.4438 38.1562 58.6781 38.1562C58.074 38.1562 57.5531 38.112 57.1156 38.0234C56.6833 37.9401 56.2745 37.8099 55.8891 37.6328V36.0469C56.3005 36.2396 56.7615 36.4062 57.2719 36.5469C57.7875 36.6875 58.2745 36.7578 58.7328 36.7578C59.337 36.7578 59.7719 36.6641 60.0375 36.4766C60.3031 36.2839 60.4359 36.0286 60.4359 35.7109C60.4359 35.5234 60.3813 35.3568 60.2719 35.2109C60.1677 35.0599 59.9698 34.9062 59.6781 34.75C59.3917 34.5885 58.9698 34.3958 58.4125 34.1719C57.8656 33.9531 57.4047 33.7344 57.0297 33.5156C56.6547 33.2969 56.3708 33.0339 56.1781 32.7266C55.9854 32.4141 55.8891 32.0156 55.8891 31.5312C55.8891 30.7656 56.1911 30.1849 56.7953 29.7891C57.4047 29.388 58.2094 29.1875 59.2094 29.1875C59.7406 29.1875 60.2406 29.2422 60.7094 29.3516C61.1833 29.4557 61.6469 29.6094 62.1 29.8125L61.5219 31.1953C61.1313 31.0234 60.738 30.8828 60.3422 30.7734C59.9516 30.6589 59.5531 30.6016 59.1469 30.6016C58.6729 30.6016 58.3109 30.6745 58.0609 30.8203C57.8161 30.9661 57.6938 31.1745 57.6938 31.4453C57.6938 31.6484 57.7536 31.8203 57.8734 31.9609C57.9932 32.1016 58.199 32.2422 58.4906 32.3828C58.7875 32.5234 59.199 32.6979 59.725 32.9062C60.2406 33.1042 60.6859 33.3125 61.0609 33.5312C61.4411 33.7448 61.7328 34.0078 61.9359 34.3203C62.1391 34.6328 62.2406 35.0365 62.2406 35.5312ZM68.2438 36.6719C68.4833 36.6719 68.7203 36.651 68.9547 36.6094C69.1891 36.5625 69.4026 36.5078 69.5953 36.4453V37.8359C69.3922 37.9245 69.1292 38 68.8063 38.0625C68.4833 38.125 68.1474 38.1562 67.7984 38.1562C67.3089 38.1562 66.8688 38.0755 66.4781 37.9141C66.0875 37.7474 65.7776 37.4635 65.5484 37.0625C65.3193 36.6615 65.2047 36.1068 65.2047 35.3984V30.75H64.025V29.9297L65.2906 29.2812L65.8922 27.4297H67.0484V29.3516H69.525V30.75H67.0484V35.375C67.0484 35.8125 67.1578 36.138 67.3766 36.3516C67.5953 36.5651 67.8844 36.6719 68.2438 36.6719ZM81.5469 29.1875C82.5729 29.1875 83.3958 29.5625 84.0156 30.3125C84.6406 31.0625 84.9531 32.1771 84.9531 33.6562C84.9531 34.6354 84.8073 35.4609 84.5156 36.1328C84.2292 36.7995 83.8255 37.3047 83.3047 37.6484C82.7891 37.987 82.1875 38.1562 81.5 38.1562C81.0625 38.1562 80.6823 38.099 80.3594 37.9844C80.0365 37.8698 79.7604 37.7214 79.5312 37.5391C79.3021 37.3516 79.1094 37.1484 78.9531 36.9297H78.8438C78.8698 37.138 78.8932 37.3698 78.9141 37.625C78.9401 37.875 78.9531 38.1042 78.9531 38.3125V41.8359H77.1094V29.3516H78.6094L78.8672 30.5469H78.9531C79.1146 30.3021 79.3099 30.0755 79.5391 29.8672C79.7734 29.6589 80.0547 29.4948 80.3828 29.375C80.7161 29.25 81.1042 29.1875 81.5469 29.1875ZM81.0547 30.6875C80.5495 30.6875 80.1432 30.7891 79.8359 30.9922C79.5339 31.1901 79.3125 31.4896 79.1719 31.8906C79.0365 32.2917 78.9635 32.7943 78.9531 33.3984V33.6562C78.9531 34.2969 79.0182 34.8411 79.1484 35.2891C79.2839 35.7318 79.5052 36.0703 79.8125 36.3047C80.125 36.5339 80.5469 36.6484 81.0781 36.6484C81.526 36.6484 81.8958 36.526 82.1875 36.2812C82.4844 36.0365 82.7057 35.6875 82.8516 35.2344C82.9974 34.7812 83.0703 34.2474 83.0703 33.6328C83.0703 32.7005 82.9036 31.9766 82.5703 31.4609C82.2422 30.9453 81.737 30.6875 81.0547 30.6875ZM95.5344 33.6562C95.5344 34.375 95.4406 35.013 95.2531 35.5703C95.0656 36.1276 94.7922 36.599 94.4328 36.9844C94.0734 37.3646 93.6411 37.6562 93.1359 37.8594C92.6307 38.0573 92.0604 38.1562 91.425 38.1562C90.8312 38.1562 90.287 38.0573 89.7922 37.8594C89.2974 37.6562 88.8677 37.3646 88.5031 36.9844C88.1437 36.599 87.8651 36.1276 87.6672 35.5703C87.4693 35.013 87.3703 34.375 87.3703 33.6562C87.3703 32.7031 87.5344 31.8958 87.8625 31.2344C88.1958 30.5677 88.6698 30.0599 89.2844 29.7109C89.899 29.362 90.6307 29.1875 91.4797 29.1875C92.2766 29.1875 92.9797 29.362 93.5891 29.7109C94.1984 30.0599 94.675 30.5677 95.0187 31.2344C95.3625 31.901 95.5344 32.7083 95.5344 33.6562ZM89.2609 33.6562C89.2609 34.2865 89.3365 34.8255 89.4875 35.2734C89.6437 35.7214 89.8833 36.0651 90.2062 36.3047C90.5292 36.5391 90.9458 36.6562 91.4562 36.6562C91.9667 36.6562 92.3833 36.5391 92.7062 36.3047C93.0292 36.0651 93.2661 35.7214 93.4172 35.2734C93.5682 34.8255 93.6437 34.2865 93.6437 33.6562C93.6437 33.026 93.5682 32.4922 93.4172 32.0547C93.2661 31.612 93.0292 31.276 92.7062 31.0469C92.3833 30.8125 91.9641 30.6953 91.4484 30.6953C90.688 30.6953 90.1333 30.9505 89.7844 31.4609C89.4354 31.9714 89.2609 32.7031 89.2609 33.6562ZM102.881 29.1875C103.907 29.1875 104.73 29.5625 105.35 30.3125C105.975 31.0625 106.287 32.1771 106.287 33.6562C106.287 34.6354 106.142 35.4609 105.85 36.1328C105.564 36.7995 105.16 37.3047 104.639 37.6484C104.123 37.987 103.522 38.1562 102.834 38.1562C102.397 38.1562 102.017 38.099 101.694 37.9844C101.371 37.8698 101.095 37.7214 100.866 37.5391C100.636 37.3516 100.444 37.1484 100.287 36.9297H100.178C100.204 37.138 100.228 37.3698 100.248 37.625C100.274 37.875 100.287 38.1042 100.287 38.3125V41.8359H98.4437V29.3516H99.9437L100.202 30.5469H100.287C100.449 30.3021 100.644 30.0755 100.873 29.8672C101.108 29.6589 101.389 29.4948 101.717 29.375C102.051 29.25 102.439 29.1875 102.881 29.1875ZM102.389 30.6875C101.884 30.6875 101.478 30.7891 101.17 30.9922C100.868 31.1901 100.647 31.4896 100.506 31.8906C100.371 32.2917 100.298 32.7943 100.287 33.3984V33.6562C100.287 34.2969 100.353 34.8411 100.483 35.2891C100.618 35.7318 100.84 36.0703 101.147 36.3047C101.459 36.5339 101.881 36.6484 102.412 36.6484C102.86 36.6484 103.23 36.526 103.522 36.2812C103.819 36.0365 104.04 35.6875 104.186 35.2344C104.332 34.7812 104.405 34.2474 104.405 33.6328C104.405 32.7005 104.238 31.9766 103.905 31.4609C103.577 30.9453 103.071 30.6875 102.389 30.6875ZM116.752 29.3516V38H115.306L115.056 36.8359H114.955C114.772 37.1328 114.541 37.3802 114.259 37.5781C113.978 37.7708 113.666 37.9141 113.322 38.0078C112.978 38.1068 112.616 38.1562 112.236 38.1562C111.585 38.1562 111.028 38.0469 110.564 37.8281C110.106 37.6042 109.754 37.2604 109.509 36.7969C109.265 36.3333 109.142 35.7344 109.142 35V29.3516H110.986V34.6562C110.986 35.3281 111.121 35.8307 111.392 36.1641C111.668 36.4974 112.095 36.6641 112.673 36.6641C113.231 36.6641 113.673 36.5495 114.002 36.3203C114.33 36.0911 114.561 35.7526 114.697 35.3047C114.838 34.8568 114.908 34.3073 114.908 33.6562V29.3516H116.752ZM122.028 38H120.184V25.8438H122.028V38ZM128.844 29.1875C129.938 29.1875 130.763 29.4297 131.32 29.9141C131.883 30.3984 132.164 31.1536 132.164 32.1797V38H130.859L130.508 36.7734H130.445C130.201 37.0859 129.948 37.3438 129.688 37.5469C129.427 37.75 129.125 37.901 128.781 38C128.443 38.1042 128.029 38.1562 127.539 38.1562C127.023 38.1562 126.562 38.0625 126.156 37.875C125.75 37.6823 125.43 37.3906 125.195 37C124.961 36.6094 124.844 36.1146 124.844 35.5156C124.844 34.625 125.174 33.9557 125.836 33.5078C126.503 33.0599 127.508 32.8125 128.852 32.7656L130.352 32.7109V32.2578C130.352 31.6589 130.211 31.2318 129.93 30.9766C129.654 30.7214 129.263 30.5938 128.758 30.5938C128.326 30.5938 127.906 30.6562 127.5 30.7812C127.094 30.9062 126.698 31.0599 126.312 31.2422L125.719 29.9453C126.141 29.7214 126.62 29.5391 127.156 29.3984C127.698 29.2578 128.26 29.1875 128.844 29.1875ZM130.344 33.8672L129.227 33.9062C128.31 33.9375 127.667 34.0938 127.297 34.375C126.927 34.6562 126.742 35.0417 126.742 35.5312C126.742 35.9583 126.87 36.2708 127.125 36.4688C127.38 36.6615 127.716 36.7578 128.133 36.7578C128.768 36.7578 129.294 36.5781 129.711 36.2188C130.133 35.8542 130.344 35.3203 130.344 34.6172V33.8672ZM139.917 29.1875C140.063 29.1875 140.222 29.1953 140.394 29.2109C140.566 29.2266 140.714 29.2474 140.839 29.2734L140.667 30.9922C140.558 30.9609 140.422 30.9375 140.261 30.9219C140.105 30.9062 139.964 30.8984 139.839 30.8984C139.511 30.8984 139.198 30.9531 138.902 31.0625C138.605 31.1667 138.342 31.3281 138.113 31.5469C137.883 31.7604 137.704 32.0286 137.573 32.3516C137.443 32.6745 137.378 33.0495 137.378 33.4766V38H135.534V29.3516H136.972L137.222 30.875H137.308C137.48 30.5677 137.693 30.2865 137.948 30.0312C138.204 29.776 138.495 29.5729 138.823 29.4219C139.157 29.2656 139.521 29.1875 139.917 29.1875Z" fill="#131D26"/>
<path d="M45.824 11.1392C34.3852 15.4977 26.6979 17.3554 15.5187 11.9945C12.8055 10.6934 8.24887 8.92453 6.50187 6.27165C5.50956 4.76479 3.51986 4.11588 6.32195 3.80896C8.62953 3.55621 12.0195 3.02609 14.2942 3.6356C15.1157 3.85573 6.49785 3.84411 3.87588 3.73093C0.52375 3.58623 8.5709 16.3084 9.83808 18.5032" stroke="#131D26" stroke-width="3" stroke-linecap="round"/>
</svg>
