<svg width="778" height="372" viewBox="0 0 778 372" fill="none" xmlns="http://www.w3.org/2000/svg">
<path d="M778.005 369.5L770.876 360.416L766.574 371.132L778.005 369.5ZM294 320.5L293.7 319.546L294 320.5ZM9.50075 77.9994L8.57466 77.6221L8.56149 77.6544L8.55061 77.6876L9.50075 77.9994ZM149 7.99992L140.631 0.0440764L137.926 11.2696L149 7.99992ZM143.457 5.70379C142.159 5.42955 140.871 5.17336 139.593 4.9349L139.226 6.90096C140.489 7.1365 141.761 7.38959 143.044 7.6606L143.457 5.70379ZM135.721 4.26125C134.408 4.0495 133.106 3.85671 131.814 3.6825L131.547 5.66455C132.821 5.83644 134.106 6.02671 135.403 6.23575L135.721 4.26125ZM127.923 3.20989C126.596 3.06672 125.281 2.94344 123.978 2.83961L123.819 4.83329C125.103 4.93562 126.4 5.05716 127.709 5.19835L127.923 3.20989ZM120.068 2.58423C118.735 2.51651 117.414 2.46943 116.107 2.44248L116.066 4.44205C117.353 4.46858 118.653 4.51495 119.966 4.58165L120.068 2.58423ZM112.167 2.42212C110.842 2.43597 109.53 2.47082 108.231 2.52612L108.316 4.52431C109.593 4.46992 110.884 4.43564 112.188 4.42201L112.167 2.42212ZM104.279 2.7601C102.958 2.86047 101.653 2.98229 100.361 3.12494L100.58 5.11286C101.849 4.97271 103.133 4.853 104.43 4.75434L104.279 2.7601ZM96.4399 3.62767C95.1237 3.82015 93.8229 4.03457 92.5374 4.27024L92.8981 6.23746C94.1598 6.00614 95.4369 5.79563 96.7293 5.60662L96.4399 3.62767ZM88.6761 5.05147C87.3787 5.33896 86.0975 5.64841 84.8324 5.97903L85.3381 7.91404C86.5789 7.58975 87.8358 7.28618 89.1088 7.0041L88.6761 5.05147ZM81.0237 7.05234C79.7551 7.43617 78.5035 7.8416 77.2687 8.26776L77.9212 10.1583C79.1318 9.74053 80.3589 9.34302 81.6029 8.96664L81.0237 7.05234ZM73.5638 9.62747C72.3254 10.1095 71.1048 10.6126 69.9019 11.1359L70.6997 12.9699C71.8788 12.4569 73.0752 11.9637 74.2892 11.4913L73.5638 9.62747ZM66.3088 12.7833C65.1167 13.3583 63.943 13.9534 62.7873 14.5675L63.7258 16.3336C64.8587 15.7316 66.0093 15.1483 67.1777 14.5847L66.3088 12.7833ZM59.3348 16.4889C58.1893 17.1558 57.0627 17.8415 55.9547 18.545L57.0267 20.2334C58.1133 19.5435 59.218 18.8711 60.3411 18.2173L59.3348 16.4889ZM52.6593 20.7264C51.5709 21.4769 50.5016 22.2446 49.4512 23.0284L50.6473 24.6313C51.678 23.8622 52.7271 23.109 53.7947 22.3729L52.6593 20.7264ZM46.3323 25.4465C45.3015 26.2763 44.2901 27.1216 43.2978 27.9813L44.6074 29.4929C45.5817 28.6488 46.5747 27.8189 47.5865 27.0044L46.3323 25.4465ZM40.3581 30.6206C39.3907 31.5204 38.4428 32.4337 37.5142 33.3591L38.926 34.7757C39.8386 33.8663 40.7699 32.969 41.7202 32.0851L40.3581 30.6206ZM34.767 36.1912C33.8641 37.1538 32.9809 38.1276 32.117 39.1114L33.6199 40.4311C34.4695 39.4634 35.3381 38.5058 36.2257 37.5595L34.767 36.1912ZM29.5593 42.1208C28.7196 43.1413 27.8998 44.1708 27.0996 45.208L28.683 46.4297C29.4707 45.4088 30.2775 44.3956 31.1037 43.3915L29.5593 42.1208ZM24.7377 48.3682C23.963 49.4384 23.2084 50.515 22.4735 51.5967L24.1279 52.7206C24.8517 51.6551 25.5949 50.5948 26.3577 49.541L24.7377 48.3682ZM20.3068 54.8887C19.5967 56.0026 18.907 57.1203 18.2374 58.2402L19.9539 59.2666C20.6139 58.1628 21.2936 57.0614 21.9933 55.9638L20.3068 54.8887ZM16.2612 61.6539C15.6136 62.8097 14.987 63.9663 14.3811 65.122L16.1524 66.0507C16.7498 64.9112 17.3676 63.7709 18.006 62.6315L16.2612 61.6539ZM12.5982 68.6399C12.0147 69.8315 11.453 71.0204 10.9128 72.2047L12.7324 73.0347C13.2651 71.8668 13.819 70.6945 14.3944 69.5195L12.5982 68.6399ZM9.32584 75.8138C9.06985 76.4184 8.81947 77.0212 8.57466 77.6221L10.4268 78.3767C10.6682 77.7842 10.9151 77.1898 11.1675 76.5936L9.32584 75.8138ZM8.55061 77.6876C8.3485 78.3034 8.1497 78.9243 7.95423 79.5502L9.86331 80.1464C10.0559 79.5295 10.2518 78.9178 10.4509 78.3112L8.55061 77.6876ZM6.82175 83.3649C6.45791 84.6553 6.10765 85.9649 5.77122 87.2928L7.70996 87.784C8.04212 86.473 8.38779 85.1806 8.74671 83.9076L6.82175 83.3649ZM4.85129 91.1203C4.55723 92.412 4.27581 93.7195 4.00724 95.042L5.96724 95.44C6.23274 94.1326 6.51087 92.8405 6.8014 91.5642L4.85129 91.1203ZM3.25285 98.9838C3.02079 100.274 2.80063 101.577 2.59256 102.892L4.56799 103.204C4.77389 101.903 4.99171 100.614 5.22124 99.338L3.25285 98.9838ZM2.0048 106.874C1.82562 108.18 1.65811 109.497 1.50246 110.825L3.48886 111.058C3.643 109.743 3.80886 108.439 3.98624 107.145L2.0048 106.874ZM1.07722 114.779C0.947084 116.107 0.828607 117.444 0.72196 118.791L2.71572 118.949C2.82139 117.614 2.93877 116.289 3.06768 114.974L1.07722 114.779ZM0.444081 122.752C0.363469 124.069 0.294053 125.395 0.235984 126.728L2.23409 126.815C2.29165 125.493 2.36046 124.18 2.44035 122.874L0.444081 122.752ZM0.0959728 130.748C0.0615528 132.065 0.0381154 133.389 0.0258036 134.718L2.02572 134.737C2.03793 133.418 2.06116 132.106 2.09529 130.801L0.0959728 130.748ZM0.0222035 138.7C0.0320867 140.033 0.0531 141.372 0.085384 142.715L2.08481 142.667C2.05279 141.335 2.03195 140.007 2.02215 138.685L0.0222035 138.7ZM0.213277 146.69C0.266527 148.011 0.330644 149.336 0.405759 150.665L2.40257 150.553C2.32807 149.234 2.26447 147.919 2.21165 146.609L0.213277 146.69ZM0.664231 154.665C0.760305 155.986 0.867244 157.31 0.985173 158.638L2.97733 158.461C2.86034 157.144 2.75426 155.83 2.65896 154.52L0.664231 154.665ZM1.36876 162.597C1.50752 163.92 1.65722 165.245 1.818 166.573L3.80349 166.332C3.644 165.015 3.49549 163.701 3.35784 162.389L1.36876 162.597ZM2.33001 170.535C2.50997 171.845 2.70077 173.157 2.90252 174.47L4.87933 174.166C4.67919 172.863 4.48992 171.562 4.3114 170.263L2.33001 170.535ZM3.54077 178.413C3.76407 179.726 3.99841 181.039 4.24389 182.353L6.20988 181.986C5.96639 180.683 5.73395 179.38 5.51244 178.077L3.54077 178.413ZM5.00545 186.255C5.2703 187.556 5.54617 188.858 5.83319 190.159L7.78622 189.728C7.50156 188.437 7.22795 187.147 6.96526 185.856L5.00545 186.255ZM6.72778 194.06C7.03455 195.349 7.35239 196.638 7.68141 197.925L9.61913 197.43C9.29287 196.153 8.97767 194.876 8.67344 193.597L6.72778 194.06ZM8.70091 201.78C9.05197 203.063 9.41429 204.346 9.78799 205.626L11.7079 205.066C11.3374 203.797 10.9782 202.525 10.6301 201.252L8.70091 201.78ZM10.9385 209.447C11.3321 210.715 11.737 211.98 12.1533 213.243L14.0528 212.617C13.6401 211.365 13.2387 210.111 12.8485 208.854L10.9385 209.447ZM13.4368 217.025C13.8756 218.282 14.3259 219.535 14.7878 220.786L16.6639 220.093C16.2061 218.854 15.7598 217.611 15.3249 216.366L13.4368 217.025ZM16.2024 224.512C16.6855 225.751 17.1803 226.986 17.6868 228.218L19.5365 227.457C19.0346 226.237 18.5444 225.013 18.0657 223.785L16.2024 224.512ZM19.2417 231.9C19.7699 233.119 20.3098 234.334 20.8616 235.545L22.6814 234.715C22.1349 233.516 21.6 232.313 21.0768 231.105L19.2417 231.9ZM22.5517 239.16C23.127 240.36 23.7143 241.556 24.3136 242.746L26.1 241.847C25.5065 240.668 24.925 239.484 24.3553 238.295L22.5517 239.16ZM26.1445 246.295C26.7657 247.47 27.399 248.64 28.0444 249.803L29.7934 248.833C29.1545 247.681 28.5277 246.523 27.9127 245.36L26.1445 246.295ZM30.0175 253.277C30.6872 254.428 31.3692 255.573 32.0636 256.712L33.7711 255.671C33.084 254.544 32.4091 253.411 31.7463 252.271L30.0175 253.277ZM34.1758 260.095C34.8923 261.216 35.6212 262.33 36.3626 263.437L38.0243 262.324C37.2909 261.229 36.5699 260.127 35.861 259.018L34.1758 260.095ZM38.6244 266.736C39.388 267.824 40.1642 268.905 40.9529 269.978L42.5643 268.793C41.7843 267.732 41.0167 266.663 40.2615 265.587L38.6244 266.736ZM43.3531 273.167C44.1658 274.222 44.9912 275.269 45.8294 276.308L47.3857 275.051C46.5571 274.025 45.7411 272.99 44.9376 271.947L43.3531 273.167ZM48.377 279.391C49.2341 280.404 50.1039 281.409 50.9865 282.405L52.4832 281.078C51.6109 280.094 50.7512 279.101 49.904 278.099L48.377 279.391ZM53.6728 285.364C54.5811 286.342 55.5023 287.31 56.4365 288.268L57.8686 286.872C56.9456 285.925 56.0354 284.968 55.1378 284.003L53.6728 285.364ZM59.252 291.088C60.2015 292.016 61.1637 292.935 62.1389 293.843L63.5022 292.38C62.5389 291.483 61.5883 290.575 60.6503 289.658L59.252 291.088ZM65.1031 296.538C66.099 297.422 67.1077 298.295 68.1294 299.157L69.4195 297.629C68.4104 296.777 67.414 295.915 66.4303 295.042L65.1031 296.538ZM71.2017 301.687C72.2385 302.519 73.2881 303.341 74.3505 304.151L75.5637 302.561C74.5144 301.761 73.4778 300.949 72.4538 300.127L71.2017 301.687ZM77.5765 306.55C78.6472 307.325 79.7305 308.09 80.8264 308.843L81.9592 307.195C80.8769 306.451 79.8071 305.696 78.7497 304.93L77.5765 306.55ZM84.1379 311.059C85.2543 311.786 86.3832 312.502 87.5249 313.206L88.5746 311.504C87.4471 310.809 86.3321 310.102 85.2296 309.383L84.1379 311.059ZM90.9714 315.273C92.1081 315.936 93.257 316.587 94.418 317.226L95.3829 315.474C94.2361 314.843 93.1013 314.199 91.9786 313.545L90.9714 315.273ZM97.9378 319.109C99.1232 319.725 100.321 320.328 101.531 320.92L102.409 319.123C101.214 318.538 100.031 317.942 98.8596 317.334L97.9378 319.109ZM105.142 322.631C106.337 323.18 107.544 323.717 108.762 324.242L109.554 322.405C108.35 321.886 107.158 321.356 105.977 320.813L105.142 322.631ZM112.452 325.781C113.694 326.282 114.948 326.771 116.213 327.247L116.917 325.375C115.667 324.904 114.428 324.421 113.2 323.926L112.452 325.781ZM119.95 328.604C121.19 329.039 122.44 329.462 123.702 329.872L124.321 327.971C123.074 327.564 121.837 327.147 120.612 326.717L119.95 328.604ZM127.52 331.068C128.804 331.455 130.099 331.829 131.405 332.191L131.939 330.264C130.647 329.906 129.366 329.535 128.097 329.153L127.52 331.068ZM135.242 333.21C136.511 333.533 137.792 333.844 139.082 334.144L139.534 332.195C138.257 331.899 136.991 331.591 135.734 331.272L135.242 333.21ZM142.984 335.007C144.295 335.283 145.617 335.547 146.949 335.799L147.32 333.833C146.002 333.584 144.694 333.323 143.396 333.05L142.984 335.007ZM150.877 336.501C152.163 336.718 153.459 336.924 154.764 337.118L155.059 335.14C153.766 334.948 152.483 334.744 151.21 334.529L150.877 336.501ZM158.708 337.668C160.032 337.84 161.366 338 162.709 338.149L162.93 336.161C161.598 336.014 160.277 335.855 158.965 335.685L158.708 337.668ZM166.742 338.558C168.032 338.677 169.33 338.786 170.637 338.883L170.786 336.889C169.491 336.792 168.204 336.685 166.926 336.567L166.742 338.558ZM174.584 339.144C175.909 339.221 177.242 339.286 178.584 339.341L178.665 337.342C177.334 337.288 176.012 337.223 174.699 337.148L174.584 339.144ZM182.636 339.471C183.957 339.503 185.286 339.524 186.624 339.535L186.64 337.535C185.313 337.524 183.994 337.503 182.684 337.472L182.636 339.471ZM190.541 339.536C191.854 339.526 193.176 339.506 194.505 339.476L194.46 337.477C193.141 337.506 191.829 337.526 190.526 337.536L190.541 339.536ZM198.517 339.355C199.863 339.305 201.216 339.244 202.577 339.173L202.473 337.176C201.121 337.246 199.778 337.307 198.442 337.357L198.517 339.355ZM206.539 338.938C207.833 338.852 209.134 338.757 210.442 338.652L210.283 336.659C208.983 336.763 207.691 336.857 206.406 336.942L206.539 338.938ZM214.388 338.311C215.71 338.187 217.039 338.055 218.376 337.912L218.164 335.923C216.836 336.065 215.515 336.197 214.202 336.319L214.388 338.311ZM222.408 337.456C223.728 337.298 225.055 337.131 226.389 336.954L226.126 334.972C224.801 335.147 223.482 335.313 222.17 335.47L222.408 337.456ZM230.248 336.421C231.541 336.234 232.84 336.039 234.146 335.835L233.837 333.859C232.539 334.062 231.247 334.256 229.962 334.441L230.248 336.421ZM238.082 335.197C239.4 334.975 240.725 334.745 242.057 334.505L241.703 332.537C240.379 332.775 239.061 333.004 237.751 333.224L238.082 335.197ZM246.07 333.761C247.346 333.517 248.627 333.265 249.915 333.005L249.518 331.044C248.238 331.303 246.963 331.554 245.694 331.797L246.07 333.761ZM253.742 332.211C255.024 331.938 256.311 331.658 257.604 331.369L257.168 329.417C255.882 329.704 254.601 329.984 253.326 330.255L253.742 332.211ZM261.5 330.479C262.805 330.174 264.115 329.861 265.431 329.54L264.957 327.597C263.647 327.917 262.343 328.228 261.045 328.531L261.5 330.479ZM269.396 328.552C270.651 328.233 271.91 327.907 273.175 327.573L272.664 325.64C271.406 325.972 270.152 326.296 268.903 326.614L269.396 328.552ZM276.947 326.56C278.209 326.215 279.476 325.863 280.749 325.503L280.205 323.579C278.938 323.937 277.676 324.288 276.419 324.631L276.947 326.56ZM284.582 324.402C285.865 324.028 287.153 323.646 288.446 323.257L287.869 321.342C286.582 321.729 285.299 322.11 284.022 322.482L284.582 324.402ZM292.341 322.066C292.993 321.864 293.646 321.66 294.3 321.454L293.7 319.546C293.048 319.751 292.397 319.955 291.748 320.156L292.341 322.066ZM294.3 321.454C294.966 321.244 295.629 321.036 296.289 320.827L295.688 318.92C295.027 319.128 294.365 319.337 293.7 319.546L294.3 321.454ZM300.225 319.584C301.528 319.171 302.821 318.761 304.106 318.353L303.5 316.447C302.216 316.855 300.924 317.265 299.621 317.677L300.225 319.584ZM307.932 317.135C309.198 316.731 310.455 316.33 311.703 315.93L311.094 314.025C309.846 314.425 308.59 314.826 307.324 315.23L307.932 317.135ZM315.421 314.738C316.681 314.334 317.932 313.931 319.174 313.531L318.56 311.628C317.319 312.027 316.069 312.43 314.81 312.834L315.421 314.738ZM323.114 312.26C324.417 311.838 325.709 311.42 326.992 311.004L326.375 309.101C325.093 309.517 323.801 309.936 322.498 310.357L323.114 312.26ZM330.81 309.763C332.072 309.352 333.325 308.944 334.568 308.538L333.947 306.637C332.705 307.043 331.453 307.451 330.191 307.861L330.81 309.763ZM338.266 307.329C339.552 306.909 340.826 306.491 342.091 306.076L341.467 304.175C340.203 304.59 338.929 305.008 337.644 305.429L338.266 307.329ZM346.002 304.79C347.295 304.364 348.576 303.942 349.846 303.523L349.219 301.624C347.95 302.043 346.669 302.465 345.377 302.89L346.002 304.79ZM353.623 302.275C354.872 301.862 356.109 301.453 357.335 301.046L356.706 299.148C355.48 299.554 354.243 299.963 352.995 300.376L353.623 302.275ZM361.091 299.8C362.41 299.362 363.717 298.928 365.01 298.498L364.379 296.6C363.086 297.03 361.78 297.464 360.461 297.902L361.091 299.8ZM368.854 297.219C370.124 296.796 371.38 296.378 372.625 295.963L371.993 294.066C370.748 294.48 369.492 294.899 368.223 295.321L368.854 297.219ZM376.323 294.73C377.608 294.302 378.881 293.878 380.14 293.458L379.507 291.561C378.248 291.981 376.976 292.405 375.691 292.833L376.323 294.73ZM384.034 292.16C385.318 291.733 386.588 291.309 387.845 290.891L387.214 288.993C385.956 289.412 384.686 289.835 383.401 290.263L384.034 292.16ZM391.577 289.65C392.831 289.233 394.072 288.822 395.299 288.415L394.67 286.516C393.442 286.923 392.201 287.335 390.947 287.752L391.577 289.65ZM399.219 287.118C400.51 286.691 401.787 286.27 403.049 285.855L402.424 283.955C401.161 284.371 399.884 284.792 398.592 285.219L399.219 287.118ZM406.792 284.628C408.053 284.215 409.298 283.809 410.53 283.409L409.912 281.507C408.679 281.907 407.432 282.314 406.17 282.727L406.792 284.628ZM414.446 282.141C415.736 281.725 417.009 281.317 418.267 280.915L417.659 279.01C416.399 279.412 415.124 279.821 413.833 280.237L414.446 282.141ZM421.994 279.732C423.293 279.322 424.576 278.92 425.842 278.526L425.248 276.617C423.979 277.011 422.694 277.414 421.392 277.825L421.994 279.732ZM429.723 277.328C431 276.938 432.26 276.555 433.504 276.182L432.929 274.266C431.681 274.641 430.417 275.024 429.138 275.416L429.723 277.328ZM437.295 275.056C438.619 274.668 439.925 274.289 441.214 273.921L440.665 271.998C439.371 272.368 438.06 272.747 436.731 273.137L437.295 275.056ZM445.03 272.849C446.317 272.493 447.587 272.148 448.841 271.814L448.326 269.881C447.066 270.217 445.79 270.564 444.497 270.921L445.03 272.849ZM452.776 270.789C454.07 270.459 455.346 270.143 456.607 269.838L456.137 267.894C454.869 268.201 453.584 268.519 452.283 268.85L452.776 270.789ZM460.494 268.929C461.82 268.629 463.129 268.343 464.422 268.072L464.012 266.115C462.708 266.388 461.388 266.676 460.052 266.978L460.494 268.929ZM468.254 267.305C469.599 267.048 470.927 266.808 472.24 266.585L471.905 264.613C470.578 264.838 469.236 265.081 467.879 265.34L468.254 267.305ZM476.151 265.964C477.479 265.769 478.792 265.592 480.094 265.433L479.852 263.447C478.533 263.608 477.203 263.788 475.86 263.985L476.151 265.964ZM484.058 265.002C485.38 264.876 486.692 264.77 487.995 264.683L487.863 262.688C486.54 262.776 485.209 262.883 483.869 263.011L484.058 265.002ZM491.982 264.479C493.304 264.431 494.621 264.404 495.933 264.399L495.924 262.399C494.591 262.405 493.253 262.432 491.91 262.48L491.982 264.479ZM499.912 264.445C501.236 264.482 502.558 264.54 503.881 264.62L504.002 262.624C502.657 262.543 501.313 262.483 499.968 262.446L499.912 264.445ZM507.827 264.923C509.143 265.046 510.463 265.19 511.788 265.355L512.036 263.37C510.69 263.202 509.349 263.056 508.012 262.932L507.827 264.923ZM515.704 265.904C517.004 266.106 518.312 266.328 519.63 266.571L519.993 264.605C518.657 264.358 517.331 264.132 516.011 263.928L515.704 265.904ZM523.532 267.346C524.808 267.616 526.095 267.906 527.394 268.214L527.856 266.268C526.542 265.956 525.239 265.663 523.947 265.389L523.532 267.346ZM531.316 269.193C532.561 269.518 533.819 269.86 535.091 270.219L535.634 268.294C534.35 267.932 533.08 267.586 531.822 267.258L531.316 269.193ZM538.951 271.348C540.203 271.725 541.469 272.119 542.751 272.528L543.359 270.623C542.068 270.211 540.791 269.814 539.529 269.433L538.951 271.348ZM546.51 273.759C547.778 274.184 549.063 274.623 550.365 275.078L551.024 273.19C549.715 272.732 548.422 272.29 547.145 271.862L546.51 273.759ZM554.063 276.392C555.292 276.836 556.536 277.293 557.797 277.763L558.495 275.888C557.228 275.417 555.978 274.958 554.742 274.511L554.063 276.392ZM561.631 279.209C562.832 279.668 564.048 280.138 565.279 280.619L566.007 278.756C564.771 278.274 563.551 277.802 562.345 277.341L561.631 279.209ZM568.974 282.076C570.222 282.573 571.485 283.08 572.766 283.598L573.516 281.744C572.232 281.225 570.965 280.716 569.714 280.218L568.974 282.076ZM576.441 285.095C577.639 285.587 578.852 286.087 580.08 286.597L580.846 284.75C579.616 284.239 578.401 283.738 577.2 283.245L576.441 285.095ZM583.809 288.153C585.058 288.676 586.322 289.209 587.601 289.75L588.381 287.908C587.099 287.366 585.833 286.833 584.583 286.309L583.809 288.153ZM591.169 291.265C592.372 291.778 593.589 292.298 594.821 292.826L595.609 290.987C594.376 290.459 593.158 289.938 591.953 289.425L591.169 291.265ZM598.558 294.432C599.795 294.965 601.047 295.505 602.313 296.053L603.107 294.218C601.84 293.669 600.588 293.129 599.35 292.595L598.558 294.432ZM605.875 297.597C607.075 298.118 608.288 298.646 609.515 299.18L610.313 297.346C609.086 296.812 607.872 296.284 606.672 295.763L605.875 297.597ZM613.233 300.801C614.486 301.347 615.753 301.9 617.033 302.46L617.834 300.627C616.554 300.068 615.287 299.514 614.033 298.967L613.233 300.801ZM620.589 304.015C621.779 304.535 622.981 305.061 624.195 305.593L624.997 303.761C623.783 303.229 622.581 302.703 621.391 302.182L620.589 304.015ZM627.873 307.203C629.111 307.745 630.361 308.293 631.624 308.846L632.426 307.013C631.163 306.461 629.913 305.913 628.675 305.371L627.873 307.203ZM635.362 310.482C636.536 310.996 637.721 311.515 638.917 312.038L639.718 310.205C638.523 309.682 637.338 309.164 636.164 308.65L635.362 310.482ZM642.536 313.621C643.753 314.153 644.982 314.689 646.221 315.23L647.021 313.397C645.782 312.856 644.554 312.32 643.337 311.788L642.536 313.621ZM649.972 316.867C651.22 317.412 652.479 317.96 653.75 318.513L654.548 316.68C653.278 316.127 652.02 315.578 650.772 315.034L649.972 316.867ZM657.299 320.057C658.491 320.576 659.694 321.098 660.906 321.624L661.702 319.79C660.49 319.264 659.288 318.742 658.096 318.223L657.299 320.057ZM664.572 323.214C665.804 323.748 667.046 324.286 668.299 324.827L669.092 322.991C667.841 322.45 666.599 321.913 665.367 321.379L664.572 323.214ZM672.086 326.463C673.303 326.988 674.53 327.517 675.767 328.05L676.558 326.213C675.322 325.68 674.095 325.152 672.878 324.627L672.086 326.463ZM679.342 329.587C680.542 330.103 681.752 330.622 682.97 331.144L683.758 329.306C682.54 328.784 681.331 328.265 680.131 327.75L679.342 329.587ZM686.651 332.72C687.888 333.249 689.133 333.781 690.387 334.316L691.172 332.477C689.918 331.942 688.674 331.41 687.438 330.882L686.651 332.72ZM694.178 335.931C695.411 336.456 696.653 336.984 697.904 337.515L698.685 335.674C697.435 335.143 696.194 334.616 694.961 334.091L694.178 335.931ZM701.479 339.031C702.678 339.539 703.886 340.05 705.101 340.563L705.88 338.721C704.665 338.208 703.458 337.697 702.258 337.189L701.479 339.031ZM708.772 342.112C710.004 342.631 711.244 343.153 712.492 343.677L713.266 341.833C712.019 341.309 710.78 340.788 709.549 340.269L708.772 342.112ZM716.26 345.259C717.525 345.789 718.797 346.322 720.079 346.857L720.85 345.012C719.569 344.477 718.297 343.944 717.033 343.414L716.26 345.259ZM723.731 348.382C724.923 348.879 726.122 349.378 727.329 349.88L728.097 348.033C726.891 347.532 725.692 347.033 724.501 346.536L723.731 348.382ZM730.969 351.392C732.19 351.898 733.418 352.407 734.653 352.918L735.417 351.07C734.183 350.559 732.955 350.051 731.735 349.545L730.969 351.392ZM738.381 354.458C739.631 354.974 740.888 355.492 742.153 356.012L742.914 354.163C741.65 353.643 740.393 353.125 739.143 352.609L738.381 354.458ZM745.969 357.581C747.208 358.089 748.454 358.6 749.707 359.112L750.465 357.261C749.212 356.749 747.967 356.239 746.729 355.73L745.969 357.581ZM753.302 360.582C754.507 361.074 755.719 361.568 756.937 362.063L757.691 360.211C756.473 359.715 755.263 359.222 754.058 358.73L753.302 360.582ZM760.61 363.557C761.841 364.057 763.078 364.559 764.323 365.063L765.073 363.209C763.83 362.705 762.593 362.204 761.362 361.704L760.61 363.557ZM768.075 366.58C769.333 367.088 770.597 367.598 771.867 368.11L772.615 366.255C771.345 365.743 770.081 365.234 768.824 364.726L768.075 366.58Z" fill="#F6D155"/>
</svg>
