<svg width="70" height="38" viewBox="0 0 70 38" fill="none" xmlns="http://www.w3.org/2000/svg">
<g clip-path="url(#clip0_2754_70797)">
<path d="M65.6418 0.325806H10.7169C8.47669 0.325806 6.62268 2.16197 6.62268 4.46694V29.8998C6.62268 29.9388 6.62268 29.9779 6.62268 30.017C6.62268 33.6893 4.11205 36.8928 0.597168 37.7523H65.6418C67.8821 37.7523 69.7361 35.9161 69.7361 33.6111V4.42787C69.7361 2.16197 67.9207 0.325806 65.6418 0.325806Z" fill="#CC0000"/>
<path d="M28.2913 15.0151L26.4373 23.6881C26.7849 23.7271 27.1711 23.6099 27.4415 23.3755C27.7119 22.8677 27.8664 22.3207 27.9823 21.7738L29.0638 16.656C29.141 16.2653 29.2183 15.8746 29.2569 15.4839C29.2569 15.3277 29.1796 15.2105 29.0638 15.1323C28.7934 15.0151 28.5616 14.9761 28.2913 15.0151ZM25.3171 12.7492H27.905C29.0251 12.7102 30.1453 12.7883 31.2654 12.9836C31.7289 13.0618 32.1538 13.3352 32.4628 13.7259C32.6945 14.0775 32.8104 14.4682 32.8104 14.8979C32.7332 15.7574 32.5787 16.5778 32.3855 17.3982L31.3813 22.0082C31.2268 22.8286 31.0337 23.6099 30.7247 24.3913C30.5702 24.782 30.2998 25.0945 29.9522 25.3289C29.6045 25.5633 29.2183 25.7196 28.7934 25.7977C28.1754 25.9149 27.5574 25.954 26.9008 25.9149H22.5361L25.3171 12.7492ZM37.5613 12.7492L37.2137 14.4682H33.8147L34.1623 12.7492H37.5613ZM37.0592 15.1323L34.7803 25.9149H31.3813L33.6602 15.1323H37.0592ZM44.1662 19.0781H41.1534L41.4238 17.867C41.5011 17.5936 41.5397 17.281 41.5011 17.0076C41.4624 16.8513 41.3079 16.7732 41.1534 16.7732C40.9989 16.7732 40.8444 16.8513 40.7286 16.9685C40.5741 17.242 40.4968 17.5545 40.4582 17.867L39.4153 22.9067C39.3381 23.1802 39.3381 23.4927 39.3767 23.7662C39.4153 23.9225 39.5698 24.0397 39.7243 24.0397C39.9174 24.0397 40.1492 23.9225 40.2264 23.7271C40.3809 23.3755 40.5354 22.9849 40.5741 22.5942L40.8444 21.344H43.7027C43.5868 22.0082 43.3937 22.6333 43.2006 23.2583C42.8143 24.3131 42.0032 25.1336 40.9989 25.6024C40.4196 25.8368 39.7629 25.954 39.1449 25.954C38.4111 25.993 37.7158 25.8368 37.0978 25.4852C36.6343 25.1726 36.3253 24.7038 36.248 24.1569C36.1708 23.3365 36.2094 22.516 36.4412 21.7347L37.0592 18.6875C37.175 17.9842 37.4068 17.281 37.7544 16.6169C38.102 16.0699 38.6042 15.6793 39.1835 15.3667C39.8788 15.0151 40.6513 14.8198 41.4624 14.8198C42.1963 14.7807 42.8916 14.9761 43.5096 15.3667C43.9731 15.6793 44.3207 16.1481 44.3979 16.7341C44.4752 17.5154 44.3979 18.2968 44.2048 19.0781M49.7282 18.8828L49.9213 18.1014C50.0372 17.7498 50.0758 17.3982 50.0758 17.0076C50.0372 16.8513 49.9213 16.7732 49.7282 16.7732C49.5351 16.7341 49.342 16.8122 49.2261 16.9685C49.0716 17.3201 48.9557 17.7108 48.8785 18.0624L48.6853 18.8437L49.7282 18.8828ZM52.7796 20.6408H48.3377L47.8356 22.9458C47.7583 23.2583 47.7197 23.5709 47.7583 23.8834C47.797 24.0397 47.9128 24.0787 48.1446 24.0787C48.3763 24.0787 48.6081 24.0006 48.724 23.8053C48.9171 23.4537 49.033 23.1021 49.1102 22.7505L49.4192 21.344H52.6637L52.4706 22.1254C52.3547 22.6332 52.2002 23.1802 52.0071 23.649C51.505 24.5866 50.6938 25.2898 49.7282 25.6805C49.1102 25.9149 48.4536 25.993 47.7969 25.993C47.1789 25.993 46.5609 25.9149 45.9429 25.6805C45.0932 25.407 44.4752 24.6257 44.4366 23.7271C44.4366 23.1021 44.5138 22.516 44.6683 21.891L45.3636 18.7656C45.5181 17.9842 45.8271 17.242 46.2519 16.5387C46.6382 15.9918 47.2176 15.5621 47.8356 15.2886C48.5308 15.0151 49.2647 14.8589 49.9986 14.8589C50.7711 14.8198 51.5822 15.0151 52.2388 15.3667C52.741 15.6402 53.1272 16.1481 53.2431 16.7341C53.359 17.5545 53.3203 18.3749 53.0886 19.1563L52.7796 20.6408ZM55.3288 13.7259H55.6378C55.7537 13.7259 55.8696 13.7259 55.9468 13.6478C56.0241 13.6087 56.0627 13.5306 56.0241 13.4524C56.0241 13.3743 55.9855 13.2962 55.9468 13.2571C55.8696 13.218 55.7537 13.179 55.6765 13.179H55.3288V13.7259ZM54.9426 14.7807V12.9446H55.7923C55.9468 12.9446 56.14 12.9836 56.2559 13.1008C56.3717 13.218 56.4104 13.3352 56.4104 13.4915C56.4104 13.6087 56.3717 13.7259 56.2945 13.8431C56.1786 13.9603 56.0627 13.9994 55.9082 13.9994C55.9855 14.0384 56.0241 14.0775 56.1013 14.1166C56.1786 14.2338 56.2558 14.3119 56.2945 14.4291L56.5262 14.7807H56.0627L55.9082 14.4682C55.831 14.351 55.7537 14.2338 55.6765 14.1166C55.5992 14.0384 55.522 13.9994 55.4061 14.0384H55.3288V14.7807H54.9426ZM55.7537 12.4758C55.3675 12.4758 54.9812 12.632 54.7495 12.9055C54.4791 13.179 54.3632 13.5306 54.3632 13.8822C54.3632 14.6635 54.9812 15.2886 55.7537 15.2886C56.5262 15.2886 57.1442 14.6635 57.1442 13.8822C57.1442 13.6087 57.067 13.3743 56.9511 13.1399C56.8352 12.9446 56.6421 12.7492 56.4104 12.632C56.2172 12.5148 56.0241 12.4367 55.7923 12.3976L55.7537 12.4758ZM55.6765 12.1241C56.14 12.1241 56.6035 12.2804 56.9511 12.632C57.6077 13.2962 57.6077 14.39 56.9511 15.0933C56.2945 15.7965 55.213 15.7574 54.5177 15.0933C54.2087 14.7807 54.0156 14.3119 54.0156 13.8822C54.0156 13.5696 54.0928 13.218 54.286 12.9446C54.4405 12.6711 54.6722 12.4758 54.9426 12.3195C55.1357 12.2023 55.4061 12.1241 55.6765 12.1241Z" fill="#FFFFFE"/>
</g>
<defs>
<clipPath id="clip0_2754_70797">
<rect width="69" height="38" fill="white" transform="translate(0.666504)"/>
</clipPath>
</defs>
</svg>
