<svg width="104" height="29" viewBox="0 0 104 29" fill="none" xmlns="http://www.w3.org/2000/svg">
<path fill-rule="evenodd" clip-rule="evenodd" d="M103.361 5.1765C102.997 4.74875 102.507 4.5385 101.856 4.5385C101.205 4.5385 100.694 4.76325 100.337 5.2345C99.9875 5.69125 99.8056 6.37275 99.8056 7.25V13.688C98.9938 12.7817 98.154 12.1365 97.2932 11.7015C96.7614 11.4332 96.1315 11.2375 95.4247 11.1432C95.0118 11.0925 94.5989 11.0635 94.137 11.0635C91.9956 11.0635 90.26 11.8247 88.9304 13.3617C87.6147 14.8842 86.9569 17.0085 86.9569 19.7272C86.9569 21.0105 87.1249 22.214 87.4608 23.316C87.7967 24.4107 88.2726 25.375 88.9164 26.2015C89.5602 27.0135 90.337 27.6442 91.2118 28.101C92.0866 28.5432 93.0453 28.768 94.088 28.768C94.5639 28.768 95.0188 28.7245 95.4317 28.6447C95.7186 28.6012 95.9706 28.5215 96.2435 28.4417C96.9013 28.217 97.5172 27.8907 98.077 27.4775C98.6579 27.0497 99.2247 26.506 99.8056 25.8317V26.2595C99.8056 27.0642 100.002 27.6732 100.386 28.1155C100.785 28.5432 101.275 28.768 101.856 28.768C102.465 28.768 102.955 28.5577 103.326 28.1517C103.697 27.724 103.907 27.1077 103.907 26.2667V7.018C103.886 6.2205 103.711 5.58975 103.361 5.1765ZM99.0008 22.9462C98.6299 23.7582 98.112 24.3745 97.5032 24.7733C96.8733 25.172 96.1875 25.3605 95.4247 25.3605H95.4107C94.6479 25.3605 93.9691 25.1502 93.3322 24.7442C92.7024 24.3165 92.1985 23.7002 91.8346 22.8737C91.4707 22.0472 91.2958 21.0322 91.2958 19.8577C91.2958 18.734 91.4637 17.748 91.8136 16.9215C92.1495 16.0805 92.6394 15.428 93.2553 14.9712C93.8851 14.5072 94.5849 14.2897 95.3827 14.2897H95.4247C96.1735 14.2897 96.8523 14.5145 97.4892 14.9567C98.119 15.399 98.6229 16.037 98.9938 16.8635C99.3647 17.69 99.5466 18.705 99.5466 19.8577C99.5606 21.0902 99.3787 22.1197 99.0008 22.9462ZM85.3963 23.1347C85.1234 22.8955 84.7665 22.7722 84.3116 22.7722C83.8987 22.7722 83.6048 22.881 83.3738 23.055C82.835 23.5625 82.3941 23.9757 82.0582 24.273C81.7223 24.5557 81.3514 24.8312 80.9385 25.0995C80.5536 25.3533 80.1267 25.5562 79.6998 25.6577C79.2589 25.781 78.797 25.8462 78.2792 25.8462C78.1602 25.8462 78.0622 25.8462 77.9572 25.8317C77.3134 25.7882 76.7046 25.607 76.1657 25.2735C75.5219 24.8892 75.018 24.3237 74.6191 23.5915C74.2482 22.8302 74.0383 21.9457 74.0243 20.9597H82.4921C83.6258 20.9597 84.5005 20.7857 85.1234 20.4812C85.7532 20.1477 86.0611 19.4372 86.0611 18.3425C86.0611 17.1535 85.7532 15.9935 85.1444 14.8552C84.5355 13.717 83.6468 12.789 82.4221 12.0785C81.2114 11.3607 79.7698 11.0127 78.0762 11.0127H77.9502C76.6976 11.0272 75.5499 11.2375 74.5351 11.6435C73.4644 12.0712 72.5756 12.673 71.8268 13.4487C71.12 14.239 70.5532 15.1815 70.1752 16.2907C69.7973 17.4 69.5944 18.6035 69.5944 19.8795C69.5944 22.62 70.3712 24.766 71.9038 26.3682C73.3594 27.8762 75.3679 28.681 77.9362 28.7607C78.0762 28.7752 78.2302 28.7752 78.3841 28.7752C79.5808 28.7752 80.6655 28.6157 81.6033 28.2967C82.541 27.9777 83.3178 27.579 83.9337 27.0933C84.5495 26.6003 85.0184 26.0928 85.3123 25.5707C85.6202 25.0487 85.7742 24.5847 85.7742 24.1933C85.8162 23.722 85.6762 23.3667 85.3963 23.1347ZM75.3119 15.1525C75.9977 14.4057 76.8865 14.0287 77.9642 14.0287H77.9782C79.0979 14.0287 80.0147 14.3912 80.7005 15.1235C81.3863 15.8557 81.7992 16.9795 81.8832 18.473H74.0452C74.1922 17.0085 74.6051 15.8992 75.3119 15.1525ZM67.0051 22.765C66.5782 22.765 66.2843 22.8737 66.0533 23.0477C65.5215 23.5552 65.0736 23.9685 64.7377 24.2657C64.4017 24.5485 64.0448 24.824 63.6319 25.0922C63.2331 25.346 62.8202 25.549 62.3793 25.6505C61.9524 25.7737 61.4765 25.839 60.9586 25.839C60.8397 25.839 60.7417 25.839 60.6367 25.8245C59.9929 25.781 59.384 25.5997 58.8452 25.2662C58.2154 24.882 57.6975 24.3165 57.3266 23.5842C56.9277 22.823 56.7317 21.9385 56.7177 20.9525H65.1715C66.2913 20.9525 67.166 20.7785 67.8029 20.474C68.4187 20.1405 68.7336 19.43 68.7336 18.3352C68.7336 17.1462 68.4397 15.9862 67.8309 14.848C67.222 13.7097 66.3262 12.7817 65.1086 12.0712C63.8979 11.3535 62.4423 11.0055 60.7627 11.0055H60.6227C59.3701 11.02 58.2364 11.2302 57.2076 11.6362C56.1369 12.064 55.2481 12.6657 54.5133 13.4415C53.7925 14.2317 53.2257 15.1742 52.8477 16.2835C52.4628 17.3927 52.2669 18.5962 52.2669 19.8722C52.2669 22.6127 53.0507 24.7587 54.5903 26.361C56.0459 27.869 58.0474 28.6737 60.6087 28.7535C60.7627 28.768 60.9027 28.768 61.0566 28.768C62.2673 28.768 63.338 28.6085 64.2758 28.2895C65.2135 27.9705 65.9903 27.5717 66.5992 27.086C67.229 26.593 67.6839 26.0855 67.9918 25.5635C68.2997 25.0415 68.4537 24.5775 68.4537 24.186C68.4537 23.7437 68.3137 23.3957 68.0408 23.1565C67.8029 22.881 67.425 22.765 67.0051 22.765ZM57.9774 15.1525C58.6632 14.4057 59.552 14.0287 60.6297 14.0287H60.6437C61.7634 14.0287 62.6802 14.3912 63.366 15.1235C64.0588 15.8557 64.4647 16.9795 64.5627 18.473H56.7177C56.8717 17.0085 57.2986 15.8992 57.9774 15.1525ZM9.77393 25.8462V15.4425C10.0679 15.4715 10.3548 15.486 10.6347 15.486C12.0413 15.486 13.357 15.1017 14.4767 14.4347V25.8535C14.4767 26.825 14.2598 27.55 13.8189 28.0285C13.378 28.507 12.8111 28.7462 12.1043 28.7462C11.4185 28.7462 10.8656 28.507 10.4318 28.014C10.0119 27.5137 9.77393 26.8105 9.77393 25.8462ZM50.4824 5.1765C50.1185 4.74875 49.6216 4.5385 48.9847 4.5385C48.3269 4.5385 47.8231 4.76325 47.4661 5.2345C47.1022 5.69125 46.9343 6.37275 46.9343 7.25V13.688C46.1225 12.7817 45.2827 12.1365 44.4219 11.7015C43.8831 11.4332 43.2602 11.2375 42.5674 11.1432C42.1685 11.0925 41.7416 11.0635 41.2797 11.0635C39.1383 11.0635 37.3888 11.8247 36.0731 13.3617C34.7574 14.8842 34.0996 17.0085 34.0996 19.7272C34.0996 21.0105 34.2676 22.214 34.5895 23.316C34.9254 24.4107 35.4153 25.375 36.0591 26.2015C36.7029 27.0135 37.4797 27.6442 38.3545 28.101C39.2433 28.5432 40.188 28.768 41.2308 28.768C41.6926 28.768 42.1475 28.7245 42.5744 28.6447C42.8613 28.6012 43.1133 28.5215 43.3862 28.4417C44.044 28.217 44.6599 27.8907 45.2197 27.4775C45.8006 27.0497 46.3534 26.506 46.9483 25.8317V26.2595C46.9483 27.0642 47.1442 27.6732 47.5291 28.1155C47.9 28.5432 48.4179 28.768 48.9987 28.768C49.5796 28.768 50.0835 28.5577 50.4544 28.1517C50.8253 27.724 51.0072 27.1077 51.0072 26.2667V7.018C50.9932 6.2205 50.8253 5.58975 50.4824 5.1765ZM46.1365 22.9462C45.7656 23.7582 45.2477 24.3745 44.6319 24.7733C44.016 25.172 43.3162 25.3605 42.5674 25.3605H42.5534C41.7906 25.3605 41.1118 25.1502 40.475 24.7442C39.8311 24.3165 39.3413 23.7002 38.9773 22.8737C38.6134 22.0472 38.4385 21.0322 38.4385 19.8577C38.4385 18.734 38.6064 17.748 38.9424 16.9215C39.2923 16.0805 39.7681 15.428 40.398 14.9712C41.0138 14.5072 41.7276 14.2897 42.5114 14.2897H42.5604C43.3092 14.2897 43.988 14.5145 44.6109 14.9567C45.2547 15.399 45.7586 16.037 46.1295 16.8635C46.4934 17.69 46.6823 18.705 46.6823 19.8577C46.6893 21.0902 46.4934 22.1197 46.1365 22.9462ZM21.3909 13.427V13.9635C22.1677 12.9485 22.9865 12.2162 23.8753 11.7305C24.792 11.2665 25.8208 11.02 26.9965 11.02C28.1302 11.02 29.1519 11.2737 30.0477 11.7667C30.9504 12.2597 31.6083 12.9702 32.0422 13.891C32.3361 14.4275 32.518 15.0147 32.595 15.6237C32.672 16.2255 32.721 17.023 32.721 17.9872V26.0782C32.721 26.9627 32.518 27.6152 32.1121 28.0575C31.7272 28.5142 31.1954 28.739 30.5655 28.739C29.9217 28.739 29.4038 28.5142 28.9909 28.043C28.578 27.5862 28.3821 26.9338 28.3821 26.0782V18.8282C28.3821 17.3855 28.1861 16.2907 27.7873 15.5295C27.4024 14.7682 26.6046 14.384 25.4149 14.384C24.6381 14.384 23.9452 14.6232 23.3154 15.08C22.6856 15.544 22.2097 16.1747 21.9088 17.0012C21.7058 17.6537 21.6009 18.8572 21.6009 20.648V26.0855C21.6009 26.9772 21.3979 27.6225 20.985 28.072C20.5721 28.5142 20.0543 28.739 19.4104 28.739C18.7806 28.739 18.2767 28.5142 17.8638 28.043C17.4509 27.5862 17.255 26.9338 17.255 26.0782V13.4995C17.255 12.673 17.4369 12.0422 17.7938 11.6435C18.1438 11.2302 18.6336 11.0127 19.2635 11.0127C19.6344 11.0127 19.9703 11.0925 20.2782 11.281C20.5861 11.4695 20.8311 11.7377 21.027 12.093C21.3139 12.4845 21.3909 12.9195 21.3909 13.427ZM9.80192 0.92075C12.7132 -0.13775 16.0443 -0.0797502 18.5287 2.09525C18.9905 2.5375 19.5224 3.08125 19.7253 3.741C19.9843 4.553 18.8506 3.66125 18.6826 3.538C17.8708 3.0015 17.059 2.552 16.1423 2.24025C11.2435 0.71775 6.60375 3.4655 3.7205 7.7575C2.53781 9.6425 1.74701 11.629 1.10318 13.8185C1.0402 14.0577 0.977212 14.3695 0.844246 14.5797C0.718279 14.819 0.795259 13.9417 0.795259 13.8982C0.900232 12.992 1.08218 12.122 1.29913 11.2448C2.63578 6.59025 5.57502 2.70425 9.80192 0.92075ZM15.4495 9.30175C15.4495 11.281 13.9029 12.8905 11.9924 12.8905C10.0818 12.8905 8.53525 11.2882 8.53525 9.30175C8.53525 7.31525 10.0818 5.713 11.9924 5.713C13.9029 5.713 15.4495 7.31525 15.4495 9.30175Z" fill="#2164F2"/>
</svg>
