<svg width="99" height="27" viewBox="0 0 99 27" fill="none" xmlns="http://www.w3.org/2000/svg">
<path fill-rule="evenodd" clip-rule="evenodd" d="M95.1198 1.81433H74.939C73.974 1.81433 73.1533 2.57622 73.1533 3.51576V23.7493C73.1533 24.6889 73.6912 25.4507 74.6562 25.4507H94.837C95.804 25.4507 96.8343 24.6889 96.8343 23.7493V3.51576C96.8343 2.5782 96.0848 1.81433 95.1198 1.81433ZM82.1748 10.8189H85.3626V12.4413H85.3982C85.8847 11.5669 87.3204 10.6787 89.0942 10.6787C92.5015 10.6787 93.4507 12.4848 93.4507 15.8284V22.0755H90.0672V16.4442C90.0672 14.9481 89.468 13.6335 88.0679 13.6335C86.3672 13.6335 85.5564 14.7823 85.5564 16.6692V22.0755H82.1728V10.8189H82.1748ZM76.5369 22.0755H79.9204V10.8208H76.5369V22.0755ZM80.3417 6.88111C80.3417 8.04763 79.3964 8.99111 78.2277 8.99111C77.059 8.99111 76.1137 8.04763 76.1137 6.88111C76.1137 5.71459 77.059 4.7711 78.2277 4.7711C79.3964 4.7711 80.3417 5.71459 80.3417 6.88111Z" fill="#0A66C2"/>
<path d="M69.7696 22.0755H66.6115V20.7353H66.5779C65.8759 21.5485 64.6557 22.2157 62.5872 22.2157C59.7673 22.2157 57.3408 20.0978 57.3408 16.46C57.3408 12.994 59.7336 10.6787 62.694 10.6787C64.5272 10.6787 65.6643 11.3301 66.3524 12.1591H66.3861V5.19153H69.7696V22.0755ZM63.5443 13.2111C61.6103 13.2111 60.5227 14.5869 60.5227 16.4186C60.5227 18.2503 61.6103 19.6833 63.5443 19.6833C65.4803 19.6833 66.6135 18.2858 66.6135 16.4186C66.6135 14.4981 65.4803 13.2111 63.5443 13.2111Z" fill="#0A66C2"/>
<path d="M55.8557 20.2616C55.0567 21.2939 53.4134 22.2156 50.7596 22.2156C47.2178 22.2156 44.9614 19.8747 44.9614 16.1975C44.9614 12.9308 47.0042 10.6787 50.8584 10.6787C54.1866 10.6787 56.2393 12.8598 56.2393 16.6969C56.2393 17.0798 56.178 17.4607 56.178 17.4607H48.1551L48.1749 17.8081C48.3964 18.7792 49.132 19.9655 50.8149 19.9655C52.2862 19.9655 53.2928 19.176 53.7496 18.5582L55.8557 20.2616ZM52.9823 15.3211C53.0041 14.1329 52.132 12.9289 50.7556 12.9289C49.1182 12.9289 48.2441 14.2059 48.1532 15.3211H52.9823Z" fill="#0A66C2"/>
<path d="M44.9614 10.8189H41.0143L37.0671 15.3211V5.19153H33.6855V22.0755H37.0671V16.4482L41.2397 22.0755H45.2324L40.4507 15.9212L44.9614 10.8189Z" fill="#0A66C2"/>
<path d="M20.1533 10.8189H23.3411V12.4413H23.3767C23.8632 11.5669 25.2989 10.6787 27.0727 10.6787C30.48 10.6787 31.4292 12.8361 31.4292 15.8284V22.0755H28.0457V16.4442C28.0457 14.7882 27.4465 13.6335 26.0464 13.6335C24.3457 13.6335 23.5349 14.9777 23.5349 16.6692V22.0755H20.1514V10.8189H20.1533Z" fill="#0A66C2"/>
<path d="M14.5154 22.0755H17.899V10.8208H14.5154V22.0755ZM16.2082 8.90622C17.3294 8.90622 18.2371 7.99827 18.2371 6.88109C18.2371 5.76391 17.3294 4.85596 16.2082 4.85596C15.0889 4.85596 14.1772 5.76391 14.1772 6.88109C14.1772 7.99827 15.0869 8.90622 16.2082 8.90622Z" fill="#0A66C2"/>
<path d="M5.49391 5.19153H2.11035V22.0755H12.2591V18.6983H5.49391V5.19153Z" fill="#0A66C2"/>
</svg>
