<svg width="14" height="14" viewBox="0 0 14 14" fill="none" xmlns="http://www.w3.org/2000/svg">
<path d="M7.73062 1.16663C7.87501 1.16663 7.99629 1.28913 7.99629 1.43496V3.31329C7.99629 4.38079 8.86263 5.25579 9.92534 5.26163C10.3585 5.26163 10.705 5.26746 10.9707 5.26746C11.1498 5.26746 11.4443 5.26163 11.6927 5.26163C11.8371 5.26163 11.9583 5.37829 11.9583 5.52413V10.2141C11.9583 11.6608 10.7917 12.8333 9.35933 12.8333H4.76774C3.26032 12.8333 2.04167 11.6025 2.04167 10.0858V3.79746C2.04167 2.35079 3.20256 1.16663 4.64646 1.16663H7.73062ZM6.7892 5.09829C6.73144 5.09829 6.67369 5.10996 6.62171 5.13329C6.56973 5.15663 6.52352 5.18579 6.48309 5.22663L4.83128 6.90663C4.66378 7.07579 4.66378 7.34996 4.83128 7.51913C4.99877 7.68829 5.27022 7.68829 5.43771 7.51913L6.35603 6.58579V9.40329C6.35603 9.64246 6.54662 9.83496 6.7892 9.83496C7.026 9.83496 7.21659 9.64246 7.21659 9.40329V6.58579L8.13491 7.51913C8.3024 7.68829 8.57385 7.68829 8.74134 7.51913C8.91461 7.34996 8.91461 7.07579 8.74712 6.90663L7.08953 5.22663C7.0491 5.18579 7.00289 5.15663 6.95091 5.13329C6.89893 5.10996 6.84695 5.09829 6.7892 5.09829ZM8.83473 1.69513C8.83473 1.44371 9.13622 1.31888 9.30891 1.50029C9.93383 2.15596 11.0248 3.30221 11.6347 3.94271C11.8028 4.11946 11.6792 4.41288 11.4361 4.41346C10.9613 4.41521 10.4022 4.41346 9.99967 4.40938C9.36089 4.40938 8.83473 3.87796 8.83473 3.23279V1.69513Z" fill="#131D26"/>
</svg>
