<svg width="14" height="14" viewBox="0 0 14 14" fill="none" xmlns="http://www.w3.org/2000/svg">
<path d="M7.73069 1.16699C7.87508 1.16699 7.99637 1.28949 7.99637 1.43533V3.31366C7.99637 4.38116 8.86271 5.25616 9.92541 5.26199C10.3586 5.26199 10.7051 5.26783 10.9708 5.26783C11.1498 5.26783 11.4444 5.26199 11.6927 5.26199C11.8371 5.26199 11.9584 5.37866 11.9584 5.52449V10.2145C11.9584 11.6612 10.7917 12.8337 9.35941 12.8337H4.76782C3.2604 12.8337 2.04175 11.6028 2.04175 10.0862V3.79783C2.04175 2.35116 3.20264 1.16699 4.64653 1.16699H7.73069ZM6.78927 5.09866C6.73152 5.09866 6.67376 5.11033 6.62178 5.13366C6.5698 5.15699 6.5236 5.18616 6.48317 5.22699L4.83135 6.90699C4.66386 7.07616 4.66386 7.35033 4.83135 7.51949C4.99884 7.68866 5.2703 7.68866 5.43779 7.51949L6.3561 6.58616V9.40366C6.3561 9.64283 6.5467 9.83533 6.78927 9.83533C7.02607 9.83533 7.21667 9.64283 7.21667 9.40366V6.58616L8.13498 7.51949C8.30247 7.68866 8.57393 7.68866 8.74142 7.51949C8.91469 7.35033 8.91469 7.07616 8.74719 6.90699L7.0896 5.22699C7.04917 5.18616 7.00297 5.15699 6.95099 5.13366C6.89901 5.11033 6.84703 5.09866 6.78927 5.09866ZM8.83481 1.69549C8.83481 1.44408 9.13629 1.31924 9.30898 1.50066C9.9339 2.15633 11.0249 3.30258 11.6348 3.94308C11.8029 4.11983 11.6793 4.41324 11.4361 4.41383C10.9614 4.41558 10.4023 4.41383 9.99974 4.40974C9.36096 4.40974 8.83481 3.87833 8.83481 3.23316V1.69549Z" fill="#F6D155"/>
</svg>
