<svg width="14" height="15" viewBox="0 0 14 15" fill="none" xmlns="http://www.w3.org/2000/svg">
<g id="Icons">
<path id="Vector" d="M4.08317 3.41659V1.66659C4.08317 1.34442 4.34434 1.08325 4.6665 1.08325H9.33317C9.65535 1.08325 9.9165 1.34442 9.9165 1.66659V3.41659H12.2498C12.572 3.41659 12.8332 3.67776 12.8332 3.99992V12.1666C12.8332 12.4888 12.572 12.7499 12.2498 12.7499H1.74984C1.42767 12.7499 1.1665 12.4888 1.1665 12.1666V3.99992C1.1665 3.67776 1.42767 3.41659 1.74984 3.41659H4.08317ZM9.9165 8.08325V6.33325H8.74984V8.08325H5.24984V6.33325H4.08317V8.08325H2.33317V11.5833H11.6665V8.08325H9.9165ZM5.24984 2.24992V3.41659H8.74984V2.24992H5.24984Z" fill="#C1C1C3"/>
</g>
</svg>
