<svg width="28" height="28" viewBox="0 0 28 28" fill="none" xmlns="http://www.w3.org/2000/svg">
<rect width="28" height="28" rx="4" fill="#EB5757"/>
<path d="M19.7826 11.247C19.9487 11.247 20.0994 11.3195 20.2186 11.442C20.3296 11.5728 20.3855 11.7353 20.3693 11.907C20.3693 11.9636 19.9252 17.5802 19.6715 19.9444C19.5127 21.3952 18.5774 22.276 17.1745 22.3002C16.0958 22.3244 15.0414 22.3327 14.0032 22.3327C12.9009 22.3327 11.823 22.3244 10.7767 22.3002C9.42082 22.2677 8.48474 21.371 8.33399 19.9444C8.07302 17.5719 7.63699 11.9636 7.62889 11.907C7.62079 11.7353 7.6759 11.5728 7.78774 11.442C7.89796 11.3195 8.05681 11.247 8.22377 11.247H19.7826ZM15.7206 5.66602C16.4573 5.66602 17.1154 6.18018 17.3059 6.9135L17.442 7.52183C17.5522 8.01766 17.9818 8.36849 18.4762 8.36849H20.9059C21.2301 8.36849 21.5 8.63765 21.5 8.98015V9.29681C21.5 9.63098 21.2301 9.90847 20.9059 9.90847H7.09488C6.76988 9.90847 6.5 9.63098 6.5 9.29681V8.98015C6.5 8.63765 6.76988 8.36849 7.09488 8.36849H9.52464C10.0182 8.36849 10.4478 8.01766 10.5588 7.52266L10.686 6.95434C10.8838 6.18018 11.5346 5.66602 12.2794 5.66602H15.7206Z" fill="#F8F9FF"/>
</svg>
