<svg width="14" height="14" viewBox="0 0 14 14" fill="none" xmlns="http://www.w3.org/2000/svg">
<path d="M6.665 0C2.97925 0 0 2.97925 0 6.665C0 10.3507 2.97925 13.33 6.665 13.33C10.3507 13.33 13.33 10.3507 13.33 6.665C13.33 2.97925 10.3507 0 6.665 0ZM9.53095 9.53095C9.46929 9.59274 9.39605 9.64176 9.31542 9.6752C9.23479 9.70865 9.14836 9.72586 9.06107 9.72586C8.97378 9.72586 8.88734 9.70865 8.80672 9.6752C8.72609 9.64176 8.65285 9.59274 8.59118 9.53095L6.665 7.60476L4.73881 9.53095C4.61419 9.65557 4.44517 9.72558 4.26893 9.72558C4.09269 9.72558 3.92367 9.65557 3.79905 9.53095C3.67443 9.40633 3.60442 9.23731 3.60442 9.06107C3.60442 8.9738 3.62161 8.88739 3.655 8.80677C3.6884 8.72615 3.73734 8.65289 3.79905 8.59118L5.72523 6.665L3.79905 4.73881C3.67443 4.61419 3.60442 4.44517 3.60442 4.26893C3.60442 4.09269 3.67443 3.92367 3.79905 3.79905C3.92367 3.67443 4.09269 3.60442 4.26893 3.60442C4.44517 3.60442 4.61419 3.67443 4.73881 3.79905L6.665 5.72523L8.59118 3.79905C8.65289 3.73734 8.72615 3.6884 8.80677 3.655C8.88739 3.62161 8.9738 3.60442 9.06107 3.60442C9.14833 3.60442 9.23474 3.62161 9.31537 3.655C9.39599 3.6884 9.46924 3.73734 9.53095 3.79905C9.59266 3.86076 9.6416 3.93401 9.675 4.01463C9.70839 4.09526 9.72558 4.18167 9.72558 4.26893C9.72558 4.3562 9.70839 4.44261 9.675 4.52323C9.6416 4.60385 9.59266 4.67711 9.53095 4.73881L7.60476 6.665L9.53095 8.59118C9.78422 8.84445 9.78422 9.27101 9.53095 9.53095Z" fill="#EB5757"/>
</svg>
