<svg width="1140" height="66" viewBox="0 0 1140 66" fill="none" xmlns="http://www.w3.org/2000/svg">
<g clip-path="url(#clip0_3192_81864)">
<rect width="1140" height="66" rx="8" fill="url(#paint0_linear_3192_81864)"/>
<g opacity="0.4">
<path d="M249.947 -103.135H355.881L203.935 304.018H98L249.947 -103.135Z" fill="url(#paint1_linear_3192_81864)" fill-opacity="0.08"/>
<path d="M492.947 15H598.881L446.935 422.153H341L492.947 15Z" fill="url(#paint2_linear_3192_81864)" fill-opacity="0.08"/>
<path d="M825.947 -51H931.881L779.935 356.153H674L825.947 -51Z" fill="url(#paint3_linear_3192_81864)" fill-opacity="0.08"/>
<path d="M470.947 -296H576.881L424.935 111.153H319L470.947 -296Z" fill="url(#paint4_linear_3192_81864)" fill-opacity="0.08"/>
<path d="M51.9467 8H157.881L5.93468 415.153H-100L51.9467 8Z" fill="url(#paint5_linear_3192_81864)" fill-opacity="0.08"/>
<path d="M746.947 -268H852.881L700.935 139.153H595L746.947 -268Z" fill="url(#paint6_linear_3192_81864)" fill-opacity="0.08"/>
<path d="M1033.95 -228H1139.88L987.935 179.153H882L1033.95 -228Z" fill="url(#paint7_linear_3192_81864)" fill-opacity="0.08"/>
</g>
</g>
<defs>
<linearGradient id="paint0_linear_3192_81864" x1="1.6123e-05" y1="3.27021" x2="839.389" y2="227.017" gradientUnits="userSpaceOnUse">
<stop stop-color="#190534"/>
<stop offset="1" stop-color="#332447"/>
</linearGradient>
<linearGradient id="paint1_linear_3192_81864" x1="226.941" y1="-103.135" x2="226.941" y2="304.018" gradientUnits="userSpaceOnUse">
<stop stop-color="white"/>
<stop offset="1" stop-color="white" stop-opacity="0"/>
</linearGradient>
<linearGradient id="paint2_linear_3192_81864" x1="469.941" y1="15" x2="469.941" y2="422.153" gradientUnits="userSpaceOnUse">
<stop stop-color="white"/>
<stop offset="1" stop-color="white" stop-opacity="0"/>
</linearGradient>
<linearGradient id="paint3_linear_3192_81864" x1="802.941" y1="-51" x2="802.941" y2="356.153" gradientUnits="userSpaceOnUse">
<stop stop-color="white"/>
<stop offset="1" stop-color="white" stop-opacity="0"/>
</linearGradient>
<linearGradient id="paint4_linear_3192_81864" x1="447.941" y1="-296" x2="447.941" y2="111.153" gradientUnits="userSpaceOnUse">
<stop stop-color="white"/>
<stop offset="1" stop-color="white" stop-opacity="0"/>
</linearGradient>
<linearGradient id="paint5_linear_3192_81864" x1="28.9407" y1="8" x2="28.9407" y2="415.153" gradientUnits="userSpaceOnUse">
<stop stop-color="white"/>
<stop offset="1" stop-color="white" stop-opacity="0"/>
</linearGradient>
<linearGradient id="paint6_linear_3192_81864" x1="723.941" y1="-268" x2="723.941" y2="139.153" gradientUnits="userSpaceOnUse">
<stop stop-color="white"/>
<stop offset="1" stop-color="white" stop-opacity="0"/>
</linearGradient>
<linearGradient id="paint7_linear_3192_81864" x1="1010.94" y1="-228" x2="1010.94" y2="179.153" gradientUnits="userSpaceOnUse">
<stop stop-color="white"/>
<stop offset="1" stop-color="white" stop-opacity="0"/>
</linearGradient>
<clipPath id="clip0_3192_81864">
<rect width="1140" height="66" rx="8" fill="white"/>
</clipPath>
</defs>
</svg>
