<svg width="9" height="14" viewBox="0 0 9 14" fill="none" xmlns="http://www.w3.org/2000/svg">
<path fill-rule="evenodd" clip-rule="evenodd" d="M1.29291 0.959934C1.10564 1.14743 1.00046 1.4016 1.00046 1.6666C1.00046 1.9316 1.10564 2.18577 1.29291 2.37327L5.91958 6.99993L1.29291 11.6266C1.19466 11.7182 1.11586 11.8286 1.0612 11.9512C1.00655 12.0739 0.977158 12.2063 0.974789 12.3406C0.972419 12.4748 0.997119 12.6082 1.04741 12.7327C1.09771 12.8572 1.17257 12.9704 1.26753 13.0653C1.36249 13.1603 1.4756 13.2351 1.60011 13.2854C1.72463 13.3357 1.858 13.3604 1.99227 13.3581C2.12654 13.3557 2.25896 13.3263 2.38163 13.2716C2.50429 13.217 2.61469 13.1382 2.70624 13.0399L8.03958 7.7066C8.22684 7.5191 8.33203 7.26494 8.33203 6.99993C8.33203 6.73493 8.22684 6.48077 8.03958 6.29327L2.70624 0.959934C2.51874 0.772666 2.26458 0.66748 1.99958 0.66748C1.73458 0.66748 1.48041 0.772666 1.29291 0.959934Z" fill="#5A5C5D"/>
</svg>
