<svg width="58" height="80" viewBox="0 0 58 80" fill="none" xmlns="http://www.w3.org/2000/svg">
<g id="component">
<path d="M17.4433 41.7228C16.0686 50.0496 9.79277 56.766 7.05431 59.3432C4.08181 62.1405 0.872469 61.6681 0.572418 56.0005C0.341179 51.6254 1.0769 46.6449 2.51594 42.1931C3.77736 38.2907 5.90972 34.5806 8.93343 32.21C9.69076 31.616 10.5733 31.258 11.4863 31.1592C13.8178 30.9081 15.987 32.3994 16.8112 34.8251C17.5437 36.9819 17.8241 39.4191 17.4437 41.7228H17.4433Z" fill="url(#paint0_linear_2314_48607)"/>
<path d="M40.5575 41.7228C41.0256 44.5592 42.0626 47.2087 43.3348 49.5716C43.456 49.7973 43.5796 50.0198 43.7053 50.2403C46.1233 54.4856 49.2298 57.7278 50.9465 59.3432C53.9186 62.1409 57.1283 61.6677 57.4288 56.0005C57.66 51.6254 56.9239 46.6449 55.4853 42.1931C55.4312 42.0253 55.3752 41.8579 55.3176 41.6909C55.222 41.4125 55.1216 41.1345 55.0164 40.8589C53.723 37.4567 51.7442 34.3087 49.0678 32.21C48.3108 31.6164 47.4283 31.258 46.5153 31.1592C44.1834 30.9081 42.0146 32.3994 41.1904 34.8251C40.4579 36.9819 40.1775 39.4195 40.5579 41.7228H40.5575Z" fill="url(#paint1_linear_2314_48607)"/>
<path opacity="0.1" d="M43.335 49.5717C43.4562 49.7975 43.5798 50.0199 43.7054 50.2404C48.2874 48.5503 52.1737 45.6902 55.3174 41.6906C55.2218 41.4122 55.1213 41.1342 55.0161 40.8586C53.2706 43.1497 51.2783 45.079 49.0703 46.614C47.3132 47.835 45.3957 48.8234 43.335 49.5717Z" fill="#131E2E"/>
<path opacity="0.1" d="M14.665 49.5717C14.5438 49.7975 14.4202 50.0199 14.2946 50.2404C9.7126 48.5503 5.82635 45.6902 2.68262 41.6906C2.77823 41.4122 2.87865 41.1342 2.98386 40.8586C4.72936 43.1497 6.72169 45.079 8.92967 46.614C10.6868 47.835 12.6043 48.8234 14.665 49.5717Z" fill="#131E2E"/>
<path d="M9.66473 42.7986C9.66473 45.7726 10.1072 48.8226 10.9145 51.7607C20.4717 60.3162 35.4343 60.0149 46.761 51.7517C47.5671 48.8165 48.0088 45.7698 48.0088 42.7986C48.0088 29.6978 39.4249 27.5476 28.8368 27.5476C18.2486 27.5476 9.66473 29.6978 9.66473 42.7986Z" fill="url(#paint2_linear_2314_48607)"/>
<path d="M10.9153 51.7603C13.6661 61.7634 20.6525 70.4695 28.8371 70.4695C37.0217 70.4695 44.0129 61.7581 46.7617 51.7509C46.344 51.733 45.9264 51.6958 45.5119 51.6378C42.3678 51.1998 39.3921 49.5991 37.2609 47.1999C35.8783 45.6436 34.8517 43.7792 33.4111 42.2789C33.3991 42.2663 33.3875 42.2544 33.3755 42.2422C30.9623 39.7568 27.0176 39.7568 24.6044 42.2422C24.5924 42.2544 24.5808 42.2663 24.5688 42.2789C23.1281 43.7792 22.1016 45.6436 20.7189 47.1999C18.5878 49.5995 15.6121 51.1998 12.4679 51.6378C11.9535 51.7097 11.435 51.7501 10.9161 51.7599L10.9153 51.7603Z" fill="url(#paint3_linear_2314_48607)"/>
<path d="M50.8215 21.0381C53.6644 21.0381 55.9688 18.5658 55.9688 15.5162C55.9688 12.4667 53.6644 9.99438 50.8215 9.99438V21.0377V21.0381Z" fill="url(#paint4_linear_2314_48607)"/>
<path d="M7.15625 21.0381C4.31337 21.0381 2.00898 18.5658 2.00898 15.5162C2.00898 12.4667 4.31337 9.99438 7.15625 9.99438V21.0377V21.0381Z" fill="url(#paint5_linear_2314_48607)"/>
<path d="M5.78087 16.5994C5.78087 28.1424 16.1766 31.0336 29.0008 31.0336C41.8245 31.0336 52.2207 28.1424 52.2207 16.5994V14.4341C52.2203 2.89115 41.8245 0 29.0008 0C16.177 0 5.78087 2.89115 5.78087 14.4341V16.5994Z" fill="url(#paint6_linear_2314_48607)"/>
<path d="M10.5232 17.9163C10.5232 24.3187 18.7906 25.9222 28.9892 25.9222C39.1877 25.9222 47.4551 24.3187 47.4551 17.9163V16.7152C47.4551 10.3128 39.1877 8.70923 28.9892 8.70923C18.7906 8.70923 10.5232 10.3128 10.5232 16.7152V17.9163Z" fill="#131C27"/>
<path d="M33.9914 18.5567C33.8778 19.0086 34.2855 19.4181 34.7279 19.2997C35.7465 19.027 36.7907 18.8906 37.8353 18.8906C38.8798 18.8906 39.924 19.027 40.9426 19.2997C41.3847 19.4181 41.7923 19.0086 41.6791 18.5567C41.2402 16.8082 39.6856 15.5161 37.8353 15.5161C35.9849 15.5161 34.4307 16.8086 33.9914 18.5567Z" fill="#F6D155"/>
<path d="M23.9866 18.5567C24.1002 19.0086 23.6926 19.4181 23.2501 19.2997C22.2315 19.027 21.1873 18.8906 20.1428 18.8906C19.0982 18.8906 18.054 19.027 17.0354 19.2997C16.5934 19.4181 16.1857 19.0086 16.2989 18.5567C16.7378 16.8082 18.2924 15.5161 20.1428 15.5161C21.9931 15.5161 23.5473 16.8086 23.9866 18.5567Z" fill="#F6D155"/>
<path opacity="0.76" d="M10.5227 16.7152V17.9158C10.5227 17.9873 10.5239 18.0583 10.5259 18.1285C10.7067 11.9025 18.9037 10.3348 28.9882 10.3348C39.0727 10.3348 47.2701 11.9029 47.4509 18.1285C47.4533 18.0583 47.4541 17.9873 47.4541 17.9158V16.7152C47.4541 10.3124 39.1867 8.70923 28.9878 8.70923C18.7889 8.70923 10.5223 10.3124 10.5223 16.7152H10.5227Z" fill="#131E2E"/>
<path d="M18.6431 0.871592C19.7513 1.962 20.4846 3.43411 20.8263 5.32875C20.9339 5.92805 21.452 6.35874 22.0485 6.35874H35.9516C36.5481 6.35874 37.0662 5.92764 37.1747 5.32875C37.5159 3.43411 38.2492 1.96159 39.3574 0.872C36.2393 0.243719 32.7219 0 29.0001 0C25.2782 0 21.7609 0.243719 18.6431 0.871592Z" fill="#FBD050"/>
<path d="M18.6431 0.871502C19.7513 1.96191 20.4846 3.43402 20.8263 5.32866C20.9339 5.92796 21.452 6.35865 22.0485 6.35865H35.9516C36.5481 6.35865 37.0662 5.92755 37.1747 5.32866C37.5159 3.43402 38.2492 1.9615 39.3574 0.87191C37.8624 1.7782 36.9894 2.54855 36.6694 4.32603C36.5686 4.88817 36.0821 5.29233 35.5228 5.29233H22.4786C21.9189 5.29233 21.4328 4.88776 21.332 4.32603C21.0115 2.54814 20.1054 1.35445 18.6439 0.871094L18.6431 0.871502Z" fill="#141E26"/>
<path d="M28.9884 54.4506C26.2363 54.4506 24.0052 52.1739 24.0052 49.3655C24.0052 46.5572 26.2363 44.2805 28.9884 44.2805C31.7406 44.2805 33.9717 46.5572 33.9717 49.3655C33.9717 52.1739 31.7406 54.4506 28.9884 54.4506Z" fill="url(#paint7_linear_2314_48607)"/>
<path d="M28.9882 53.4341C26.787 53.4341 25.0027 51.6133 25.0027 49.3672C25.0027 47.1211 26.787 45.3003 28.9882 45.3003C31.1893 45.3003 32.9736 47.1211 32.9736 49.3672C32.9736 51.6133 31.1893 53.4341 28.9882 53.4341Z" fill="#FBD050"/>
<path opacity="0.1" d="M25.0027 49.3672C25.0027 49.4974 25.0087 49.6264 25.0207 49.7534C25.2111 47.6881 26.9146 46.0723 28.9882 46.0723C31.0617 46.0723 32.7652 47.6881 32.9556 49.7534C32.968 49.6264 32.9736 49.4974 32.9736 49.3672C32.9736 47.1206 31.1893 45.3003 28.9882 45.3003C26.787 45.3003 25.0027 47.1206 25.0027 49.3672Z" fill="#131E2E"/>
<path opacity="0.63" d="M28.9882 80.0024C21.9719 80.0024 16.2841 78.9413 16.2841 77.6322C16.2841 76.3232 21.9719 75.262 28.9882 75.262C36.0045 75.262 41.6924 76.3232 41.6924 77.6322C41.6924 78.9413 36.0045 80.0024 28.9882 80.0024Z" fill="url(#paint8_radial_2314_48607)"/>
</g>
<defs>
<linearGradient id="paint0_linear_2314_48607" x1="4.2279" y1="45.626" x2="14.7981" y2="46.852" gradientUnits="userSpaceOnUse">
<stop stop-color="#E6E6E6"/>
<stop offset="1" stop-color="#A5B0B5"/>
</linearGradient>
<linearGradient id="paint1_linear_2314_48607" x1="54.2923" y1="46.0713" x2="42.6335" y2="46.0713" gradientUnits="userSpaceOnUse">
<stop stop-color="#E6E6E6"/>
<stop offset="1" stop-color="#A5B0B5"/>
</linearGradient>
<linearGradient id="paint2_linear_2314_48607" x1="28.8368" y1="48.16" x2="28.8368" y2="31.9848" gradientUnits="userSpaceOnUse">
<stop stop-color="#E6E6E6"/>
<stop offset="1" stop-color="#A5B0B5"/>
</linearGradient>
<linearGradient id="paint3_linear_2314_48607" x1="28.8383" y1="61.22" x2="28.8383" y2="42.1312" gradientUnits="userSpaceOnUse">
<stop stop-color="#E6E6E6"/>
<stop offset="1" stop-color="#A5B0B5"/>
</linearGradient>
<linearGradient id="paint4_linear_2314_48607" x1="55.9688" y1="15.5162" x2="50.8215" y2="15.5162" gradientUnits="userSpaceOnUse">
<stop stop-color="#E6E6E6"/>
<stop offset="1" stop-color="#A5B0B5"/>
</linearGradient>
<linearGradient id="paint5_linear_2314_48607" x1="7.15625" y1="15.5162" x2="2.00938" y2="15.5162" gradientUnits="userSpaceOnUse">
<stop stop-color="#E6E6E6"/>
<stop offset="1" stop-color="#A5B0B5"/>
</linearGradient>
<linearGradient id="paint6_linear_2314_48607" x1="52.2203" y1="15.5168" x2="5.78087" y2="15.5168" gradientUnits="userSpaceOnUse">
<stop stop-color="#E6E6E6"/>
<stop offset="1" stop-color="#A5B0B5"/>
</linearGradient>
<linearGradient id="paint7_linear_2314_48607" x1="32.3998" y1="46.0853" x2="25.4442" y2="52.5086" gradientUnits="userSpaceOnUse">
<stop stop-color="#E6E6E6"/>
<stop offset="0.2" stop-color="#A5B0B5"/>
<stop offset="0.37" stop-color="#CCD1D3"/>
<stop offset="0.57" stop-color="#B5BEC2"/>
<stop offset="0.74" stop-color="white"/>
<stop offset="1" stop-color="#A5B0B5"/>
</linearGradient>
<radialGradient id="paint8_radial_2314_48607" cx="0" cy="0" r="1" gradientUnits="userSpaceOnUse" gradientTransform="translate(28.9882 77.5682) rotate(180) scale(12.1324 1.98084)">
<stop stop-opacity="0.3"/>
<stop offset="0.92" stop-opacity="0"/>
</radialGradient>
</defs>
</svg>
