<svg width="54" height="50" viewBox="0 0 54 50" fill="none" xmlns="http://www.w3.org/2000/svg">
<path d="M25.2842 1L25.7668 0.869471L24.792 0.912221L24.7919 0.91222L24.7919 0.912221L24.7919 0.912505L24.7916 0.91393L24.7905 0.920173L24.7858 0.946029C24.7816 0.969131 24.7751 1.00386 24.7665 1.04958C24.7493 1.14104 24.7233 1.27649 24.6884 1.45097C24.6186 1.79995 24.5135 2.30488 24.3725 2.92604C24.0904 4.16889 23.6654 5.87435 23.0938 7.72556C21.9411 11.4582 20.2239 15.6739 17.9489 17.949C15.6739 20.224 11.4582 21.9412 7.7255 23.0938C5.87429 23.6655 4.16883 24.0905 2.92598 24.3726C2.30482 24.5135 1.79989 24.6187 1.45091 24.6884C1.27643 24.7233 1.14098 24.7493 1.04952 24.7666C1.00379 24.7752 0.969071 24.7816 0.94597 24.7859L0.920114 24.7906L0.91387 24.7917L0.912444 24.792L0.91216 24.792L0.93841 25.7804L0.938711 25.7805L0.940205 25.7807L0.946753 25.7815L0.97386 25.785C0.998074 25.7881 1.03447 25.7928 1.08238 25.7993C1.17821 25.8122 1.3201 25.8318 1.50279 25.8584C1.8682 25.9118 2.39662 25.9934 3.04598 26.1061C4.34531 26.3317 6.12581 26.6813 8.05183 27.1776C9.97929 27.6742 12.0432 28.3153 13.9128 29.1215C15.7887 29.9305 17.435 30.8914 18.556 32.0124C19.6771 33.1335 20.638 34.7798 21.4469 36.6557C22.2531 38.5252 22.8942 40.5891 23.3909 42.5166C23.8871 44.4426 24.2368 46.2231 24.4623 47.5224C24.5751 48.1718 24.6567 48.7002 24.71 49.0656C24.7367 49.2483 24.7563 49.3902 24.7691 49.486C24.7756 49.5339 24.7803 49.5703 24.7835 49.5946L24.7869 49.6217L24.7878 49.6282L24.7879 49.6297L24.788 49.63L25.7625 49.7141L25.7626 49.7138L25.763 49.7125L25.7647 49.7069L25.7719 49.6834L25.8012 49.5897C25.8272 49.5069 25.8661 49.3842 25.9174 49.226C26.0201 48.9097 26.1724 48.4515 26.3699 47.8866C26.7653 46.7562 27.3413 45.2002 28.0642 43.4979C29.5186 40.073 31.5368 36.1306 33.8337 33.8337C36.1306 31.5368 40.0729 29.5186 43.4979 28.0643C45.2002 27.3414 46.7561 26.7653 47.8865 26.37C48.4515 26.1724 48.9096 26.0202 49.226 25.9175C49.3841 25.8662 49.5068 25.8272 49.5896 25.8012L49.6834 25.772L49.7068 25.7648L49.7125 25.763L49.7138 25.7626L49.714 25.7626L49.5684 25.2842L49.714 25.7626L51.3786 25.2558L49.6989 24.8016L49.6987 24.8015L49.6973 24.8011L49.6915 24.7996L49.6675 24.793L49.5713 24.7662C49.4864 24.7424 49.3605 24.7067 49.1983 24.6595C48.8738 24.5651 48.404 24.4246 47.825 24.2412C46.6666 23.8742 45.0733 23.336 43.3339 22.651C39.8323 21.2721 35.8215 19.3297 33.5301 17.0383C31.2387 14.7469 29.2963 10.7361 27.9174 7.23455C27.2324 5.49512 26.6942 3.90185 26.3272 2.74342C26.1438 2.16442 26.0033 1.6946 25.9089 1.37012C25.8617 1.2079 25.826 1.08205 25.8022 0.997089L25.7754 0.9009L25.7689 0.876878L25.7673 0.871071L25.7669 0.869742L25.7668 0.869474L25.2842 1Z" fill="#F6D155" stroke="#131D26"/>
</svg>
