<svg width="40" height="40" viewBox="0 0 40 40" fill="none" xmlns="http://www.w3.org/2000/svg">
<path d="M20.0002 36.6663C24.6025 36.6663 28.7692 34.8008 31.7852 31.7848C34.8013 28.7687 36.6668 24.602 36.6668 19.9997C36.6668 15.3973 34.8013 11.2307 31.7852 8.21456C28.7692 5.19849 24.6025 3.33301 20.0002 3.33301C15.3978 3.33301 11.2312 5.19849 8.21505 8.21456C5.19898 11.2307 3.3335 15.3973 3.3335 19.9997C3.3335 24.602 5.19898 28.7687 8.21505 31.7848C11.2312 34.8008 15.3978 36.6663 20.0002 36.6663Z" fill="#219653"/>
<path fill-rule="evenodd" clip-rule="evenodd" d="M29.5122 13.8212C30.163 14.472 30.163 15.5273 29.5122 16.1782L19.5122 26.1782C18.8613 26.8291 17.806 26.8291 17.1551 26.1782L12.1551 21.1782C11.5043 20.5273 11.5043 19.472 12.1551 18.8212C12.806 18.1703 13.8613 18.1703 14.5122 18.8212L18.3337 22.6427L27.1551 13.8212C27.806 13.1703 28.8613 13.1703 29.5122 13.8212Z" fill="white"/>
</svg>
