<svg width="22" height="22" viewBox="0 0 22 22" fill="none" xmlns="http://www.w3.org/2000/svg">
<rect width="22" height="22" rx="4" fill="white" fill-opacity="0.2"/>
<rect x="0.5" y="0.5" width="21" height="21" rx="3.5" stroke="#E5E6EC" stroke-opacity="0.08"/>
<path d="M10.1996 5.95597C10.9928 5.5161 12.0018 5.80511 12.4451 6.59122L16.6852 13.95C16.7785 14.1697 16.8193 14.3483 16.831 14.5338C16.8543 14.9674 16.7027 15.3887 16.4052 15.713C16.1078 16.0361 15.7053 16.2269 15.2679 16.25H6.72936C6.54856 16.239 6.36775 16.198 6.19861 16.1344C5.35292 15.7934 4.94466 14.8338 5.28877 14.0021L9.55805 6.58602C9.70386 6.32533 9.92549 6.10048 10.1996 5.95597ZM10.9986 12.909C10.7187 12.909 10.4854 13.1402 10.4854 13.4183C10.4854 13.6951 10.7187 13.9269 10.9986 13.9269C11.2786 13.9269 11.5061 13.6951 11.5061 13.4119C11.5061 13.135 11.2786 12.909 10.9986 12.909ZM10.9986 9.30273C10.7187 9.30273 10.4854 9.52758 10.4854 9.80561V11.4408C10.4854 11.7183 10.7187 11.9501 10.9986 11.9501C11.2786 11.9501 11.5061 11.7183 11.5061 11.4408V9.80561C11.5061 9.52758 11.2786 9.30273 10.9986 9.30273Z" fill="#F8F9FF"/>
</svg>
