<svg width="22" height="22" viewBox="0 0 22 22" fill="none" xmlns="http://www.w3.org/2000/svg">
<rect width="22" height="22" rx="4" fill="white" fill-opacity="0.2"/>
<rect x="0.5" y="0.5" width="21" height="21" rx="3.5" stroke="#E5E6EC" stroke-opacity="0.08"/>
<path d="M11.0001 5.16626C14.2259 5.16626 16.8334 7.78018 16.8334 10.9996C16.8334 14.2202 14.2259 16.8329 11.0001 16.8329C7.78006 16.8329 5.16673 14.2202 5.16673 10.9996C5.16673 7.78018 7.78006 5.16626 11.0001 5.16626ZM11.0001 12.7093C10.7201 12.7093 10.4926 12.9368 10.4926 13.2168C10.4926 13.4968 10.7201 13.7302 11.0059 13.7302C11.2859 13.7302 11.5134 13.4968 11.5134 13.2168C11.5134 12.9368 11.2859 12.7093 11.0001 12.7093ZM11.0001 8.27543C10.7201 8.27543 10.4867 8.50934 10.4867 8.78876V11.3671C10.4867 11.6477 10.7201 11.8746 11.0001 11.8746C11.2801 11.8746 11.5076 11.6477 11.5076 11.3671V8.78876C11.5076 8.50934 11.2801 8.27543 11.0001 8.27543Z" fill="#F8F9FF"/>
</svg>
