<svg width="22" height="22" viewBox="0 0 22 22" fill="none" xmlns="http://www.w3.org/2000/svg">
<rect width="22" height="22" rx="4" fill="white" fill-opacity="0.2"/>
<rect x="0.5" y="0.5" width="21" height="21" rx="3.5" stroke="#E5E6EC" stroke-opacity="0.08"/>
<path d="M11 16.8333C12.6108 16.8333 14.0691 16.1804 15.1248 15.1248C16.1804 14.0692 16.8333 12.6108 16.8333 11C16.8333 9.38919 16.1804 7.93086 15.1248 6.87521C14.0691 5.81959 12.6108 5.16667 11 5.16667C9.38918 5.16667 7.93085 5.81959 6.87521 6.87521C5.81958 7.93086 5.16666 9.38919 5.16666 11C5.16666 12.6108 5.81958 14.0692 6.87521 15.1248C7.93085 16.1804 9.38918 16.8333 11 16.8333Z" fill="#F8F9FF"/>
<path fill-rule="evenodd" clip-rule="evenodd" d="M14.3291 8.83753C14.5569 9.06533 14.5569 9.43468 14.3291 9.66248L10.8291 13.1625C10.6013 13.3903 10.232 13.3903 10.0042 13.1625L8.25418 11.4125C8.02638 11.1847 8.02638 10.8153 8.25418 10.5875C8.48199 10.3597 8.85133 10.3597 9.07914 10.5875L10.4167 11.925L13.5042 8.83753C13.732 8.60972 14.1013 8.60972 14.3291 8.83753Z" fill="#219653"/>
</svg>
