<svg width="20" height="16" viewBox="0 0 20 16" fill="none" xmlns="http://www.w3.org/2000/svg">
<path d="M19.7019 2.11415C19.0061 2.42248 18.2586 2.63082 17.4728 2.72498C18.2836 2.23981 18.8902 1.4762 19.1794 0.576649C18.4176 1.02914 17.5839 1.34765 16.7144 1.51832C16.1298 0.894037 15.3553 0.480255 14.5114 0.341211C13.6674 0.202168 12.8012 0.345642 12.0471 0.74936C11.2931 1.15308 10.6934 1.79445 10.3412 2.5739C9.98905 3.35335 9.90405 4.22727 10.0994 5.05998C8.55585 4.98248 7.0458 4.58127 5.66729 3.8824C4.28879 3.18353 3.07264 2.20262 2.09777 1.00332C1.76444 1.57832 1.57277 2.24498 1.57277 2.95498C1.5724 3.59415 1.7298 4.22352 2.03101 4.78726C2.33221 5.351 2.76791 5.83168 3.29944 6.18665C2.683 6.16703 2.08017 6.00047 1.54111 5.70082V5.75082C1.54104 6.64727 1.85113 7.51613 2.41876 8.20998C2.98638 8.90383 3.77658 9.37992 4.65527 9.55748C4.08343 9.71225 3.48389 9.73504 2.90194 9.62415C3.14985 10.3955 3.63277 11.07 4.28308 11.5533C4.93339 12.0365 5.71854 12.3043 6.52861 12.3191C5.15347 13.3987 3.45518 13.9842 1.70694 13.9816C1.39726 13.9817 1.08784 13.9636 0.780273 13.9275C2.55484 15.0685 4.62056 15.674 6.73027 15.6716C13.8719 15.6716 17.7761 9.75665 17.7761 4.62665C17.7761 4.45998 17.7719 4.29165 17.7644 4.12498C18.5238 3.57579 19.1794 2.89573 19.7003 2.11665L19.7019 2.11415Z" fill="#E7E7E7"/>
</svg>
