<svg width="11" height="12" viewBox="0 0 11 12" fill="none" xmlns="http://www.w3.org/2000/svg">
<path d="M2.41683 4.8333H10.0002C10.1549 4.8333 10.3032 4.89476 10.4126 5.00416C10.522 5.11356 10.5835 5.26193 10.5835 5.41664V11.25C10.5835 11.4047 10.522 11.5531 10.4126 11.6624C10.3032 11.7718 10.1549 11.8333 10.0002 11.8333H0.666829C0.51212 11.8333 0.363747 11.7718 0.25435 11.6624C0.144954 11.5531 0.0834961 11.4047 0.0834961 11.25V5.41664C0.0834961 5.26193 0.144954 5.11356 0.25435 5.00416C0.363747 4.89476 0.51212 4.8333 0.666829 4.8333H1.25016V4.24997C1.24983 3.32988 1.56025 2.43665 2.13111 1.71506C2.70196 0.99347 3.49979 0.485826 4.39526 0.274416C5.29073 0.0630054 6.23136 0.160221 7.06467 0.550303C7.89798 0.940385 8.57512 1.60047 8.98633 2.42355L7.94275 2.94505C7.64903 2.35706 7.16533 1.88552 6.57006 1.60686C5.97479 1.3282 5.30285 1.25877 4.66318 1.40982C4.0235 1.56088 3.4536 1.92356 3.04587 2.43908C2.63814 2.95459 2.41648 3.59271 2.41683 4.24997V4.8333ZM4.16683 7.74997V8.91664H6.50016V7.74997H4.16683Z" fill="#219653"/>
</svg>
