<svg width="19" height="19" viewBox="0 0 19 19" fill="none" xmlns="http://www.w3.org/2000/svg">
<path d="M15.75 11.25C15.7516 11.5048 15.6742 11.7539 15.5284 11.9629C15.3826 12.1719 15.1756 12.3306 14.9359 12.4172L10.9008 13.9016L9.41641 17.9336C9.32851 18.1724 9.16947 18.3785 8.96075 18.5241C8.75204 18.6697 8.50369 18.7477 8.24922 18.7477C7.99475 18.7477 7.7464 18.6697 7.53769 18.5241C7.32898 18.3785 7.16994 18.1724 7.08203 17.9336L5.59375 13.9062L1.56094 12.4219C1.32213 12.334 1.11604 12.1749 0.97046 11.9662C0.824881 11.7575 0.746826 11.5092 0.746826 11.2547C0.746826 11.0002 0.824881 10.7519 0.97046 10.5432C1.11604 10.3344 1.32213 10.1754 1.56094 10.0875L5.5961 8.60313L7.08047 4.57109C7.16837 4.33229 7.32741 4.12619 7.53613 3.98061C7.74484 3.83504 7.99319 3.75698 8.24766 3.75698C8.50213 3.75698 8.75047 3.83504 8.95919 3.98061C9.1679 4.12619 9.32694 4.33229 9.41485 4.57109L10.8992 8.60625L14.9313 10.0906C15.1706 10.176 15.3777 10.3331 15.5242 10.5407C15.6708 10.7482 15.7496 10.9959 15.75 11.25ZM11.375 3.75H12.625V5C12.625 5.16576 12.6908 5.32473 12.8081 5.44194C12.9253 5.55915 13.0842 5.625 13.25 5.625C13.4158 5.625 13.5747 5.55915 13.6919 5.44194C13.8092 5.32473 13.875 5.16576 13.875 5V3.75H15.125C15.2908 3.75 15.4497 3.68415 15.5669 3.56694C15.6842 3.44973 15.75 3.29076 15.75 3.125C15.75 2.95924 15.6842 2.80027 15.5669 2.68306C15.4497 2.56585 15.2908 2.5 15.125 2.5H13.875V1.25C13.875 1.08424 13.8092 0.925268 13.6919 0.808058C13.5747 0.690848 13.4158 0.625 13.25 0.625C13.0842 0.625 12.9253 0.690848 12.8081 0.808058C12.6908 0.925268 12.625 1.08424 12.625 1.25V2.5H11.375C11.2092 2.5 11.0503 2.56585 10.9331 2.68306C10.8158 2.80027 10.75 2.95924 10.75 3.125C10.75 3.29076 10.8158 3.44973 10.9331 3.56694C11.0503 3.68415 11.2092 3.75 11.375 3.75ZM18.25 6.25H17.625V5.625C17.625 5.45924 17.5592 5.30027 17.4419 5.18306C17.3247 5.06585 17.1658 5 17 5C16.8342 5 16.6753 5.06585 16.5581 5.18306C16.4408 5.30027 16.375 5.45924 16.375 5.625V6.25H15.75C15.5842 6.25 15.4253 6.31585 15.3081 6.43306C15.1908 6.55027 15.125 6.70924 15.125 6.875C15.125 7.04076 15.1908 7.19973 15.3081 7.31694C15.4253 7.43415 15.5842 7.5 15.75 7.5H16.375V8.125C16.375 8.29076 16.4408 8.44973 16.5581 8.56694C16.6753 8.68415 16.8342 8.75 17 8.75C17.1658 8.75 17.3247 8.68415 17.4419 8.56694C17.5592 8.44973 17.625 8.29076 17.625 8.125V7.5H18.25C18.4158 7.5 18.5747 7.43415 18.6919 7.31694C18.8092 7.19973 18.875 7.04076 18.875 6.875C18.875 6.70924 18.8092 6.55027 18.6919 6.43306C18.5747 6.31585 18.4158 6.25 18.25 6.25Z" fill="white"/>
</svg>
