<svg width="20" height="20" viewBox="0 0 20 20" fill="none" xmlns="http://www.w3.org/2000/svg">
<rect width="20" height="20" rx="10" fill="#F6D155" fill-opacity="0.12"/>
<path d="M8.25041 12.4325L6.22624 10.4083C6.11717 10.2992 5.96924 10.238 5.81499 10.238C5.66075 10.238 5.51281 10.2992 5.40374 10.4083C5.29467 10.5174 5.2334 10.6653 5.2334 10.8196C5.2334 10.8959 5.24844 10.9716 5.27767 11.0421C5.3069 11.1127 5.34974 11.1768 5.40374 11.2308L7.84208 13.6692C8.06958 13.8967 8.43708 13.8967 8.66458 13.6692L14.8362 7.49748C14.9453 7.38841 15.0066 7.24048 15.0066 7.08623C15.0066 6.93199 14.9453 6.78405 14.8362 6.67498C14.7272 6.56591 14.5792 6.50464 14.425 6.50464C14.2707 6.50464 14.1228 6.56591 14.0137 6.67498L8.25041 12.4325Z" fill="#F6D155"/>
</svg>
